<svg width="232" height="34" viewBox="0 0 232 34" fill="none" xmlns="http://www.w3.org/2000/svg">
<path d="M16.3178 32.7626C16.0941 33.299 15.9138 33.6137 15.4593 33.6137C15.0049 33.6137 14.8173 33.299 14.5937 32.7626L3.18183 5.40677C1.9988 2.56748 0.000643868 3.74039 0.000643868 2.74628C-0.00301624 2.67552 0.00896098 2.60483 0.0357376 2.53914C0.0625142 2.47345 0.103444 2.41436 0.155662 2.36599C0.207881 2.31763 0.270128 2.28116 0.338049 2.25914C0.405969 2.23711 0.477923 2.23007 0.548876 2.2385C2.95821 2.2385 5.36755 2.32432 7.76245 2.32432C10.1574 2.32432 12.408 2.2385 14.7308 2.2385C15.4088 2.2385 15.7262 2.32432 15.7262 2.68906C15.7262 3.54729 12.9562 3.04666 12.9562 5.21367C12.9562 6.06474 13.6776 7.91707 19.3186 22.0205H19.4124C23.3654 12.0652 24.8659 9.08998 24.8659 7.00163C24.8659 2.49596 20.9561 3.89058 20.9561 2.71052C20.9561 2.35293 21.1364 2.21704 21.7279 2.21704C23.3221 2.21704 25.1832 2.30286 26.3663 2.30286C28.4582 2.30286 29.8649 2.21704 31.4158 2.21704C31.827 2.21704 32.1371 2.30286 32.1371 2.57463C32.1371 3.74754 28.8189 2.39584 26.2292 8.70378L16.3178 32.7626Z" fill="#25468A"/>
<path d="M37.179 15.0046C37.179 13.5743 36.7245 13.1594 35.8156 13.1594C34.3729 13.1594 33.2692 13.9247 33.2692 15.305C33.2692 16.342 33.4496 17.4506 33.4496 18.5519C33.4496 20.5759 32.0069 22.0206 29.5903 22.0206C27.1738 22.0206 26.1134 20.9121 26.1134 19.2385C26.1134 15.6626 32.7931 12.0867 38.7011 12.0867C43.7001 12.0867 45.4746 14.1106 45.4746 17.7581V29.9162C45.4746 30.4526 45.7487 30.7673 46.2465 30.7673C47.4728 30.7673 47.6531 29.1439 48.3384 29.1439C48.4447 29.1521 48.5445 29.1976 48.6199 29.2724C48.6953 29.3471 48.7413 29.4461 48.7496 29.5515C48.7496 30.0021 47.1987 33.2919 42.3367 33.2919C39.3791 33.2919 38.0663 32.212 37.518 30.4312C35.0654 32.3693 32.9302 33.2919 30.6507 33.2919C26.8347 33.2919 25.291 31.1464 25.291 29.1939C25.291 25.6752 27.9312 24.5953 37.2006 21.3269L37.179 15.0046ZM37.179 22.2638C34.3585 23.3866 33.5722 24.6954 33.5722 26.7194C33.5722 29.6945 34.2503 30.4598 35.4333 30.4598C36.1276 30.3907 36.7659 30.0511 37.2078 29.5157L37.179 22.2638Z" fill="#25468A"/>
<path d="M98.8705 12.0723C104.692 12.0723 107.916 15.9486 107.916 18.8808C107.916 21.4484 106.373 22.6213 104.374 22.6213C102.506 22.6213 100.919 21.3125 100.919 18.8808C100.919 17.4505 101.193 15.9486 101.193 15.0474C101.193 13.5599 100.284 12.9019 98.921 12.9019C96.7569 12.9019 95.0113 15.7626 95.0113 19.2098C95.0113 25.2531 98.6181 28.4071 102.102 28.4071C106.741 28.4071 106.51 25.4748 107.512 25.4748C107.83 25.4748 107.916 25.6536 107.916 25.9254C107.916 27.0983 105.19 33.2704 97.738 33.2704C96.3947 33.2922 95.0608 33.0438 93.8171 32.5403C92.5733 32.0367 91.4454 31.2884 90.5015 30.3405C89.5576 29.3926 88.8172 28.2649 88.3253 27.0254C87.8333 25.786 87.5998 24.4605 87.639 23.129C87.6786 20.1978 88.8766 17.3989 90.9755 15.3341C93.0743 13.2692 95.9065 12.1032 98.8633 12.0866" fill="#25468A"/>
<path d="M119.104 30.2381C119.104 32.448 121.737 31.5898 121.737 32.5338C121.737 32.7627 121.643 32.9844 121.239 32.9844C119.508 32.9844 117.553 32.8986 115.237 32.8986C112.922 32.8986 110.967 32.9844 109.236 32.9844C108.825 32.9844 108.738 32.7627 108.738 32.5338C108.738 31.5898 111.371 32.448 111.371 30.2381V5.31383C111.371 3.06099 108.558 3.64745 108.558 2.78922C108.558 1.75221 111.284 2.92511 119.104 0V30.2381ZM120.648 21.899C124.738 18.4303 125.74 17.5292 125.74 15.9987C125.74 12.8877 123.1 13.7459 123.1 12.7518C123.1 12.4371 123.331 12.3441 123.735 12.3441C124.601 12.3441 126.462 12.4371 128.33 12.4371C130.552 12.4371 132.146 12.3441 133.055 12.3441C133.603 12.3441 133.776 12.5301 133.776 12.7947C133.776 13.6958 130.638 12.7518 126.18 17.6651L133.459 30.281C134.772 32.5338 136.46 31.4968 136.46 32.5338C136.46 32.8986 136.229 32.9844 135.32 32.9844C133.545 32.9844 131.713 32.8986 129.592 32.8986C127.731 32.8986 125.913 32.9844 124.045 32.9844C123.591 32.9844 123.324 32.8986 123.324 32.4909C123.324 31.7757 124.868 32.2191 124.868 30.9103C124.74 30.0946 124.445 29.3134 124.002 28.6146L120.648 21.899Z" fill="#25468A"/>
<path d="M85.4163 9.33994C85.4398 9.39349 85.4809 9.43756 85.5329 9.46491C85.5849 9.49226 85.6448 9.50127 85.7026 9.49046C85.7605 9.47965 85.8129 9.44967 85.8514 9.40542C85.8898 9.36118 85.9119 9.3053 85.9141 9.24696C85.9141 7.1014 85.8563 2.57427 85.8563 2.40263C85.8613 2.38145 85.8613 2.35944 85.8563 2.33826C85.8422 2.31251 85.8214 2.29097 85.796 2.27588C85.7706 2.26079 85.7417 2.2527 85.7121 2.25244C80.1721 2.29535 74.5887 2.33826 68.7746 2.33826C65.4564 2.33826 62.8667 2.25244 61.0921 2.25244C60.5944 2.25244 60.4141 2.38833 60.4141 2.78883C60.4141 4.2192 64.23 2.52421 64.23 5.64958V9.12538C64.2297 9.19076 64.2453 9.25524 64.2754 9.3134C64.3055 9.37156 64.3493 9.42169 64.4031 9.45955C64.4568 9.49742 64.519 9.52191 64.5843 9.53097C64.6496 9.54002 64.7161 9.53337 64.7783 9.51158C65.59 9.20891 66.4502 9.05386 67.3175 9.05386C68.3072 9.05692 69.2863 9.25659 70.197 9.64106C71.1076 10.0255 71.9313 10.587 72.6194 11.2924C72.6758 11.357 72.7512 11.4025 72.835 11.4223C72.9188 11.4421 73.0068 11.4354 73.0865 11.403C73.1662 11.3706 73.2336 11.3142 73.2793 11.2417C73.3249 11.1692 73.3464 11.0844 73.3408 10.9992V3.75433C73.3397 3.69928 73.3501 3.64461 73.3713 3.59372C73.3925 3.54283 73.4241 3.49682 73.464 3.45856C73.5039 3.42031 73.5514 3.39063 73.6034 3.37138C73.6555 3.35212 73.7109 3.34372 73.7664 3.34668C75.8728 3.41104 78.7798 3.74718 80.5616 4.61256C82.2135 5.41356 83.2234 5.90704 84.1684 7.02989C84.7362 7.71614 85.1737 8.49883 85.4596 9.33994" fill="#25468A"/>
<path d="M63.2708 32.9915C62.8596 32.9915 62.773 32.7697 62.773 32.5409C62.773 31.5968 65.0453 32.4551 65.0453 30.2451V17.572C65.0453 15.591 63.9993 14.8686 62.8812 14.8686C61.7631 14.8686 60.4286 15.7269 59.4764 16.628V30.2165C59.4764 32.4265 61.7487 31.5682 61.7487 32.5123C61.7487 32.7411 61.6549 32.9628 61.251 32.9628C59.8876 32.9628 57.9327 32.877 55.61 32.877C53.2872 32.877 51.3612 32.9915 49.6371 32.9915C49.2259 32.9915 49.1322 32.7697 49.1322 32.5409C49.1322 31.5968 51.7723 32.4551 51.7723 30.2451V17.3718C51.7723 14.3036 48.7715 14.8472 48.7715 13.989C48.7715 13.2738 51.6569 14.0819 59.4981 12.0937V15.1833C62.6793 12.7517 64.4971 12.0723 67.0002 12.0723C71.5448 12.0723 72.7711 14.8686 72.7711 18.7879V30.2308C72.7451 30.6387 72.8818 31.0404 73.1516 31.3494C73.4215 31.6584 73.8029 31.85 74.2138 31.8829C76.2553 31.9353 78.2801 31.5064 80.1217 30.6313C81.7808 29.816 82.7763 29.3225 83.7285 28.1926C84.2945 27.5063 84.7296 26.7235 85.0125 25.8825C85.0182 25.8501 85.0303 25.8191 85.048 25.7913C85.0658 25.7636 85.0889 25.7395 85.116 25.7206C85.1431 25.7017 85.1737 25.6882 85.2061 25.681C85.2385 25.6738 85.272 25.673 85.3047 25.6787C85.3373 25.6843 85.3686 25.6963 85.3966 25.7139C85.4246 25.7315 85.4489 25.7544 85.468 25.7813C85.487 25.8082 85.5006 25.8385 85.5079 25.8706C85.5151 25.9027 85.5159 25.9359 85.5102 25.9683C85.5102 28.1139 85.5102 32.641 85.5102 32.8127C85.5152 32.8338 85.5152 32.8558 85.5102 32.877C85.4967 32.9033 85.476 32.9253 85.4505 32.9404C85.425 32.9556 85.3957 32.9634 85.366 32.9628L63.2708 32.9915Z" fill="#25468A"/>
<path d="M80.2151 21.9201C80.2945 22.4708 80.2945 22.9858 80.749 22.9858C80.9942 22.9858 81.1529 22.9142 81.1529 22.5352V11.2996C81.1529 10.9277 80.9942 10.8562 80.749 10.8562C80.2945 10.8562 80.2945 11.3711 80.2151 11.9218C79.8978 13.9744 77.8996 15.7266 75.2017 16.2129C75.1584 16.22 75.1193 16.2431 75.0925 16.2777C75.0658 16.3122 75.0532 16.3555 75.0574 16.3989C75.0574 16.7279 75.1079 16.8566 75.144 17.1141C75.1488 17.1478 75.1649 17.1788 75.1898 17.2022C75.2147 17.2256 75.2469 17.2399 75.2811 17.2428C77.878 17.7363 79.84 19.5028 80.2151 21.9416" fill="#25468A"/>
<path d="M136.482 5.75724C136.48 5.06242 136.687 4.38279 137.075 3.80438C137.463 3.22596 138.016 2.77476 138.663 2.50789C139.31 2.24101 140.022 2.17045 140.71 2.30513C141.397 2.43982 142.029 2.7737 142.525 3.26451C143.021 3.75533 143.359 4.38101 143.497 5.06238C143.634 5.74376 143.564 6.45018 143.296 7.09225C143.028 7.73432 142.574 8.28318 141.992 8.66935C141.409 9.05552 140.724 9.26166 140.023 9.26166C139.558 9.26546 139.096 9.17746 138.665 9.00278C138.234 8.8281 137.842 8.57023 137.513 8.24415C137.183 7.91807 136.922 7.53029 136.745 7.10336C136.568 6.67642 136.479 6.21885 136.482 5.75724V5.75724ZM137.051 5.75724C137.049 6.34062 137.22 6.91171 137.545 7.39815C137.87 7.88459 138.333 8.26448 138.876 8.48969C139.419 8.71491 140.017 8.7753 140.594 8.66323C141.172 8.55116 141.703 8.27166 142.12 7.86015C142.537 7.44864 142.821 6.92364 142.937 6.35167C143.053 5.77971 142.995 5.18652 142.771 4.64727C142.546 4.10803 142.165 3.64699 141.676 3.32258C141.187 2.99817 140.612 2.82499 140.023 2.82498C139.634 2.8231 139.248 2.89755 138.887 3.04407C138.527 3.19058 138.199 3.40627 137.923 3.67875C137.647 3.95122 137.427 4.27511 137.278 4.6318C137.128 4.98849 137.051 5.37097 137.051 5.75724ZM141.639 7.75261H140.983L139.966 5.93604H139.244V7.75261H138.646V3.81194H140.319C141.041 3.81194 141.69 4.02649 141.69 4.85611C141.7 4.99812 141.68 5.14068 141.631 5.27442C141.581 5.40817 141.504 5.53006 141.404 5.63208C141.304 5.73409 141.183 5.81392 141.05 5.86631C140.916 5.9187 140.773 5.94247 140.629 5.93604L141.639 7.75261ZM139.215 4.38409V5.36389H139.829C140.37 5.36389 141.105 5.44971 141.105 4.92048C141.105 4.39124 140.68 4.38409 140.204 4.38409H139.215Z" fill="#25468A"/>
<path fill-rule="evenodd" clip-rule="evenodd" d="M159.565 0.806886L159.565 32.8069L158.565 32.8069L158.565 0.806886L159.565 0.806886Z" fill="#25468A"/>
<path d="M174.565 9.52979H179.03C180.281 9.52979 181.341 9.68476 182.211 9.9947C183.081 10.2912 183.801 10.6752 184.372 11.1469C184.957 11.6186 185.412 12.1441 185.738 12.7236C186.078 13.2896 186.323 13.8353 186.472 14.3609C186.635 14.8865 186.737 15.3649 186.778 15.7961C186.819 16.2138 186.839 16.5103 186.839 16.6855C186.839 16.8607 186.819 17.1639 186.778 17.5951C186.737 18.0129 186.635 18.4845 186.472 19.0101C186.323 19.5357 186.078 20.0882 185.738 20.6676C185.412 21.2336 184.957 21.7525 184.372 22.2241C183.801 22.6958 183.081 23.0866 182.211 23.3965C181.341 23.693 180.281 23.8412 179.03 23.8412H174.565V9.52979ZM175.911 22.6284H178.684C179.635 22.6284 180.526 22.5138 181.355 22.2848C182.184 22.0422 182.904 21.6783 183.516 21.1932C184.128 20.7081 184.61 20.0949 184.963 19.3537C185.317 18.5991 185.494 17.7097 185.494 16.6855C185.494 15.6613 185.317 14.7787 184.963 14.0375C184.61 13.2828 184.128 12.6629 183.516 12.1778C182.904 11.6927 182.184 11.3356 181.355 11.1065C180.526 10.8639 179.635 10.7426 178.684 10.7426H175.911V22.6284Z" fill="#25468A"/>
<path d="M190.738 14.5024H191.961V23.8412H190.738V14.5024ZM190.432 10.8033C190.432 10.5472 190.52 10.3316 190.697 10.1564C190.874 9.98123 191.091 9.89363 191.349 9.89363C191.608 9.89363 191.825 9.98123 192.002 10.1564C192.178 10.3316 192.267 10.5472 192.267 10.8033C192.267 11.0593 192.178 11.2749 192.002 11.4501C191.825 11.6253 191.608 11.7129 191.349 11.7129C191.091 11.7129 190.874 11.6253 190.697 11.4501C190.52 11.2749 190.432 11.0593 190.432 10.8033Z" fill="#25468A"/>
<path d="M196.451 17.1302C196.451 16.955 196.444 16.7461 196.431 16.5036C196.417 16.2475 196.404 15.9915 196.39 15.7355C196.39 15.4794 196.383 15.2436 196.37 15.028C196.356 14.7989 196.349 14.6237 196.349 14.5024H197.573C197.586 14.8528 197.593 15.1897 197.593 15.5131C197.607 15.8365 197.627 16.0454 197.654 16.1397C197.967 15.5872 198.368 15.1358 198.857 14.7854C199.346 14.435 199.944 14.2598 200.651 14.2598C200.774 14.2598 200.889 14.2733 200.998 14.3003C201.12 14.3137 201.242 14.334 201.365 14.3609L201.222 15.5535C201.059 15.4996 200.903 15.4727 200.753 15.4727C200.223 15.4727 199.761 15.5603 199.367 15.7355C198.986 15.8972 198.667 16.1263 198.408 16.4227C198.164 16.7192 197.98 17.0696 197.858 17.4738C197.736 17.8647 197.675 18.2891 197.675 18.7473V23.8412H196.451V17.1302Z" fill="#25468A"/>
<path d="M212.22 22.0826C211.744 22.7968 211.153 23.3089 210.446 23.6189C209.753 23.9288 208.985 24.0838 208.142 24.0838C207.422 24.0838 206.77 23.9625 206.185 23.7199C205.601 23.4774 205.098 23.1405 204.676 22.7092C204.255 22.2645 203.929 21.7457 203.698 21.1528C203.48 20.5464 203.372 19.8793 203.372 19.1516C203.372 18.4509 203.487 17.804 203.718 17.2111C203.949 16.6181 204.276 16.106 204.697 15.6748C205.118 15.2301 205.614 14.8865 206.185 14.6439C206.756 14.3879 207.388 14.2598 208.081 14.2598C208.802 14.2598 209.434 14.3879 209.977 14.6439C210.535 14.8865 210.997 15.2166 211.364 15.6344C211.744 16.0387 212.03 16.5036 212.22 17.0291C212.41 17.5547 212.506 18.087 212.506 18.626V19.475H204.595C204.595 19.7311 204.642 20.0612 204.738 20.4655C204.846 20.8563 205.037 21.2404 205.309 21.6177C205.58 21.995 205.941 22.3184 206.389 22.588C206.851 22.8575 207.442 22.9922 208.163 22.9922C208.788 22.9922 209.393 22.844 209.977 22.5475C210.562 22.2511 211.01 21.8468 211.323 21.3347L212.22 22.0826ZM211.282 18.3835C211.282 17.9657 211.194 17.5749 211.017 17.2111C210.854 16.8472 210.623 16.5305 210.324 16.261C210.039 15.978 209.692 15.7557 209.284 15.594C208.89 15.4322 208.469 15.3514 208.02 15.3514C207.354 15.3514 206.797 15.4861 206.348 15.7557C205.913 16.0252 205.567 16.3351 205.309 16.6855C205.05 17.0359 204.867 17.3795 204.758 17.7164C204.649 18.0398 204.595 18.2622 204.595 18.3835H211.282Z" fill="#25468A"/>
<path d="M224.141 22.4667C223.678 23.0192 223.155 23.4302 222.571 23.6997C221.986 23.9558 221.354 24.0838 220.674 24.0838C219.954 24.0838 219.288 23.9625 218.676 23.7199C218.065 23.4774 217.541 23.1405 217.107 22.7092C216.672 22.2645 216.332 21.7457 216.087 21.1528C215.842 20.5464 215.72 19.886 215.72 19.1718C215.72 18.4576 215.842 17.804 216.087 17.2111C216.332 16.6047 216.672 16.0858 217.107 15.6546C217.541 15.2099 218.065 14.8663 218.676 14.6237C219.288 14.3811 219.954 14.2598 220.674 14.2598C221.368 14.2598 222.007 14.4013 222.591 14.6843C223.189 14.9673 223.719 15.3649 224.181 15.8769L223.203 16.6047C222.849 16.2138 222.462 15.9106 222.041 15.695C221.619 15.4659 221.164 15.3514 220.674 15.3514C220.104 15.3514 219.587 15.4525 219.125 15.6546C218.663 15.8567 218.269 16.133 217.942 16.4834C217.616 16.8203 217.365 17.2245 217.188 17.6962C217.025 18.1544 216.943 18.6463 216.943 19.1718C216.943 19.6974 217.025 20.196 217.188 20.6676C217.365 21.1258 217.616 21.5301 217.942 21.8805C218.269 22.2174 218.663 22.4869 219.125 22.689C219.587 22.8912 220.104 22.9922 220.674 22.9922C221.191 22.9922 221.66 22.8777 222.081 22.6486C222.516 22.406 222.89 22.0894 223.203 21.6986L224.141 22.4667Z" fill="#25468A"/>
<path d="M231.693 15.594H229.002V21.6783C229.002 22.0961 229.118 22.4195 229.349 22.6486C229.58 22.8777 229.899 22.9922 230.307 22.9922C230.538 22.9922 230.769 22.9653 231 22.9114C231.245 22.844 231.476 22.7632 231.693 22.6688L231.795 23.7604C231.564 23.8412 231.299 23.9153 231 23.9827C230.701 24.0501 230.436 24.0838 230.205 24.0838C229.77 24.0838 229.396 24.0164 229.084 23.8817C228.771 23.7604 228.519 23.5919 228.329 23.3763C228.139 23.1607 227.996 22.9114 227.901 22.6284C227.819 22.3319 227.779 22.0152 227.779 21.6783V15.594H225.74V14.5024H227.779V11.814H229.002V14.5024H231.693V15.594Z" fill="#25468A"/>
</svg>
