<svg width="126" height="129" viewBox="0 0 126 129" fill="none" xmlns="http://www.w3.org/2000/svg">
<path d="M47.9919 90.3899C46.737 100.531 51.6535 103.72 51.6535 103.72L20.8177 102.774C20.8177 102.774 16.2509 92.5087 15.8601 82.4289C15.8601 82.2644 15.8395 82.0998 15.8395 81.9558C15.5721 71.7115 18.6372 72.2875 18.6372 72.2875L54.0603 78.4999C54.0603 78.4999 49.5758 80.125 48.1153 89.2585C48.0947 89.6287 48.033 89.999 47.9919 90.3899Z" fill="url(#paint0_linear_10888_36386)"/>
<path d="M54.0808 78.5204C54.0808 78.5204 50.7895 79.7135 48.9381 85.8025C48.6295 86.8105 48.3621 87.9831 48.1358 89.279C45.3588 90.0196 41.9029 90.4104 37.6652 90.143C28.4495 89.567 20.2211 85.206 15.8601 82.4495C15.8601 82.2849 15.8395 82.1203 15.8395 81.9763C15.7984 80.6804 15.8189 79.549 15.8807 78.5822C16.2921 71.876 18.6372 72.308 18.6372 72.308L54.0808 78.5204Z" fill="url(#paint1_linear_10888_36386)"/>
<path d="M54.081 78.5204C54.081 78.5204 50.7897 79.7135 48.9383 85.8025C46.6138 86.2757 43.775 86.5019 40.3397 86.3579C26.5777 85.8231 19.1105 81.2358 15.8809 78.5822C16.2923 71.876 18.6374 72.308 18.6374 72.308L54.081 78.5204Z" fill="url(#paint2_linear_10888_36386)"/>
<path d="M57.6397 79.7753C57.6397 79.7753 57.2283 81.133 55.9324 82.3878C54.7187 83.5603 52.7439 84.6506 49.5965 84.3832C43.1167 83.8689 28.6553 82.2027 24.356 80.7833C24.356 80.7833 22.0315 80.1867 20.6121 77.6771C20.2007 76.9571 19.9333 76.2782 19.7276 75.6817C19.2339 74.1594 19.275 73.1309 19.275 73.1309C19.275 73.1309 22.9366 74.0772 28.9639 75.1674C34.9912 76.2782 57.6397 79.7753 57.6397 79.7753Z" fill="url(#paint3_linear_10888_36386)"/>
<path d="M55.9528 82.3878C55.3357 82.9844 54.5129 83.5604 53.4432 83.9512C52.4146 84.3215 51.1598 84.5066 49.617 84.3832C43.1372 83.8689 28.6758 82.2027 24.3765 80.7833C24.3765 80.7833 22.2577 80.2484 20.8177 77.9856C20.756 77.8828 20.6943 77.7799 20.6326 77.6771C20.2212 76.9571 19.9538 76.2783 19.748 75.6817C21.8051 76.2783 26.7422 77.4508 37.8916 79.3433C47.3542 80.9478 52.9083 81.8735 55.9528 82.3878Z" fill="url(#paint4_linear_10888_36386)"/>
<path d="M53.4431 83.9512C52.4145 84.3215 51.1597 84.5066 49.6169 84.3832C43.1371 83.8689 28.6757 82.2027 24.3764 80.7833C24.3764 80.7833 22.2576 80.2484 20.8176 77.9856C23.4301 78.6439 28.4083 79.7136 37.5829 81.277C45.0913 82.5524 50.1517 83.3958 53.4431 83.9512Z" fill="url(#paint5_linear_10888_36386)"/>
<path d="M19.2954 73.1309C19.2954 73.1309 19.3571 72.7606 19.0897 72.5343C18.8429 72.308 18.4932 72.2463 18.4932 72.2463L55.4797 78.7467L57.6602 79.7753L34.2299 76.4634L19.2954 73.1309Z" fill="url(#paint6_linear_10888_36386)"/>
<path d="M65.8063 67.6385C65.8063 80.0839 60.643 83.1489 57.9276 83.8483C55.2123 84.5683 49.0204 84.7534 38.7761 83.3341C28.5318 81.9147 24.3765 80.8038 24.3765 80.8038C24.3765 80.8038 27.277 80.8861 29.9923 77.1422C31.9466 74.4474 33.6128 71.5264 33.6128 64.3471C33.6128 61.5289 33.366 58.073 32.7488 53.7325C32.1934 49.7212 31.2677 45.895 30.1981 42.4185C27.1536 32.4828 22.9365 25.4681 22.9365 25.4681C22.9365 25.4681 31.1237 25.139 43.3223 27.916C47.0662 28.7595 50.049 29.5206 52.3941 30.1583C57.6808 31.5982 59.6762 32.4416 59.6762 32.4416C59.6762 32.4416 65.6211 47.7258 65.7857 66.7745C65.8063 67.0625 65.8063 67.3505 65.8063 67.6385Z" fill="url(#paint7_linear_10888_36386)"/>
<path d="M52.394 30.1377C52.1883 30.508 51.8797 30.8371 51.4066 31.0017C49.5963 31.6394 45.2765 29.9114 44.8239 34.869C44.3713 39.8266 39.9075 38.7158 34.8882 39.0655C32.7076 39.2095 31.2265 40.7317 30.2186 42.398C29.334 39.4975 28.326 36.8232 27.3798 34.5193C25.0758 28.9446 22.957 25.4475 22.957 25.4475C22.957 25.4475 31.1442 25.1184 43.3428 27.8955C44.865 28.2452 46.2433 28.5743 47.5187 28.8829C49.3906 29.356 51.0157 29.7674 52.394 30.1377Z" fill="url(#paint8_linear_10888_36386)"/>
<path d="M47.5187 28.8829C46.3256 29.7263 40.4217 27.1961 40.36 30.1583C40.2777 33.4496 36.8218 33.717 30.63 33.6553C29.19 33.6348 28.1409 33.9845 27.3798 34.5193C25.0758 28.9446 22.957 25.4475 22.957 25.4475C22.957 25.4475 31.1443 25.1184 43.3428 27.8955C44.8445 28.2452 46.2433 28.5743 47.5187 28.8829Z" fill="url(#paint9_linear_10888_36386)"/>
<path d="M65.8063 67.6384C65.8063 68.4819 65.7857 69.2841 65.724 70.0452C65.6006 72.1846 65.3126 73.9743 64.9011 75.5171C64.716 76.1754 64.5309 76.7925 64.3046 77.3685C64.2634 77.4713 64.2223 77.5742 64.1812 77.6565C64.1606 77.7182 64.14 77.7593 64.1194 77.821C64.0166 78.0885 63.8932 78.3353 63.7903 78.5616C63.7286 78.6645 63.6875 78.7673 63.6463 78.8702C63.5023 79.1376 63.3583 79.3844 63.2143 79.6313C63.0909 79.837 62.9675 80.0427 62.8235 80.2278C62.6795 80.4335 62.5561 80.6187 62.4121 80.7833C62.3503 80.8655 62.2681 80.9478 62.2064 81.0507C62.0624 81.2152 61.9184 81.3798 61.7744 81.5238C61.6715 81.6472 61.5481 81.7501 61.4452 81.8529C61.3835 81.9147 61.3424 81.9558 61.2807 81.9969C61.2601 82.0175 61.2601 82.0175 61.2395 82.0381C61.1778 82.0998 61.1161 82.1615 61.0544 82.2026C61.0338 82.2232 61.0132 82.2232 60.9927 82.2438C60.931 82.3055 60.8487 82.3672 60.787 82.4083C60.7252 82.4701 60.6635 82.5112 60.5812 82.5523C60.5195 82.5935 60.4578 82.6552 60.3961 82.6963C60.3344 82.7375 60.2727 82.7786 60.211 82.8198C60.1493 82.8609 60.0875 82.9021 60.0258 82.9432C59.6144 83.19 59.203 83.3958 58.8327 83.5398C58.771 83.5603 58.7093 83.6015 58.6476 83.622C58.5242 83.6632 58.4007 83.7043 58.2773 83.7455C58.2156 83.766 58.1539 83.7866 58.0922 83.8072C58.0305 83.8277 57.9687 83.8483 57.9276 83.8483C55.2122 84.5683 49.0204 84.7534 38.7761 83.334C28.5318 81.9146 24.3765 80.8038 24.3765 80.8038C24.3765 80.8038 27.277 80.8861 29.9923 77.1422C30.0952 76.9982 30.198 76.8542 30.3009 76.7308C30.3626 76.6485 30.4037 76.5868 30.4655 76.5045C30.6917 76.1754 30.918 75.8462 31.1237 75.4965C31.1854 75.3731 31.2677 75.2703 31.3294 75.1468C31.3911 75.044 31.4529 74.9411 31.5146 74.8177C31.5969 74.6737 31.6586 74.5297 31.7408 74.4063C31.9877 73.9126 32.2345 73.3777 32.4403 72.8017C32.4814 72.6989 32.502 72.6166 32.5431 72.5138C32.646 72.2052 32.7488 71.8966 32.8311 71.5675C32.8517 71.4852 32.8722 71.3823 32.9134 71.3001C32.934 71.1972 32.9751 71.0738 32.9957 70.9709C33.0574 70.7447 33.0985 70.5184 33.1397 70.2921C33.1602 70.1892 33.1808 70.107 33.2014 70.0041C33.3042 69.4898 33.3865 68.955 33.4482 68.379C33.5922 67.2065 33.6539 65.8899 33.6539 64.3882C35.423 63.4626 37.9738 62.8249 41.1006 63.9563C47.313 66.2191 48.6913 74.036 55.13 74.9C61.5687 75.7639 58.6682 73.7686 61.3835 73.1926C64.0989 72.6166 63.0086 68.7493 64.4074 67.515C64.86 67.1242 65.3537 66.9185 65.8268 66.8156C65.8063 67.0625 65.8063 67.3505 65.8063 67.6384Z" fill="url(#paint10_linear_10888_36386)"/>
<path d="M65.724 70.0453C65.6006 72.1846 65.3126 73.9743 64.9011 75.5171L64.3046 77.3685C64.2634 77.4713 64.2223 77.5742 64.1812 77.6565C64.1606 77.7182 64.14 77.7593 64.1194 77.8211C64.0166 78.0885 63.8932 78.3353 63.7903 78.5616C63.7286 78.6645 63.6875 78.7673 63.6463 78.8702C63.5023 79.1376 63.3583 79.3844 63.2143 79.6313C63.0909 79.837 62.9675 80.0427 62.8235 80.2279C62.7001 80.4336 62.5561 80.6187 62.4121 80.7833C62.3503 80.8655 62.2681 80.9478 62.2064 81.0507C62.0624 81.2153 61.9184 81.3798 61.7744 81.5238C61.6715 81.6472 61.5481 81.7501 61.4452 81.853C61.3835 81.9147 61.3424 81.9558 61.2807 81.9969C61.2601 82.0175 61.2601 82.0175 61.2395 82.0381C61.1778 82.0998 61.1161 82.1409 61.0544 82.2027C61.0338 82.2232 61.0132 82.2232 60.9927 82.2438C60.931 82.3055 60.8487 82.3672 60.787 82.4084C60.7253 82.4701 60.6635 82.5112 60.5813 82.5524C60.5195 82.5935 60.4578 82.6552 60.3961 82.6964C60.3344 82.7375 60.2727 82.7786 60.211 82.8198C60.1493 82.8609 60.0875 82.9021 60.0258 82.9432C59.6144 83.1901 59.203 83.3958 58.8327 83.5398C58.771 83.5603 58.7093 83.6015 58.6476 83.6221C58.5242 83.6632 58.4007 83.7043 58.2773 83.7455C58.2156 83.766 58.1539 83.7866 58.0922 83.8072C58.0305 83.8278 57.9688 83.8483 57.9276 83.8483C55.2122 84.5683 49.0204 84.7534 38.7761 83.3341C28.5318 81.9147 24.3765 80.8038 24.3765 80.8038C24.3765 80.8038 27.277 80.8861 29.9923 77.1422C30.0952 76.9982 30.198 76.8542 30.3009 76.7308C30.3626 76.6485 30.4037 76.5868 30.4655 76.5045C30.6917 76.1754 30.918 75.8463 31.1237 75.4965C31.1854 75.3731 31.2677 75.2703 31.3294 75.1468C31.3911 75.044 31.4529 74.9411 31.5146 74.8177C31.5969 74.6737 31.6586 74.5297 31.7408 74.4063C31.9877 73.9126 32.2345 73.3777 32.4403 72.8018C32.4814 72.6989 32.502 72.6166 32.5431 72.5138C32.646 72.2052 32.7488 71.8966 32.8311 71.5675C32.8517 71.4852 32.8722 71.3824 32.9134 71.3001C32.9545 71.1972 32.9751 71.0738 32.9957 70.9709C33.0574 70.7447 33.0985 70.5184 33.1397 70.2921C33.1602 70.1892 33.1808 70.107 33.2014 70.0041C33.3042 69.4898 33.3865 68.955 33.4482 68.379C35.0733 67.6179 37.2744 67.3093 39.8458 68.8316C45.2765 72.0818 48.3827 78.9525 54.3071 79.8164C60.2315 80.6598 58.8533 77.8005 60.8075 77.1628C62.7412 76.5251 62.988 76.052 63.5229 74.7148C64.0783 73.3983 63.6463 71.1355 64.8394 70.395C65.1686 70.1275 65.4771 70.0453 65.724 70.0453Z" fill="url(#paint11_linear_10888_36386)"/>
<path d="M60.8075 82.4084C59.7584 83.2312 58.7504 83.6426 57.9276 83.8483C55.2122 84.5683 49.0204 84.7534 38.7761 83.334C28.5318 81.9147 24.3765 80.8038 24.3765 80.8038C24.3765 80.8038 27.277 80.8861 29.9923 77.1422C30.6094 76.2988 31.1854 75.4142 31.7203 74.3857C35.3408 74.0771 39.7224 74.5091 42.7463 77.4096C48.7941 83.2106 57.3722 83.7249 60.211 82.6346C60.3961 82.5318 60.6018 82.4701 60.8075 82.4084Z" fill="url(#paint12_linear_10888_36386)"/>
<path d="M31.6381 32.2771L33.2426 37.9546C33.3043 38.2015 33.5306 38.3866 33.798 38.4072C34.6209 38.4483 36.4928 38.5101 38.7351 38.6541C40.4013 38.7569 41.5944 38.8803 42.3144 38.9626C42.7258 39.0243 43.0755 38.6335 42.9727 38.2221L41.8413 33.2233C41.8001 32.9971 41.615 32.8325 41.4093 32.7708C40.8333 32.6062 39.4756 32.2977 36.9248 31.9685C35.0323 31.7217 33.2632 31.5777 32.2552 31.516C31.8438 31.4748 31.5147 31.8657 31.6381 32.2771Z" fill="#ACD5EE"/>
<path d="M31.4735 31.7834L33.0781 37.461C33.1398 37.7078 33.3661 37.8929 33.6335 37.9135C34.4563 37.9547 36.3283 38.0164 38.5705 38.1604C40.2367 38.2632 41.4299 38.3866 42.1498 38.4689C42.5613 38.5306 42.911 38.1398 42.8081 37.7284L41.6767 32.7296C41.6356 32.5034 41.4504 32.3388 41.2447 32.2771C40.6687 32.1125 39.3111 31.804 36.7603 31.4748C34.8677 31.228 33.0986 31.084 32.0907 31.0223C31.6792 30.9811 31.3501 31.3925 31.4735 31.7834Z" fill="url(#paint13_linear_10888_36386)"/>
<path d="M34.1269 40.8552L34.1681 41.0197C34.2298 41.2872 34.4766 41.4723 34.7646 41.4723C35.5669 41.4517 37.2743 41.4517 39.2285 41.5752C40.689 41.678 41.7999 41.7809 42.4993 41.8837C42.9107 41.9249 43.2398 41.5546 43.1575 41.1432C43.0958 40.9169 42.9107 40.7318 42.6638 40.6906C42.0467 40.5878 40.7507 40.4232 39.0228 40.3203C37.1303 40.1969 35.5875 40.1352 34.7235 40.1146C34.3326 40.1146 34.0241 40.4849 34.1269 40.8552Z" fill="#ACD5EE"/>
<path d="M34.8266 43.5294L34.8678 43.6939C34.9295 43.9614 35.1763 44.1465 35.4643 44.1465C36.2666 44.1259 37.974 44.1259 39.9282 44.2494C41.3887 44.3522 42.4996 44.4551 43.199 44.5579C43.6104 44.5991 43.9395 44.2288 43.8572 43.8174C43.7955 43.5911 43.6104 43.4059 43.3635 43.3648C42.7464 43.2619 41.4504 43.0974 39.7225 42.9945C37.83 42.8711 36.2872 42.8094 35.4232 42.7888C35.0118 42.7888 34.7238 43.1591 34.8266 43.5294Z" fill="#ACD5EE"/>
<path d="M41.7795 46.2653C41.8412 46.6562 41.5326 46.9853 41.1418 46.9647C40.9772 46.9441 40.7921 46.9441 40.6275 46.9236C38.6733 46.8001 36.9453 46.8001 36.143 46.8207C35.8756 46.8207 35.6288 46.6356 35.5465 46.3682L35.5053 46.2036C35.4025 45.8127 35.711 45.4425 36.1019 45.463C36.9659 45.4836 38.5087 45.5453 40.4012 45.6687C40.6892 45.6893 40.9566 45.7099 41.2035 45.7305C41.4709 45.751 41.6972 45.9567 41.7383 46.2242L41.7795 46.2653Z" fill="#ACD5EE"/>
<path d="M51.4685 73.3777L60.5814 73.9743C60.9106 73.9949 61.1163 74.324 61.0134 74.6326C60.9928 74.6531 60.9928 74.6943 60.9723 74.7149C60.89 74.9206 60.7048 75.044 60.4991 75.0234C59.6352 74.9823 57.3518 74.8383 55.233 74.7354C53.505 74.6531 52.1062 74.5297 51.3451 74.468C51.0159 74.4474 50.8102 74.0977 50.9337 73.8097L50.9954 73.6657C51.0777 73.5012 51.2628 73.3777 51.4685 73.3777Z" fill="#B8E0EA"/>
<path d="M50.3782 75.8051L59.4705 76.4223C59.7585 76.4428 59.9436 76.7514 59.7997 77.0188C59.7379 77.1217 59.6968 77.204 59.6557 77.2862C59.5734 77.4097 59.4294 77.4919 59.2854 77.4919C58.5654 77.4508 56.3026 77.3068 54.1427 77.204C52.353 77.1217 50.9336 76.9982 50.2136 76.9365C49.9462 76.916 49.7816 76.628 49.8845 76.3811L50.0079 76.0931C50.0285 75.8874 50.193 75.7846 50.3782 75.8051Z" fill="#B8E0EA"/>
<path d="M48.9177 78.2119L58.0101 78.829C58.2981 78.8496 58.4832 79.1582 58.3392 79.4256C58.2775 79.5284 58.2363 79.6107 58.1952 79.693C58.1129 79.8164 57.9689 79.8987 57.8249 79.8987C57.1049 79.8576 54.8421 79.7136 52.6822 79.6107C50.8925 79.5284 49.4731 79.405 48.7532 79.3433C48.4857 79.3227 48.3212 79.0347 48.424 78.7879L48.5475 78.4999C48.568 78.2942 48.7326 78.1913 48.9177 78.2119Z" fill="#B8E0EA"/>
<path d="M45.3999 75.188C45.153 77.3891 43.1371 79.1787 40.9154 79.1787C38.6938 79.1787 37.0892 77.3891 37.3361 75.188C37.5829 72.9869 39.5989 71.1972 41.8206 71.1972C44.0422 71.1972 45.6467 72.9869 45.3999 75.188Z" fill="url(#paint14_linear_10888_36386)"/>
<path d="M41.3683 75.188L39.6403 80.1661C37.6449 79.7136 36.2461 78.0267 36.1638 75.9491L41.3683 75.188Z" fill="url(#paint15_linear_10888_36386)"/>
<path d="M40.8949 59.1015L40.7097 58.9575L45.6879 52.7657L50.3163 56.2833L54.8625 54.7405L59.6555 51.1612L59.7995 51.3669L54.9654 54.9874L50.2752 56.5713L45.729 53.1154L40.8949 59.1015Z" fill="#B8E0EA"/>
<path d="M55.3357 54.7404C55.3769 55.0696 55.1506 55.3576 54.8009 55.3576C54.4512 55.3576 54.1426 55.0902 54.1015 54.7404C54.0604 54.4113 54.2866 54.1233 54.6363 54.1233C54.986 54.1233 55.274 54.4113 55.3357 54.7404Z" fill="url(#paint16_linear_10888_36386)"/>
<path d="M60.2933 51.4903C60.3344 51.8194 60.1081 52.1074 59.7584 52.1074C59.4087 52.1074 59.1002 51.84 59.059 51.4903C59.0179 51.1612 59.2442 50.8732 59.5939 50.8732C59.9436 50.8732 60.2521 51.1406 60.2933 51.4903Z" fill="url(#paint17_linear_10888_36386)"/>
<path d="M50.8511 56.3244C50.8923 56.6536 50.666 56.9416 50.3163 56.9416C49.9666 56.9416 49.658 56.6741 49.6169 56.3244C49.5757 55.9747 49.802 55.7073 50.1517 55.7073C50.5014 55.7073 50.7894 55.9953 50.8511 56.3244Z" fill="url(#paint18_linear_10888_36386)"/>
<path d="M46.367 53.0948C46.4081 53.4239 46.1819 53.7119 45.8322 53.7119C45.4825 53.7119 45.1739 53.4445 45.1327 53.0948C45.0916 52.7657 45.3179 52.4777 45.6676 52.4777C46.0173 52.4777 46.3053 52.7657 46.367 53.0948Z" fill="url(#paint19_linear_10888_36386)"/>
<path d="M41.5738 58.8546C41.6149 59.1838 41.3886 59.4718 41.0389 59.4718C40.6892 59.4718 40.3807 59.2044 40.3395 58.8546C40.2984 58.5255 40.5247 58.2375 40.8744 58.2375C41.2241 58.2375 41.5326 58.5049 41.5738 58.8546Z" fill="url(#paint20_linear_10888_36386)"/>
<path d="M57.9277 55.3782C57.9277 55.3782 58.442 59.3689 58.5243 62.5574C58.6066 65.7459 58.6066 68.5847 58.6066 68.5847L61.5688 68.7904C61.5688 68.7904 61.9185 65.2111 61.6099 61.3849C61.3014 57.5587 60.9722 55.481 60.9722 55.481L57.9277 55.3782Z" fill="url(#paint21_linear_10888_36386)"/>
<path d="M56.5496 67.9264C56.529 68.2144 56.529 68.4818 56.5084 68.7081L53.5051 68.3995C53.5256 68.1527 53.5256 67.8852 53.5462 67.5972C53.5873 66.6098 53.6079 65.3756 53.5873 64.0591C53.5256 60.8706 52.8879 56.7358 52.8879 56.7358L55.9324 56.9004C55.9324 56.9004 56.2616 58.978 56.5084 62.8042C56.6318 64.7173 56.6113 66.5481 56.5496 67.9264Z" fill="url(#paint22_linear_10888_36386)"/>
<path d="M48.5267 67.083C48.5267 67.3916 48.5061 67.659 48.5061 67.9059L45.5028 67.5973C45.5028 67.3504 45.5028 67.083 45.5234 66.7745C45.5234 65.7459 45.5234 64.3882 45.4411 62.9688C45.2971 59.7803 44.5154 55.6662 44.5154 55.6662L47.5804 55.7279C47.5804 55.7279 47.9713 57.785 48.3416 61.6112C48.5473 63.6683 48.5678 65.6842 48.5267 67.083Z" fill="url(#paint23_linear_10888_36386)"/>
<path d="M44.3713 67.4739L41.3885 67.1653C41.3885 66.8773 41.3885 66.6099 41.368 66.3219C41.3062 63.874 41.0388 61.6523 41.0388 61.6523L44.0216 61.8375C44.0216 61.8375 44.3302 63.5037 44.3507 66.651C44.3713 66.8979 44.3713 67.1859 44.3713 67.4739Z" fill="url(#paint24_linear_10888_36386)"/>
<path d="M52.6409 67.515C52.6409 67.7824 52.6409 68.0704 52.6203 68.3173L49.5964 68.0087C49.5964 67.7413 49.5964 67.4739 49.5964 67.1859C49.5964 66.7127 49.5964 66.219 49.5964 65.7048C49.5347 62.5163 48.897 58.3815 48.897 58.3815L51.9415 58.5461C51.9415 58.5461 52.2706 60.6238 52.538 64.4499C52.6203 65.4991 52.6409 66.5482 52.6409 67.515Z" fill="url(#paint25_linear_10888_36386)"/>
<path d="M63.4819 68.6464V69.4281L56.5083 68.7081L53.505 68.3996L52.6204 68.3173L49.6171 68.0087L48.5062 67.8853L45.5029 67.5767L44.3715 67.4739L41.3887 67.1653L36.7603 66.6922L36.8631 65.8488L41.3887 66.3219L44.3715 66.6305L45.5235 66.7539L48.5268 67.083L49.6171 67.1859L52.641 67.515L53.5461 67.5973L56.5495 67.9264L58.6066 68.1321L61.6099 68.4613L63.4819 68.6464Z" fill="url(#paint26_linear_10888_36386)"/>
<path d="M60.6636 43.3442C61.2602 47.2527 58.7917 50.3177 55.1506 50.1737C51.5302 50.0503 48.0948 46.759 47.5188 42.8505C46.9223 38.942 49.3908 35.877 53.0318 36.021C56.6523 36.1444 60.0671 39.4357 60.6636 43.3442Z" fill="#ACD5EE"/>
<path d="M60.4374 42.9122C60.9928 46.5944 58.6683 49.4743 55.2535 49.3303C51.8387 49.2069 48.6091 46.1007 48.0537 42.4185C47.4983 38.7363 49.8228 35.8564 53.2376 36.0004C56.6729 36.1443 59.882 39.2506 60.4374 42.9122Z" fill="url(#paint27_linear_10888_36386)"/>
<path d="M58.586 42.5419C58.9563 44.9281 57.434 46.8001 55.2329 46.7178C53.0113 46.6355 50.913 44.6196 50.5633 42.2333C50.1931 39.8471 51.7153 37.9752 53.9164 38.0575C56.1175 38.1397 58.2157 40.1351 58.586 42.5419Z" fill="url(#paint28_linear_10888_36386)"/>
<path d="M53.5051 33.9433L54.8422 42.7476L47.4778 37.2346C48.6298 35.1364 50.8103 33.8404 53.5051 33.9433Z" fill="url(#paint29_linear_10888_36386)"/>
<path d="M62.0419 43.0356C62.0624 43.1796 62.083 43.303 62.1036 43.447L54.842 42.7682L59.3882 37.7489C60.7459 39.1477 61.7333 41.0196 62.0419 43.0356Z" fill="url(#paint30_linear_10888_36386)"/>
<path d="M74.837 35.6095C74.0965 36.6792 72.9445 37.3169 71.5046 37.3169C68.5012 37.3169 65.3744 34.4576 64.3665 30.8371H61.9802C63.3585 36.0621 67.8635 40.2174 72.204 40.2174C74.2816 40.2174 75.9684 39.2506 77.0381 37.6666L74.837 35.6095Z" fill="url(#paint31_linear_10888_36386)"/>
<path d="M67.9868 23.5755L67.308 20.6545C63.1938 20.8602 60.787 24.9332 61.7744 29.9937H64.1812C63.5641 26.5378 65.1892 23.7813 67.9868 23.5755Z" fill="url(#paint32_linear_10888_36386)"/>
<path d="M67.9868 20.6545L68.6657 23.5755C71.669 23.7813 74.7135 26.7846 75.5569 30.4462C75.9683 32.2153 75.7832 33.8199 75.1866 35.0335L77.3466 37.0906C78.2723 35.3421 78.5397 33.0176 77.9431 30.4462C76.75 25.1595 72.3273 20.8808 67.9868 20.6545Z" fill="url(#paint33_linear_10888_36386)"/>
<path d="M68.9331 26.2086C66.9994 26.2086 65.8886 28.1012 66.4234 30.4463C66.9583 32.7913 68.9742 34.6839 70.8873 34.6839C72.821 34.6839 73.9318 32.7913 73.397 30.4463C72.8621 28.1012 70.8462 26.2086 68.9331 26.2086ZM70.805 34.3342C69.0359 34.3342 67.2051 32.5856 66.7114 30.4463C66.2177 28.2863 67.2463 26.5584 69.0154 26.5584C70.7845 26.5584 72.6153 28.3069 73.109 30.4463C73.6027 32.6062 72.5741 34.3342 70.805 34.3342Z" fill="url(#paint34_linear_10888_36386)"/>
<path d="M67.123 28.3891L66.4648 29.6851L65.8477 27.9572L67.123 28.3891Z" fill="url(#paint35_linear_10888_36386)"/>
<path d="M69.6323 33.6141L71.0517 34.5398L69.838 35.0952L69.6323 33.6141Z" fill="url(#paint36_linear_10888_36386)"/>
<path d="M72.6564 30.3639L72.5947 28.6771L73.7878 30.0554L72.6564 30.3639Z" fill="url(#paint37_linear_10888_36386)"/>
<path d="M67.4522 45.5247C67.8019 45.8538 67.8636 46.3681 67.6167 46.6767C67.3699 46.9852 66.8556 46.9852 66.5059 46.6561C66.1562 46.327 66.0945 45.8127 66.3413 45.5041C66.5882 45.1956 67.1025 45.2161 67.4522 45.5247Z" fill="#EFE5E9"/>
<path d="M68.2131 43.4265C68.3777 43.591 68.4188 43.8379 68.2954 43.9819C68.172 44.1259 67.9251 44.1259 67.74 43.9613C67.5754 43.7968 67.5343 43.5499 67.6577 43.4059C67.8017 43.2619 68.0486 43.2619 68.2131 43.4265Z" fill="#EFE5E9"/>
<path d="M54.9654 89.999C55.0066 90.431 54.6774 90.7601 54.266 90.719C53.834 90.6778 53.4637 90.3075 53.4432 89.8756C53.402 89.4436 53.7312 89.1144 54.1426 89.1556C54.5746 89.1967 54.9449 89.567 54.9654 89.999Z" fill="#EFE5E9"/>
<path d="M66.8555 90.719C66.8966 91.295 66.4852 91.7064 65.9298 91.6652C65.3743 91.6241 64.8806 91.1304 64.8395 90.5544C64.7984 89.9784 65.2098 89.567 65.7652 89.6081C66.3206 89.6493 66.8143 90.143 66.8555 90.719Z" fill="#EFE5E9"/>
<path d="M66.2384 17.6923C66.2796 18.2065 65.9093 18.5768 65.4156 18.5357C64.9219 18.4945 64.4693 18.0626 64.4282 17.5483C64.387 17.034 64.7573 16.6637 65.251 16.7049C65.7447 16.746 66.1973 17.178 66.2384 17.6923Z" fill="#EFE5E9"/>
<path d="M68.069 15.306C68.0896 15.4912 67.9456 15.6352 67.7604 15.6352C67.5753 15.6352 67.4107 15.45 67.3901 15.2649C67.3696 15.0798 67.5136 14.9358 67.6987 14.9358C67.8838 14.9358 68.0484 15.1209 68.069 15.306Z" fill="#EFE5E9"/>
<path d="M47.2512 20.6545C47.2923 21.1687 46.922 21.5596 46.4078 21.5184C45.8935 21.4773 45.4615 21.0247 45.4204 20.531C45.3792 20.0168 45.7495 19.6259 46.2638 19.6671C46.778 19.7082 47.21 20.1402 47.2512 20.6545Z" fill="#EFE5E9"/>
<path d="M23.2246 33.4084C23.2863 34.0667 22.7926 34.581 22.1344 34.5192C21.4761 34.4781 20.9001 33.8815 20.859 33.2233C20.7973 32.565 21.291 32.0507 21.9492 32.1124C22.5869 32.1742 23.1629 32.7501 23.2246 33.4084Z" fill="#EFE5E9"/>
<path d="M26.0016 50.9349C26.0427 51.5108 25.6313 51.9428 25.0553 51.9017C24.4999 51.8606 23.9856 51.3669 23.9445 50.7909C23.9033 50.2149 24.3148 49.7829 24.8907 49.824C25.4462 49.8446 25.9399 50.3589 26.0016 50.9349Z" fill="#EFE5E9"/>
<path d="M99.4192 54.6788C99.3986 54.3291 99.6454 54.0411 100.016 54.0822C100.365 54.1028 100.674 54.4319 100.715 54.7816C100.736 55.1313 100.489 55.4193 100.119 55.3782C99.7483 55.3576 99.4397 55.0285 99.4192 54.6788Z" fill="#EFE5E9"/>
<path d="M62.0626 88.0036C61.1986 88.0036 60.4992 88.703 60.4992 89.567C60.4992 88.703 59.7998 88.0036 58.9358 88.0036C59.7998 88.0036 60.4992 87.3042 60.4992 86.4402C60.4786 87.3042 61.178 88.0036 62.0626 88.0036Z" fill="#F8B143"/>
<path d="M97.9793 48.4046C97.4239 48.4046 96.9714 48.8572 96.9714 49.4126C96.9714 48.8572 96.5188 48.4046 95.9634 48.4046C96.5188 48.4046 96.9714 47.9521 96.9714 47.3967C96.9714 47.9521 97.4239 48.4046 97.9793 48.4046Z" fill="#F8B143"/>
<path d="M80.1649 38.7363C79.6095 38.7363 79.1569 39.1889 79.1569 39.7443C79.1569 39.1889 78.7043 38.7363 78.1489 38.7363C78.7043 38.7363 79.1569 38.2837 79.1569 37.7283C79.1569 38.2837 79.6095 38.7363 80.1649 38.7363Z" fill="#F8B143"/>
<path d="M58.9971 16.89C58.4417 16.89 57.9892 17.3426 57.9892 17.898C57.9892 17.3426 57.5366 16.89 56.9812 16.89C57.5366 16.89 57.9892 16.4374 57.9892 15.882C57.9892 16.4374 58.4212 16.89 58.9971 16.89Z" fill="#F8B143"/>
<path d="M21.3731 40.094C20.8177 40.094 20.3652 40.5465 20.3652 41.1019C20.3652 40.5465 19.9126 40.094 19.3572 40.094C19.9126 40.094 20.3652 39.6414 20.3652 39.086C20.3652 39.6414 20.8177 40.094 21.3731 40.094Z" fill="#F8B143"/>
<path d="M30.2392 58.2581C29.293 58.2581 28.5318 59.0192 28.5318 59.9655C28.5318 59.0192 27.7707 58.2581 26.8245 58.2581C27.7707 58.2581 28.5318 57.497 28.5318 56.5507C28.5524 57.497 29.293 58.2581 30.2392 58.2581Z" fill="#F8B143"/>
<path d="M65.3538 83.4163C64.7984 83.4163 64.3459 83.8689 64.3459 84.4243C64.3459 83.8689 63.8933 83.4163 63.3379 83.4163C63.8933 83.4163 64.3459 82.9638 64.3459 82.4084C64.3459 82.9638 64.7984 83.4163 65.3538 83.4163Z" fill="#F8B143"/>
<path d="M67.5081 45.1171L67.8783 44.824L68.5958 45.8268C68.8966 46.2434 68.8118 46.822 68.3952 47.1305L67.8012 47.5779L67.5543 47.2694L67.9632 46.9222C68.264 46.6522 68.3103 46.2048 68.0712 45.8808L67.5081 45.1171Z" fill="#1B1A49"/>
<path d="M68.7886 44.2455L68.4106 44.5309L69.1898 45.4797C69.5138 45.8732 70.1 45.9426 70.5012 45.6263L71.0874 45.1635L70.856 44.8472L70.4163 45.1557C70.0846 45.3795 69.6295 45.31 69.3826 44.9938L68.7886 44.2455Z" fill="#1B1A49"/>
<path d="M71.6891 48.0099L71.3188 48.3108L70.5937 47.3157C70.2928 46.8991 70.3777 46.3205 70.7865 46.012L71.3805 45.5569L71.6273 45.8654L71.2185 46.2126C70.9176 46.4825 70.8714 46.9377 71.1105 47.254L71.6891 48.0099Z" fill="#1B1A49"/>
<path d="M70.4086 48.8893L70.7866 48.6039L69.9997 47.6551C69.6757 47.2617 69.0895 47.1999 68.6883 47.5162L68.1021 47.9791L68.3335 48.2953L68.7732 47.9868C69.1049 47.7631 69.56 47.8325 69.8146 48.1411L70.4086 48.8893Z" fill="#1B1A49"/>
<path d="M99.7682 50.7638C99.7682 50.7638 99.6447 51.003 99.421 51.3115C99.0816 51.7744 98.5185 52.3761 97.8011 52.5149C97.5619 52.5612 97.2996 52.5535 97.0296 52.4686L94.6923 48.4727C94.6923 48.4727 93.4812 48.4342 92.0232 47.2616C90.8198 46.2896 90.1718 45.6417 90.0252 45.1017C89.9944 44.986 89.9867 44.8857 90.0021 44.7777C90.0638 44.2994 90.3647 44.4923 90.6655 44.7237C90.7349 44.7777 90.8121 44.8394 90.8815 44.8857C91.2363 45.148 91.8303 45.5568 92.486 45.3871C93.1417 45.2174 93.5506 44.1374 93.4657 42.7952C93.35 40.8744 92.4089 39.887 92.7097 39.5861C92.7175 39.5784 92.7175 39.5784 92.7252 39.5707C93.0337 39.3084 93.7511 39.9332 94.0674 40.7586C94.3066 41.3989 94.4994 42.2398 94.6228 42.6023C94.6614 42.7103 94.6923 42.7797 94.7154 42.7797C94.8311 42.7797 94.9777 41.8695 94.862 40.4655C94.7617 39.1773 94.484 38.051 94.7077 37.8041C94.7231 37.781 94.7463 37.7656 94.7771 37.7579C95.1165 37.6653 95.6488 38.7067 95.7954 40.0181C95.942 41.3218 96.0577 42.4635 96.0654 42.7797C96.0654 42.8106 96.0731 42.8337 96.0808 42.8492C96.1425 42.9572 96.4279 42.5406 96.5899 42.1086C96.7751 41.6226 96.8908 40.3961 96.8522 39.8175C96.8368 39.5321 96.8985 39.347 96.9911 39.2775C97.0836 39.2081 97.1994 39.2467 97.2765 39.4087C97.4231 39.725 97.6159 40.3035 97.6159 41.2755C97.6159 42.2475 97.2611 43.2503 97.3151 43.312C97.3691 43.366 97.7239 42.8569 97.8859 42.0315C98.0556 41.2138 98.1713 40.7201 98.3179 40.6275C98.3642 40.5966 98.4336 40.6352 98.4876 40.7432C98.611 40.9746 98.7113 41.5146 98.557 42.3786C98.3333 43.6514 98.0865 44.5463 97.5156 45.6031C96.9371 46.6676 97.0296 47.1305 97.1762 47.4082C97.3228 47.6859 99.7682 50.7638 99.7682 50.7638Z" fill="url(#paint38_linear_10888_36386)"/>
<path d="M99.7682 50.7638C99.7682 50.7638 99.6448 51.003 99.4211 51.3115L98.6265 51.4967C98.6265 51.4967 96.8908 48.9433 96.4974 47.601C96.104 46.2588 97.508 44.932 98.1174 43.312C98.5571 42.1549 98.5339 41.1906 98.4799 40.7432C98.6034 40.9746 98.7037 41.5146 98.5494 42.3786C98.3257 43.6514 98.0788 44.5463 97.508 45.6031C96.9294 46.6676 97.022 47.1305 97.1685 47.4082C97.3228 47.6859 99.7682 50.7638 99.7682 50.7638Z" fill="url(#paint39_linear_10888_36386)"/>
<path d="M97.13 40.157C97.1145 40.9053 97.0682 41.7615 96.86 42.4712C96.6517 43.1809 96.1426 43.2195 96.0963 43.0421C96.0809 42.9803 96.0731 42.9109 96.0654 42.8492C96.1271 42.9572 96.4126 42.5406 96.5746 42.1087C96.7597 41.6227 96.8754 40.3961 96.8368 39.8176C96.8214 39.5322 96.8831 39.347 96.9757 39.2776C97.0528 39.4087 97.1454 39.6864 97.13 40.157Z" fill="url(#paint40_linear_10888_36386)"/>
<path d="M95.1936 42.6563C95.1088 43.1731 94.8156 43.258 94.6613 42.7797C94.6459 42.7334 94.6305 42.6717 94.6151 42.6023C94.6536 42.7103 94.6845 42.7797 94.7076 42.7797C94.8233 42.7797 94.9699 41.8694 94.8542 40.4655C94.7539 39.1772 94.4762 38.051 94.6999 37.8041C94.8079 38.0278 95.0548 38.6604 95.1628 39.9563C95.3016 41.6534 95.2785 42.1394 95.1936 42.6563Z" fill="url(#paint41_linear_10888_36386)"/>
<path d="M93.6818 44.8471C93.3809 45.7419 92.4475 45.7651 91.9075 45.6493C91.4524 45.5568 90.8353 44.9165 90.6501 44.7159C90.7196 44.7699 90.7967 44.8316 90.8661 44.8779C91.221 45.1402 91.815 45.5491 92.4707 45.3793C93.1264 45.2096 93.5352 44.1297 93.4504 42.7874C93.3346 40.8666 92.3935 39.8792 92.6944 39.5784C92.7021 39.5706 92.7021 39.5706 92.7098 39.5629C92.9489 39.8252 93.4426 40.4655 93.6432 41.3835C93.9055 42.6254 93.9826 43.9522 93.6818 44.8471Z" fill="url(#paint42_linear_10888_36386)"/>
<path d="M97.8012 52.5072C97.5621 52.5535 97.2998 52.5457 97.0298 52.4609L94.6924 48.465C94.6924 48.465 93.4813 48.4264 92.0233 47.2539C90.8199 46.2819 90.172 45.6339 90.0254 45.0939C90.2954 45.5105 90.8045 46.1045 91.7071 46.7139C93.3656 47.8324 94.7464 47.9096 94.7464 47.9096L97.8012 52.5072Z" fill="url(#paint43_linear_10888_36386)"/>
<path d="M100.856 51.2884C100.856 51.2884 98.565 51.5275 97.0839 53.7106L96.2585 51.9903L95.9653 51.3732C95.9653 51.3732 96.1505 50.3318 97.0453 49.7687C97.9401 49.2056 99.0972 49.3367 99.0972 49.3367L100.339 50.7098L100.856 51.2884Z" fill="url(#paint44_linear_10888_36386)"/>
<path d="M100.856 51.2884C100.856 51.2884 98.5648 51.5275 97.0837 53.7106L96.2583 51.9904C96.6671 51.6509 97.1531 51.3192 97.6854 51.1109C98.7037 50.7252 99.7451 50.6867 100.331 50.7098L100.856 51.2884Z" fill="url(#paint45_linear_10888_36386)"/>
<path d="M110.021 63.114C109.866 64.3483 108.979 65.1197 107.799 65.598C107.267 65.8062 106.68 65.9605 106.063 66.0608C104.088 66.4002 102.33 64.3097 101.365 63.0755C99.8765 61.1778 99.1669 59.4576 98.0097 56.7731C96.8526 54.0886 96.7061 53.564 96.7061 53.564C96.7061 53.564 96.7986 53.2323 97.462 52.646C97.6317 52.4917 97.84 52.3297 98.0869 52.1446C98.5266 51.8283 98.9817 51.5892 99.3906 51.4118C100.139 51.0955 100.733 50.9875 100.733 50.9875C100.733 50.9875 104.166 54.536 106.441 56.9582C108.37 59.0101 109.758 60.7149 110.005 62.2809C110.044 62.5586 110.051 62.8363 110.021 63.114Z" fill="url(#paint46_linear_10888_36386)"/>
<path d="M107.799 65.598C107.267 65.8063 106.68 65.9606 106.063 66.0608C104.088 66.4003 102.33 64.3098 101.365 63.0755C99.8765 61.1778 99.1669 59.4576 98.0097 56.7731C96.8526 54.0886 96.7061 53.564 96.7061 53.564C96.7061 53.564 96.7986 53.2323 97.462 52.6461C97.8786 54.1426 99.3983 58.8945 102.6 61.8875C105.022 64.14 106.542 65.1583 107.799 65.598Z" fill="url(#paint47_linear_10888_36386)"/>
<path d="M109.997 62.2809C109.403 61.2318 108.3 59.9358 105.801 57.4056C103.032 54.6054 100.378 52.2757 99.3828 51.4118C100.131 51.0955 100.725 50.9875 100.725 50.9875C100.725 50.9875 104.158 54.536 106.433 56.9582C108.362 59.0101 109.758 60.7149 109.997 62.2809Z" fill="url(#paint48_linear_10888_36386)"/>
<path d="M109.388 64.7186C107.891 66.7706 103.98 69.0771 100.516 70.5582C97.5157 71.8387 89.3619 74.1221 87.7111 70.4579C87.6185 70.2496 87.5337 70.0491 87.4488 69.8562C86.0989 66.6471 85.9909 64.3946 88.5211 62.5124C90.0253 61.3938 92.3473 61.2473 96.2352 61.0236C100.277 60.7922 105.994 60.0979 107.899 60.661C109.095 61.0081 109.959 61.7101 110.082 62.6898C110.144 63.2684 109.943 63.9472 109.388 64.7186Z" fill="url(#paint49_linear_10888_36386)"/>
<path d="M93.304 61.525C91.6918 61.7718 92.8643 62.9675 94.8314 62.8595C97.6316 62.713 108.169 61.1547 106.333 60.877C104.489 60.607 96.3974 61.0544 93.304 61.525Z" fill="url(#paint50_linear_10888_36386)"/>
<path d="M109.388 64.7186C107.891 66.7706 102.237 70.2496 99.5059 71.1753C94.862 72.7413 89.3619 74.1221 87.7111 70.4579C87.6185 70.2496 86.8317 68.5757 86.7468 68.3751C88.8991 68.4368 96.2891 69.0925 101.296 67.2565C106.341 65.4129 108.963 63.5229 110.074 62.6821C110.144 63.2684 109.943 63.9472 109.388 64.7186Z" fill="url(#paint51_linear_10888_36386)"/>
<path d="M102.638 98.0358C102.638 98.0358 99.9534 102.572 91.6145 103.636C87.4721 104.161 83.021 104.145 80.406 103.598C76.3021 102.734 74.1344 101.152 74.1344 101.152C74.1344 101.152 76.5103 93.9936 76.9269 90.206C77.3435 86.4184 77.1352 85.3615 77.1352 85.3615C77.1352 85.3615 73.8413 81.5045 73.0467 79.9617C72.1287 78.172 70.9793 74.6929 71.851 71.6459C72.4219 69.6556 72.1287 68.5448 76.788 66.8091C77.0195 66.7243 77.4515 66.6009 77.9683 66.4543C79.272 66.084 81.1234 65.5826 81.6633 65.3743C87.1789 63.3069 87.0478 62.3504 89.0689 61.7487C90.4343 61.3399 92.4939 62.8518 94.4147 66.624C95.3481 68.4522 96.2507 70.8128 97.0298 73.7364C97.3307 74.8781 97.5544 76.8992 97.7164 79.1594C98.0866 84.3356 98.1406 90.7768 98.1406 90.7768L102.638 98.0358Z" fill="url(#paint52_linear_10888_36386)"/>
<path d="M98.1252 91.4325C98.1252 91.4325 97.0452 92.5125 93.5353 93.8933C90.0254 95.2741 86.2224 95.1276 86.8163 95.6444C87.4103 96.169 93.759 95.6444 96.8138 96.0532C99.8686 96.4621 101.959 97.3955 101.959 97.3955C101.959 97.3955 98.7192 92.2193 98.1252 91.4325Z" fill="url(#paint53_linear_10888_36386)"/>
<path d="M98.1563 90.7614C98.1563 90.7614 96.7601 92.443 92.3939 93.6696C88.0277 94.8961 83.2141 94.5104 83.2141 94.5104C83.2141 94.5104 89.8174 90.9311 93.2887 86.0558C95.1787 83.4021 96.7215 80.8873 97.732 79.144C98.1023 84.3201 98.1563 90.7614 98.1563 90.7614Z" fill="url(#paint54_linear_10888_36386)"/>
<path d="M80.4061 103.598C76.3022 102.734 74.1345 101.152 74.1345 101.152C74.1345 101.152 74.5125 100.003 74.9985 98.3906C75.7236 95.9684 76.6802 92.4816 76.927 90.206C77.3436 86.4106 77.1353 85.3615 77.1353 85.3615C77.1353 85.3615 73.8414 81.5045 73.0469 79.9616C72.9697 79.8151 72.9003 79.6608 72.8231 79.4988C71.9592 77.6166 71.0489 74.4538 71.8589 71.6458C73.3554 71.2833 78.3001 69.4319 78.8324 73.4201C80.0281 82.3761 81.8023 84.6055 81.8023 84.6055C81.8023 84.6055 80.491 89.7663 79.9664 96.1844C79.735 99.0232 80.0204 101.607 80.4061 103.598Z" fill="url(#paint55_linear_10888_36386)"/>
<path d="M94.0522 70.2033C92.4862 73.7826 85.4973 78.3571 81.0848 74.3921C78.138 71.7461 78.1843 67.7502 78.5083 66.2768C79.812 65.9066 81.1311 65.5671 81.6711 65.3666C87.1867 63.2992 87.0555 62.3426 89.0766 61.741C90.442 61.3321 92.5017 62.8441 94.4225 66.6163C94.5845 67.8505 94.5305 69.1156 94.0522 70.2033Z" fill="url(#paint56_linear_10888_36386)"/>
<path d="M78.5158 84.8447C78.5158 84.8447 78.1224 85.5313 77.7136 88.5937C77.3047 91.6562 76.7802 94.4179 76.109 96.277C75.7156 97.3647 75.2913 98.0204 74.9982 98.3752C75.7233 95.953 76.6799 92.4662 76.9267 90.1906C77.3433 86.3952 77.135 85.3461 77.135 85.3461C77.135 85.3461 73.8411 81.4891 73.0465 79.9462C72.9694 79.7997 72.9 79.6454 72.8228 79.4834C72.8151 79.3291 72.7997 79.1594 72.7765 78.9897C72.6377 78.064 73.8411 78.5731 75.407 81.0571C76.973 83.541 78.5158 84.8447 78.5158 84.8447Z" fill="url(#paint57_linear_10888_36386)"/>
<path d="M78.9172 73.7364C78.9172 73.8289 78.9095 73.9215 78.9018 74.0218C78.7089 76.9069 76.4873 79.4602 70.2543 80.7793C63.4582 82.2219 60.3031 82.245 59.1306 80.0156C59.0457 79.8614 58.9763 79.6916 58.9146 79.5142C58.7526 79.0591 58.876 78.5423 59.2077 77.9868C61.2519 74.5849 72.206 68.8842 73.7796 68.1822C75.6079 67.3645 78.0532 68.5062 78.7629 72.1241C78.8786 72.6641 78.9326 73.2041 78.9172 73.7364Z" fill="url(#paint58_linear_10888_36386)"/>
<path d="M78.9172 73.7363C78.9172 73.8289 78.9095 73.9215 78.9018 74.0218C78.7089 76.9068 76.4873 79.4602 70.2543 80.7793C63.4582 82.2218 60.3031 82.245 59.1306 80.0156C59.0457 79.8613 58.9763 79.6916 58.9146 79.5142C58.7526 79.0591 58.876 78.5422 59.2077 77.9868C61.6068 79.0976 65.1784 79.437 69.0663 78.2645C75.0216 76.4671 78.0995 74.3535 78.9172 73.7363Z" fill="url(#paint59_linear_10888_36386)"/>
<path d="M74.6821 69.4396C75.9626 68.6914 75.1449 67.7657 73.525 68.5062C71.2108 69.5631 62.2778 74.7006 63.9132 74.3227C65.564 73.9369 72.2367 70.8667 74.6821 69.4396Z" fill="url(#paint60_linear_10888_36386)"/>
<path d="M54.0547 64.7726C54.0547 64.7726 54.3247 64.7803 54.7027 64.7341C55.2658 64.6569 56.0681 64.4486 56.531 63.8855C56.6852 63.6927 56.801 63.4612 56.8549 63.1835L54.4713 59.2108C54.4713 59.2108 55.019 58.1308 54.6873 56.2871C54.4096 54.7675 54.1473 53.8881 53.7462 53.5023C53.6613 53.4175 53.5765 53.3635 53.4762 53.3249C53.0288 53.1475 53.0519 53.5101 53.1136 53.8803C53.129 53.9729 53.1445 54.0655 53.1522 54.1503C53.2139 54.59 53.2833 55.3074 52.8282 55.8011C52.3654 56.2948 51.2237 56.1329 50.082 55.4232C48.4466 54.4049 48.03 53.1012 47.6289 53.2246C47.6212 53.2246 47.6135 53.2246 47.6135 53.2324C47.2355 53.3712 47.436 54.3123 48.0146 54.9757C48.462 55.4926 49.11 56.0634 49.3646 56.3488C49.4417 56.4337 49.488 56.4954 49.4726 56.5186C49.4186 56.6188 48.5469 56.3103 47.3743 55.5466C46.2944 54.8369 45.4304 54.0578 45.1141 54.1349C45.0832 54.1426 45.0601 54.1503 45.0447 54.1735C44.7978 54.4203 45.4612 55.3923 46.5412 56.1483C47.6135 56.9043 48.5623 57.5445 48.84 57.7065C48.8632 57.722 48.8863 57.7374 48.894 57.7451C48.9557 57.8531 48.462 57.8994 47.9992 57.8377C47.4823 57.7682 46.3484 57.2823 45.8624 56.966C45.6232 56.8117 45.4304 56.7886 45.3224 56.8348C45.2144 56.8811 45.1912 57.0045 45.2992 57.1511C45.5075 57.4365 45.9241 57.8762 46.7803 58.3391C47.6289 58.8019 48.6857 58.9716 48.7089 59.0488C48.732 59.1259 48.1149 59.1876 47.3126 58.9408C46.5104 58.6939 46.0244 58.5628 45.8701 58.6476C45.8238 58.6785 45.8238 58.7479 45.8855 58.8482C46.0244 59.0719 46.4564 59.4191 47.2895 59.6968C48.5083 60.1056 49.4109 60.3216 50.622 60.3216C51.8331 60.3216 52.1956 60.6302 52.3731 60.8924C52.5196 61.1547 54.0547 64.7726 54.0547 64.7726Z" fill="url(#paint61_linear_10888_36386)"/>
<path d="M54.0547 64.7726C54.0547 64.7726 54.3247 64.7803 54.7027 64.734L55.2426 64.1246C55.2426 64.1246 53.831 61.3784 52.8358 60.391C51.8407 59.4036 50.0125 59.9976 48.2922 59.7662C47.0657 59.5964 46.2326 59.1182 45.8623 58.8559C46.0012 59.0796 46.4331 59.4267 47.2663 59.7044C48.4851 60.1133 49.3876 60.3293 50.5988 60.3293C51.8099 60.3293 52.1724 60.6379 52.3499 60.9001C52.5196 61.1547 54.0547 64.7726 54.0547 64.7726Z" fill="url(#paint62_linear_10888_36386)"/>
<path d="M46.0088 57.3902C46.6722 57.7297 47.4513 58.0999 48.1687 58.2619C48.8938 58.4239 49.1715 57.9919 49.0327 57.8608C48.9864 57.8145 48.9324 57.7759 48.8707 57.7451C48.9324 57.8531 48.4387 57.8994 47.9759 57.8376C47.459 57.7682 46.325 57.2822 45.8391 56.966C45.5999 56.8117 45.4071 56.7885 45.2991 56.8348C45.3916 56.9582 45.5845 57.1742 46.0088 57.3902Z" fill="url(#paint63_linear_10888_36386)"/>
<path d="M49.1252 56.8811C49.6189 57.0585 49.8349 56.8348 49.4878 56.4722C49.4492 56.4337 49.403 56.3874 49.3567 56.3411C49.4338 56.426 49.4801 56.4877 49.4647 56.5108C49.4107 56.6111 48.539 56.3025 47.3664 55.5388C46.2865 54.8291 45.4225 54.05 45.1062 54.1272C45.2528 54.3277 45.6848 54.8523 46.7724 55.562C48.1918 56.4954 48.6315 56.7037 49.1252 56.8811Z" fill="url(#paint64_linear_10888_36386)"/>
<path d="M51.7791 56.6034C52.7048 56.7731 53.1677 55.9631 53.3297 55.4308C53.4685 54.9834 53.1985 54.1349 53.1137 53.888C53.1291 53.9806 53.1445 54.0732 53.1522 54.158C53.214 54.5977 53.2834 55.3151 52.8283 55.8088C52.3654 56.3025 51.2237 56.1405 50.082 55.4308C48.4466 54.4126 48.0301 53.1089 47.629 53.2323C47.6212 53.2323 47.6135 53.2323 47.6135 53.24C47.7292 53.5795 48.0532 54.32 48.7706 54.9294C49.7195 55.7394 50.8457 56.4337 51.7791 56.6034Z" fill="url(#paint65_linear_10888_36386)"/>
<path d="M56.5306 63.8855C56.6849 63.6926 56.8006 63.4612 56.8546 63.1835L54.471 59.2107C54.471 59.2107 55.0187 58.1308 54.687 56.2871C54.4093 54.7674 54.147 53.888 53.7458 53.5023C53.9773 53.942 54.255 54.6671 54.363 55.7548C54.5481 57.7528 53.9541 58.9948 53.9541 58.9948L56.5306 63.8855Z" fill="url(#paint66_linear_10888_36386)"/>
<path d="M58.3514 63.8778C58.3514 63.8778 56.0835 63.5152 53.7307 65.868L52.9207 63.8238L52.697 63.2684C52.697 63.2684 52.7819 62.1807 54.1781 61.6176C55.5744 61.0544 56.5001 61.3398 56.5001 61.3398L57.5723 62.8132L58.3514 63.8778Z" fill="url(#paint67_linear_10888_36386)"/>
<path d="M58.3514 63.8778C58.3514 63.8778 56.0834 63.5152 53.7306 65.868L52.9207 63.8238C53.3835 63.5152 54.4095 62.9521 55.8597 62.7901C56.4923 62.7206 57.0708 62.7438 57.5723 62.8055L58.3514 63.8778Z" fill="url(#paint68_linear_10888_36386)"/>
<path d="M65.7108 80.5016C65.4717 80.8179 65.2094 81.0648 64.9317 81.2576C64.1834 81.7744 63.3118 81.9133 62.5018 81.867C61.4218 81.8053 60.4653 81.4196 60.095 81.2113C59.3467 80.7793 58.961 80.4091 57.8347 77.5008C56.7162 74.5926 53.646 66.0608 53.646 66.0608C53.646 66.0608 53.646 65.4129 54.4791 64.5952C54.6874 64.3946 54.9497 64.1786 55.266 63.9626C56.2148 63.3301 57.0402 63.2143 57.5725 63.2298C57.9505 63.2375 58.1742 63.3223 58.1742 63.3223C58.1742 63.3223 59.4238 64.6569 61.5221 67.4262C63.6203 70.1956 65.1168 71.8541 66.112 74.7392C66.328 75.3332 67.4234 78.226 65.7108 80.5016Z" fill="url(#paint69_linear_10888_36386)"/>
<path d="M65.7107 80.5016C65.4716 80.8179 65.2093 81.0648 64.9316 81.2576C65.0242 80.6482 65.0705 78.7968 63.6433 74.3458C62.2471 69.9796 59.0535 65.2663 57.5801 63.2298C57.9581 63.2375 58.1818 63.3223 58.1818 63.3223C58.1818 63.3223 59.4315 64.6569 61.5297 67.4262C63.6279 70.1956 65.1245 71.8541 66.1196 74.7392C66.3279 75.3332 67.4233 78.226 65.7107 80.5016Z" fill="url(#paint70_linear_10888_36386)"/>
<path d="M62.5018 81.867C61.4218 81.8053 60.4652 81.4196 60.095 81.2113C59.3467 80.7793 58.961 80.4091 57.8347 77.5009C56.7162 74.5926 53.646 66.0609 53.646 66.0609C53.646 66.0609 53.646 65.4129 54.4791 64.5952C55.3585 67.9122 58.0276 77.146 60.3187 79.7611C61.1055 80.6482 61.8152 81.4428 62.5018 81.867Z" fill="url(#paint71_linear_10888_36386)"/>
<path d="M83.6305 64.788C82.7897 65.2431 81.2237 65.1197 79.5652 64.0629C78.4621 63.3532 77.3127 62.2346 76.3021 60.5992C75.9781 60.0747 75.7236 59.581 75.5307 59.1104C74.7979 57.367 74.8905 56.0171 75.3919 55.0451C75.8084 54.2351 76.5027 53.6797 77.251 53.3789C81.8177 51.5043 83.8079 54.0808 84.7413 56.8888C85.6747 59.6967 85.0345 64.032 83.6305 64.788Z" fill="url(#paint72_linear_10888_36386)"/>
<path d="M83.6305 64.7881C82.7897 65.2432 81.2237 65.1198 79.5652 64.0629C79.4958 63.4535 79.3415 62.7747 79.0329 62.0187C78.5315 60.7844 77.3744 58.2696 77.3744 58.2696C77.3744 58.2696 76.3638 58.8482 75.5307 59.1028C74.7979 57.3594 74.8905 56.0094 75.3919 55.0374C75.8084 54.2275 76.5027 53.672 77.251 53.3712C81.8177 51.4967 83.8079 54.0732 84.7413 56.8811C85.6747 59.6968 85.0345 64.0321 83.6305 64.7881Z" fill="url(#paint73_linear_10888_36386)"/>
<path d="M77.1738 58.2002C77.1738 58.2002 76.7418 57.1974 77.6289 56.9196C78.516 56.6419 79.0637 57.6371 79.1794 59.0024C79.3337 60.8384 78.2923 60.3678 78.2923 60.3678L77.1738 58.2002Z" fill="url(#paint74_linear_10888_36386)"/>
<path d="M77.6289 58.393C77.6289 58.393 77.3743 57.799 77.8989 57.6293C78.4234 57.4673 78.7552 58.0613 78.8246 58.8713C78.9172 59.9667 78.3 59.6813 78.3 59.6813L77.6289 58.393Z" fill="url(#paint75_linear_10888_36386)"/>
<path d="M87.8191 73.7827C82.8203 75.3101 79.835 72.9264 79.0481 69.9025C78.2613 66.8786 79.5341 63.4844 79.4184 60.6841C79.3953 60.1442 79.3336 59.7045 79.2256 59.3419C78.7936 57.7991 77.7059 57.6217 76.6182 57.4365C74.0648 57.0122 73.2626 53.78 76.6953 51.8052C81.1927 49.2133 85.366 50.0387 86.5154 54.4897C87.3485 57.7219 86.7005 57.9225 87.8191 60.121C88.7448 61.9415 91.1593 62.0495 92.7407 63.7775C93.0724 64.1323 93.3655 64.5643 93.5969 65.0889C94.9855 68.1514 92.8178 72.2553 87.8191 73.7827Z" fill="url(#paint76_linear_10888_36386)"/>
<path d="M87.8192 73.7827C82.8205 75.31 79.8352 72.9264 79.0483 69.9025C78.2615 66.8785 79.5343 63.4843 79.4186 60.6841C79.3955 60.1442 79.3337 59.7045 79.2257 59.3419C79.7349 59.7122 80.3597 60.6919 80.3134 63.2606C80.2363 67.5497 80.7994 71.021 84.8647 71.4684C88.9301 71.9158 91.954 69.6402 92.6251 66.732C92.8874 65.5903 92.8643 64.5797 92.7408 63.7852C93.0725 64.14 93.3657 64.572 93.5971 65.0966C94.9856 68.1514 92.818 72.2553 87.8192 73.7827Z" fill="url(#paint77_linear_10888_36386)"/>
<path d="M71.9821 56.696C71.1258 58.0382 72.6841 59.0256 74.8903 58.6939C77.1043 58.3545 78.0454 57.1511 77.9914 56.7346C77.9374 56.318 73.6946 54.0346 71.9821 56.696Z" fill="url(#paint78_linear_10888_36386)"/>
<path d="M85.8135 53.402C85.5049 55.0837 82.4733 56.1791 80.861 56.8425C80.1436 57.1356 79.3645 57.3593 78.5237 57.4751C77.1891 57.6525 75.3223 58.0382 73.1238 56.6574C73.0852 56.6342 73.0467 56.6111 73.0081 56.5802C71.9204 55.8474 71.2956 54.6517 71.1721 53.3634C70.9716 51.3038 71.6581 49.869 73.1007 48.951C75.7929 47.2385 76.572 51.2729 79.6268 49.9615C84.9804 47.6627 86.0372 52.1755 85.8135 53.402Z" fill="url(#paint79_linear_10888_36386)"/>
<path d="M80.8686 56.8503C80.1512 57.1434 79.372 57.3671 78.5312 57.4828C77.1967 57.6602 75.3299 58.046 73.1313 56.6651C73.0928 56.642 73.0542 56.6188 73.0156 56.588C71.928 55.8552 71.2568 54.6595 71.1797 53.3712C71.7968 54.1658 73.8025 55.1995 76.6104 55.9554C79.2409 56.6574 79.7655 56.8271 80.8686 56.8503Z" fill="url(#paint80_linear_10888_36386)"/>
<path d="M72.8309 49.1902C71.99 49.8304 71.3729 50.8024 71.3498 51.7204C71.3189 52.6461 72.1057 52.8929 72.2754 52.3375C72.4452 51.7744 72.4992 50.1544 73.6486 49.3984C74.798 48.6425 75.8625 49.2056 75.8625 49.2056C75.8625 49.2056 74.636 47.8171 72.8309 49.1902Z" fill="url(#paint81_linear_10888_36386)"/>
<path d="M83.2911 49.5219C82.2497 49.2596 81.108 49.4602 80.676 49.7919C80.244 50.1313 81.27 50.5787 82.8591 50.3627C83.7694 50.2393 85.1811 51.1341 85.1811 51.1341C85.1811 51.1341 84.8339 49.9153 83.2911 49.5219Z" fill="url(#paint82_linear_10888_36386)"/>
<path d="M85 15L86.5737 31.0067L88.4251 31.1224L89.5282 15.0617L85 15Z" fill="url(#paint83_linear_10888_36386)"/>
<path d="M87.4605 34.64C88.0612 34.64 88.5482 34.153 88.5482 33.5523C88.5482 32.9516 88.0612 32.4646 87.4605 32.4646C86.8598 32.4646 86.3728 32.9516 86.3728 33.5523C86.3728 34.153 86.8598 34.64 87.4605 34.64Z" fill="url(#paint84_linear_10888_36386)"/>
<path d="M91.549 34.7712C92.0602 34.7712 92.4747 34.3567 92.4747 33.8455C92.4747 33.3342 92.0602 32.9198 91.549 32.9198C91.0377 32.9198 90.6233 33.3342 90.6233 33.8455C90.6233 34.3567 91.0377 34.7712 91.549 34.7712Z" fill="url(#paint85_linear_10888_36386)"/>
<path d="M93.4083 24.2492L95.9231 25.306L92.7063 32.0558L91.5569 31.6316L93.4083 24.2492Z" fill="url(#paint86_linear_10888_36386)"/>
<path d="M57.2194 13.0867C57.2194 13.0867 56.1443 14.1669 54.5077 16.7811C52.8769 19.3901 52.1187 21.44 52.1187 21.44C52.1187 21.44 53.0627 17.8341 53.8193 15.2864C54.5759 12.7387 55.2173 11.3092 55.2173 11.3092L57.2194 13.0867Z" fill="url(#paint87_linear_10888_36386)"/>
<path d="M57.3321 12.9691C57.9063 12.4738 57.9702 11.6067 57.4748 11.0325C56.9795 10.4583 56.1124 10.3944 55.5382 10.8898C54.964 11.3851 54.9001 12.2522 55.3955 12.8264C55.8908 13.4006 56.7579 13.4645 57.3321 12.9691Z" fill="url(#paint88_linear_10888_36386)"/>
<path d="M7.7882 44.5955C7.7882 44.5955 11.9954 43.6148 15.3613 42.769C18.7272 41.9232 21.1793 41.825 21.1793 41.825C21.1793 41.825 16.9858 41.5815 13.9943 41.5032C11.0028 41.4249 6.56526 41.8198 6.56526 41.8198L7.7882 44.5955Z" fill="url(#paint89_linear_10888_36386)"/>
<path d="M7.83737 44.5225C8.48577 43.9631 8.55794 42.984 7.99857 42.3357C7.4392 41.6873 6.46011 41.6151 5.81172 42.1745C5.16332 42.7338 5.09115 43.7129 5.65052 44.3613C6.20989 45.0097 7.18898 45.0819 7.83737 44.5225Z" fill="url(#paint90_linear_10888_36386)"/>
<path d="M36.0647 12.5501C36.0647 12.5501 35.8082 13.729 35.826 16.1588C35.8438 18.5886 36.2123 20.2675 36.2123 20.2675C36.2123 20.2675 35.314 17.4665 34.7294 15.4544C34.1506 13.4373 33.9727 12.2154 33.9727 12.2154L36.0647 12.5501Z" fill="url(#paint91_linear_10888_36386)"/>
<path d="M35.7682 12.9385C36.2231 12.5461 36.2737 11.8593 35.8813 11.4045C35.4889 10.9496 34.8021 10.899 34.3472 11.2914C33.8924 11.6838 33.8418 12.3706 34.2342 12.8255C34.6266 13.2803 35.3134 13.3309 35.7682 12.9385Z" fill="url(#paint92_linear_10888_36386)"/>
<path d="M24.962 59.0701C24.962 59.0701 25.6641 57.7818 27.6267 55.5691C29.5892 53.3564 31.2679 52.1018 31.2679 52.1018C31.2679 52.1018 28.1997 53.9541 26.063 55.339C23.9262 56.7239 22.7764 57.7057 22.7764 57.7057L24.962 59.0701Z" fill="url(#paint93_linear_10888_36386)"/>
<path d="M24.5415 59.6571C25.0931 59.1812 25.1545 58.3482 24.6786 57.7966C24.2027 57.245 23.3698 57.1836 22.8181 57.6595C22.2665 58.1353 22.2051 58.9683 22.681 59.5199C23.1569 60.0715 23.9898 60.1329 24.5415 59.6571Z" fill="url(#paint94_linear_10888_36386)"/>
<path d="M8.74369 30.9342L8.31862 32.6238L11.7454 32.1724L11.7992 31.1988L8.74369 30.9342Z" fill="#EF5A77"/>
<path d="M5.65331 45.7112L6.17046 46.5101L7.26627 44.9822L6.9049 44.597L5.65331 45.7112Z" fill="#EF5A77"/>
<path d="M15.9688 48.6132L16.7023 49.7659L18.2887 47.572L17.7652 47.02L15.9688 48.6132Z" fill="#EF5A77"/>
<path d="M31.3502 11.4086L32.9433 10.7032L33.0736 14.152L32.1232 14.37L31.3502 11.4086Z" fill="#EF5A77"/>
<path d="M45.3784 5.85828L46.2584 6.22655L44.9444 7.57054L44.4976 7.27476L45.3784 5.85828Z" fill="#EF5A77"/>
<path d="M47.7733 14.6045L49.0337 15.1319L47.1355 17.0732L46.5028 16.651L47.7733 14.6045Z" fill="#EF5A77"/>
<defs>
<linearGradient id="paint0_linear_10888_36386" x1="35.047" y1="89.335" x2="35.133" y2="99.1436" gradientUnits="userSpaceOnUse">
<stop stop-color="#E0EDF3"/>
<stop offset="1" stop-color="#FAF1F1" stop-opacity="0"/>
</linearGradient>
<linearGradient id="paint1_linear_10888_36386" x1="36.6196" y1="101.156" x2="35.7592" y2="90.3151" gradientUnits="userSpaceOnUse">
<stop stop-color="#E0EDF3"/>
<stop offset="1" stop-color="#FAF1F1" stop-opacity="0"/>
</linearGradient>
<linearGradient id="paint2_linear_10888_36386" x1="34.9952" y1="99.0135" x2="34.9952" y2="82.3274" gradientUnits="userSpaceOnUse">
<stop stop-color="#E0EDF3"/>
<stop offset="1" stop-color="#FAF1F1" stop-opacity="0"/>
</linearGradient>
<linearGradient id="paint3_linear_10888_36386" x1="38.702" y1="73.8401" x2="38.0136" y2="81.5837" gradientUnits="userSpaceOnUse">
<stop stop-color="white"/>
<stop offset="1" stop-color="#E3EDF5"/>
</linearGradient>
<linearGradient id="paint4_linear_10888_36386" x1="35.8138" y1="69.1328" x2="37.4916" y2="77.3066" gradientUnits="userSpaceOnUse">
<stop stop-color="white"/>
<stop offset="1" stop-color="#E3EDF5"/>
</linearGradient>
<linearGradient id="paint5_linear_10888_36386" x1="42.9215" y1="85.9789" x2="24.9935" y2="71.1909" gradientUnits="userSpaceOnUse">
<stop stop-color="white"/>
<stop offset="1" stop-color="#E3EDF5"/>
</linearGradient>
<linearGradient id="paint6_linear_10888_36386" x1="38.24" y1="72.5634" x2="37.8528" y2="80.2641" gradientUnits="userSpaceOnUse">
<stop stop-color="white"/>
<stop offset="1" stop-color="#E3EDF5"/>
</linearGradient>
<linearGradient id="paint7_linear_10888_36386" x1="42.7976" y1="89.689" x2="44.1742" y2="52.3475" gradientUnits="userSpaceOnUse">
<stop stop-color="white"/>
<stop offset="1" stop-color="#E3EDF5"/>
</linearGradient>
<linearGradient id="paint8_linear_10888_36386" x1="33.8133" y1="22.1522" x2="44.9125" y2="43.06" gradientUnits="userSpaceOnUse">
<stop stop-color="white"/>
<stop offset="1" stop-color="#E3EDF5"/>
</linearGradient>
<linearGradient id="paint9_linear_10888_36386" x1="41.3769" y1="36.8144" x2="26.4058" y2="17.3693" gradientUnits="userSpaceOnUse">
<stop stop-color="white"/>
<stop offset="1" stop-color="#E3EDF5"/>
</linearGradient>
<linearGradient id="paint10_linear_10888_36386" x1="50.6835" y1="60.4025" x2="46.0373" y2="74.0829" gradientUnits="userSpaceOnUse">
<stop stop-color="white"/>
<stop offset="1" stop-color="#E3EDF5"/>
</linearGradient>
<linearGradient id="paint11_linear_10888_36386" x1="46.7457" y1="68.9945" x2="42.5297" y2="87.3211" gradientUnits="userSpaceOnUse">
<stop stop-color="white"/>
<stop offset="1" stop-color="#E3EDF5"/>
</linearGradient>
<linearGradient id="paint12_linear_10888_36386" x1="42.054" y1="84.1948" x2="42.9144" y2="79.9788" gradientUnits="userSpaceOnUse">
<stop stop-color="white"/>
<stop offset="1" stop-color="#E3EDF5"/>
</linearGradient>
<linearGradient id="paint13_linear_10888_36386" x1="35.3287" y1="32.2069" x2="49.6572" y2="52.2506" gradientUnits="userSpaceOnUse">
<stop offset="0.1179" stop-color="#EE5A77"/>
<stop offset="1" stop-color="#801C56"/>
</linearGradient>
<linearGradient id="paint14_linear_10888_36386" x1="49.8835" y1="66.9004" x2="30.0081" y2="86.2595" gradientUnits="userSpaceOnUse">
<stop offset="0.1385" stop-color="#F7B142"/>
<stop offset="1" stop-color="#EF794A"/>
</linearGradient>
<linearGradient id="paint15_linear_10888_36386" x1="45.7027" y1="73.4159" x2="38.9915" y2="77.4168" gradientUnits="userSpaceOnUse">
<stop offset="0.0307692" stop-color="#F7923A"/>
<stop offset="0.8769" stop-color="#FFD65B"/>
</linearGradient>
<linearGradient id="paint16_linear_10888_36386" x1="58.0153" y1="48.4068" x2="47.0882" y2="69.4006" gradientUnits="userSpaceOnUse">
<stop offset="0.1179" stop-color="#23255A"/>
<stop offset="1" stop-color="#161541"/>
</linearGradient>
<linearGradient id="paint17_linear_10888_36386" x1="60.5903" y1="49.7471" x2="49.6632" y2="70.741" gradientUnits="userSpaceOnUse">
<stop offset="0.1179" stop-color="#23255A"/>
<stop offset="1" stop-color="#161541"/>
</linearGradient>
<linearGradient id="paint18_linear_10888_36386" x1="55.1338" y1="46.9071" x2="44.2067" y2="67.9009" gradientUnits="userSpaceOnUse">
<stop offset="0.1179" stop-color="#23255A"/>
<stop offset="1" stop-color="#161541"/>
</linearGradient>
<linearGradient id="paint19_linear_10888_36386" x1="50.2839" y1="44.3826" x2="39.3567" y2="65.3764" gradientUnits="userSpaceOnUse">
<stop offset="0.1179" stop-color="#23255A"/>
<stop offset="1" stop-color="#161541"/>
</linearGradient>
<linearGradient id="paint20_linear_10888_36386" x1="48.8784" y1="43.6511" x2="37.9513" y2="64.645" gradientUnits="userSpaceOnUse">
<stop offset="0.1179" stop-color="#23255A"/>
<stop offset="1" stop-color="#161541"/>
</linearGradient>
<linearGradient id="paint21_linear_10888_36386" x1="60.4128" y1="52.2018" x2="58.4339" y2="82.0578" gradientUnits="userSpaceOnUse">
<stop offset="0.1179" stop-color="#875A84"/>
<stop offset="1" stop-color="#343977"/>
</linearGradient>
<linearGradient id="paint22_linear_10888_36386" x1="54.642" y1="56.669" x2="55.0291" y2="76.0281" gradientUnits="userSpaceOnUse">
<stop offset="0.1179" stop-color="#EE5A77"/>
<stop offset="1" stop-color="#801C56"/>
</linearGradient>
<linearGradient id="paint23_linear_10888_36386" x1="46.4551" y1="56.8328" x2="46.8423" y2="76.1919" gradientUnits="userSpaceOnUse">
<stop offset="0.1179" stop-color="#EE5A77"/>
<stop offset="1" stop-color="#801C56"/>
</linearGradient>
<linearGradient id="paint24_linear_10888_36386" x1="43.6122" y1="51.0882" x2="41.6333" y2="80.9443" gradientUnits="userSpaceOnUse">
<stop offset="0.1179" stop-color="#875A84"/>
<stop offset="1" stop-color="#343977"/>
</linearGradient>
<linearGradient id="paint25_linear_10888_36386" x1="51.5425" y1="51.6139" x2="49.5635" y2="81.4699" gradientUnits="userSpaceOnUse">
<stop offset="0.1179" stop-color="#875A84"/>
<stop offset="1" stop-color="#343977"/>
</linearGradient>
<linearGradient id="paint26_linear_10888_36386" x1="51.2085" y1="51.5917" x2="49.2295" y2="81.4477" gradientUnits="userSpaceOnUse">
<stop offset="0.1179" stop-color="#875A84"/>
<stop offset="1" stop-color="#343977"/>
</linearGradient>
<linearGradient id="paint27_linear_10888_36386" x1="54.9795" y1="35.6717" x2="52.4628" y2="60.1932" gradientUnits="userSpaceOnUse">
<stop offset="0.1179" stop-color="#23255A"/>
<stop offset="1" stop-color="#161541"/>
</linearGradient>
<linearGradient id="paint28_linear_10888_36386" x1="58.5498" y1="37.5617" x2="47.0634" y2="51.4357" gradientUnits="userSpaceOnUse">
<stop offset="0.1179" stop-color="#875A84"/>
<stop offset="1" stop-color="#343977"/>
</linearGradient>
<linearGradient id="paint29_linear_10888_36386" x1="50.0027" y1="34.7263" x2="57.316" y2="47.7454" gradientUnits="userSpaceOnUse">
<stop offset="0.0901129" stop-color="#FDCA54"/>
<stop offset="1" stop-color="#FAD58D"/>
</linearGradient>
<linearGradient id="paint30_linear_10888_36386" x1="59.1722" y1="36.1704" x2="56.8216" y2="59.0745" gradientUnits="userSpaceOnUse">
<stop offset="0.1179" stop-color="#EE5A77"/>
<stop offset="1" stop-color="#801C56"/>
</linearGradient>
<linearGradient id="paint31_linear_10888_36386" x1="68.8463" y1="28.5515" x2="70.8348" y2="45.9964" gradientUnits="userSpaceOnUse">
<stop offset="0.1179" stop-color="#875A84"/>
<stop offset="1" stop-color="#343977"/>
</linearGradient>
<linearGradient id="paint32_linear_10888_36386" x1="64.062" y1="19.746" x2="65.749" y2="34.5457" gradientUnits="userSpaceOnUse">
<stop offset="0.0901129" stop-color="#FDCA54"/>
<stop offset="1" stop-color="#FAD58D"/>
</linearGradient>
<linearGradient id="paint33_linear_10888_36386" x1="72.1296" y1="17.7201" x2="75.4114" y2="46.5106" gradientUnits="userSpaceOnUse">
<stop offset="0.1179" stop-color="#EE5A77"/>
<stop offset="1" stop-color="#801C56"/>
</linearGradient>
<linearGradient id="paint34_linear_10888_36386" x1="68.566" y1="18.6466" x2="72.0668" y2="49.3583" gradientUnits="userSpaceOnUse">
<stop offset="0.1179" stop-color="#875A84"/>
<stop offset="1" stop-color="#343977"/>
</linearGradient>
<linearGradient id="paint35_linear_10888_36386" x1="65.442" y1="19.0027" x2="68.9428" y2="49.7144" gradientUnits="userSpaceOnUse">
<stop offset="0.1179" stop-color="#875A84"/>
<stop offset="1" stop-color="#343977"/>
</linearGradient>
<linearGradient id="paint36_linear_10888_36386" x1="68.5832" y1="18.6446" x2="72.084" y2="49.3563" gradientUnits="userSpaceOnUse">
<stop offset="0.1179" stop-color="#875A84"/>
<stop offset="1" stop-color="#343977"/>
</linearGradient>
<linearGradient id="paint37_linear_10888_36386" x1="71.8543" y1="18.2717" x2="75.3551" y2="48.9834" gradientUnits="userSpaceOnUse">
<stop offset="0.1179" stop-color="#875A84"/>
<stop offset="1" stop-color="#343977"/>
</linearGradient>
<linearGradient id="paint38_linear_10888_36386" x1="94.3556" y1="43.1551" x2="99.7278" y2="54.5711" gradientUnits="userSpaceOnUse">
<stop offset="0.1436" stop-color="#F7AFAA"/>
<stop offset="0.9333" stop-color="#E58880"/>
</linearGradient>
<linearGradient id="paint39_linear_10888_36386" x1="92.7563" y1="49.5695" x2="99.6404" y2="45.6238" gradientUnits="userSpaceOnUse">
<stop offset="0.1436" stop-color="#F7AFAA"/>
<stop offset="0.9333" stop-color="#E58880"/>
</linearGradient>
<linearGradient id="paint40_linear_10888_36386" x1="93.6878" y1="42.9073" x2="97.1171" y2="40.9417" gradientUnits="userSpaceOnUse">
<stop offset="0.1436" stop-color="#F7AFAA"/>
<stop offset="0.9333" stop-color="#E58880"/>
</linearGradient>
<linearGradient id="paint41_linear_10888_36386" x1="94.348" y1="36.7459" x2="94.9263" y2="41.5778" gradientUnits="userSpaceOnUse">
<stop offset="0.1436" stop-color="#F7AFAA"/>
<stop offset="0.9333" stop-color="#E58880"/>
</linearGradient>
<linearGradient id="paint42_linear_10888_36386" x1="91.2806" y1="40.8777" x2="95.3849" y2="50.8026" gradientUnits="userSpaceOnUse">
<stop offset="0.1436" stop-color="#F7AFAA"/>
<stop offset="0.9333" stop-color="#E58880"/>
</linearGradient>
<linearGradient id="paint43_linear_10888_36386" x1="93.2126" y1="42.9899" x2="94.1198" y2="50.5695" gradientUnits="userSpaceOnUse">
<stop offset="0.1436" stop-color="#F7AFAA"/>
<stop offset="0.9333" stop-color="#E58880"/>
</linearGradient>
<linearGradient id="paint44_linear_10888_36386" x1="97.3788" y1="49.6994" x2="99.1977" y2="52.8896" gradientUnits="userSpaceOnUse">
<stop offset="0.1179" stop-color="#EE5A77"/>
<stop offset="1" stop-color="#801C56"/>
</linearGradient>
<linearGradient id="paint45_linear_10888_36386" x1="97.4229" y1="49.223" x2="99.046" y2="52.6651" gradientUnits="userSpaceOnUse">
<stop offset="0.1179" stop-color="#EE5A77"/>
<stop offset="1" stop-color="#801C56"/>
</linearGradient>
<linearGradient id="paint46_linear_10888_36386" x1="99.5424" y1="51.3676" x2="107.602" y2="66.1991" gradientUnits="userSpaceOnUse">
<stop offset="0.1385" stop-color="#F7B142"/>
<stop offset="1" stop-color="#EF794A"/>
</linearGradient>
<linearGradient id="paint47_linear_10888_36386" x1="102.405" y1="47.5807" x2="102.181" y2="64.7442" gradientUnits="userSpaceOnUse">
<stop offset="0.1385" stop-color="#F7B142"/>
<stop offset="1" stop-color="#EF794A"/>
</linearGradient>
<linearGradient id="paint48_linear_10888_36386" x1="107.76" y1="62.351" x2="101.939" y2="51.4373" gradientUnits="userSpaceOnUse">
<stop offset="0.1385" stop-color="#F7B142"/>
<stop offset="1" stop-color="#FAD58D"/>
</linearGradient>
<linearGradient id="paint49_linear_10888_36386" x1="108.847" y1="97.1769" x2="94.5397" y2="53.4134" gradientUnits="userSpaceOnUse">
<stop offset="0.1385" stop-color="#F7B142"/>
<stop offset="1" stop-color="#EF794A"/>
</linearGradient>
<linearGradient id="paint50_linear_10888_36386" x1="91.2122" y1="61.4381" x2="103.58" y2="62.0031" gradientUnits="userSpaceOnUse">
<stop offset="0.1385" stop-color="#F7B142"/>
<stop offset="1" stop-color="#F28948"/>
</linearGradient>
<linearGradient id="paint51_linear_10888_36386" x1="88.873" y1="56.0187" x2="99.9448" y2="67.8512" gradientUnits="userSpaceOnUse">
<stop offset="0.1385" stop-color="#F7B142"/>
<stop offset="1" stop-color="#EF794A"/>
</linearGradient>
<linearGradient id="paint52_linear_10888_36386" x1="91.5616" y1="105.57" x2="76.3085" y2="58.914" gradientUnits="userSpaceOnUse">
<stop offset="0.1385" stop-color="#F7B142"/>
<stop offset="1" stop-color="#EF794A"/>
</linearGradient>
<linearGradient id="paint53_linear_10888_36386" x1="93.4089" y1="98.2072" x2="97.8117" y2="90.1478" gradientUnits="userSpaceOnUse">
<stop offset="0.1385" stop-color="#F7B142"/>
<stop offset="1" stop-color="#FAD58D"/>
</linearGradient>
<linearGradient id="paint54_linear_10888_36386" x1="89.6565" y1="70.5364" x2="90.9998" y2="96.8786" gradientUnits="userSpaceOnUse">
<stop offset="0.1385" stop-color="#F7B142"/>
<stop offset="1" stop-color="#EF794A"/>
</linearGradient>
<linearGradient id="paint55_linear_10888_36386" x1="80.8812" y1="106.378" x2="75.956" y2="83.5428" gradientUnits="userSpaceOnUse">
<stop offset="0.1385" stop-color="#F7B142"/>
<stop offset="1" stop-color="#EF794A"/>
</linearGradient>
<linearGradient id="paint56_linear_10888_36386" x1="80.1976" y1="53.8774" x2="84.6005" y2="64.0765" gradientUnits="userSpaceOnUse">
<stop offset="0.1385" stop-color="#F7B142"/>
<stop offset="1" stop-color="#EF794A"/>
</linearGradient>
<linearGradient id="paint57_linear_10888_36386" x1="72.0254" y1="88.4412" x2="77.2249" y2="88.5343" gradientUnits="userSpaceOnUse">
<stop offset="0.1385" stop-color="#F7B142"/>
<stop offset="1" stop-color="#F49449"/>
</linearGradient>
<linearGradient id="paint58_linear_10888_36386" x1="46.9325" y1="87.8176" x2="84.319" y2="68.5646" gradientUnits="userSpaceOnUse">
<stop offset="0.1385" stop-color="#F7B142"/>
<stop offset="1" stop-color="#EF794A"/>
</linearGradient>
<linearGradient id="paint59_linear_10888_36386" x1="60.6985" y1="66.8149" x2="68.0303" y2="75.7138" gradientUnits="userSpaceOnUse">
<stop offset="0.1385" stop-color="#F7B142"/>
<stop offset="1" stop-color="#EF794A"/>
</linearGradient>
<linearGradient id="paint60_linear_10888_36386" x1="76.6569" y1="68.6911" x2="65.8921" y2="72.3817" gradientUnits="userSpaceOnUse">
<stop offset="0.1385" stop-color="#F7B142"/>
<stop offset="1" stop-color="#F49449"/>
</linearGradient>
<linearGradient id="paint61_linear_10888_36386" x1="49.967" y1="56.3816" x2="57.4213" y2="66.5604" gradientUnits="userSpaceOnUse">
<stop offset="0.1436" stop-color="#F7AFAA"/>
<stop offset="0.9333" stop-color="#E58880"/>
</linearGradient>
<linearGradient id="paint62_linear_10888_36386" x1="56.3646" y1="58.0459" x2="49.6065" y2="62.2032" gradientUnits="userSpaceOnUse">
<stop offset="0.1436" stop-color="#F7AFAA"/>
<stop offset="0.9333" stop-color="#E58880"/>
</linearGradient>
<linearGradient id="paint63_linear_10888_36386" x1="50.0686" y1="55.6766" x2="46.7021" y2="57.7475" gradientUnits="userSpaceOnUse">
<stop offset="0.1436" stop-color="#F7AFAA"/>
<stop offset="0.9333" stop-color="#E58880"/>
</linearGradient>
<linearGradient id="paint64_linear_10888_36386" x1="44.3426" y1="53.3088" x2="48.3088" y2="56.1283" gradientUnits="userSpaceOnUse">
<stop offset="0.1436" stop-color="#F7AFAA"/>
<stop offset="0.9333" stop-color="#E58880"/>
</linearGradient>
<linearGradient id="paint65_linear_10888_36386" x1="49.4384" y1="52.5919" x2="56.19" y2="60.944" gradientUnits="userSpaceOnUse">
<stop offset="0.1436" stop-color="#F7AFAA"/>
<stop offset="0.9333" stop-color="#E58880"/>
</linearGradient>
<linearGradient id="paint66_linear_10888_36386" x1="50.3686" y1="55.2988" x2="56.5902" y2="59.7215" gradientUnits="userSpaceOnUse">
<stop offset="0.1436" stop-color="#F7AFAA"/>
<stop offset="0.9333" stop-color="#E58880"/>
</linearGradient>
<linearGradient id="paint67_linear_10888_36386" x1="54.051" y1="61.3677" x2="57.0732" y2="66.6846" gradientUnits="userSpaceOnUse">
<stop offset="0.1179" stop-color="#EE5A77"/>
<stop offset="1" stop-color="#801C56"/>
</linearGradient>
<linearGradient id="paint68_linear_10888_36386" x1="54.5746" y1="60.9422" x2="55.8619" y2="64.4682" gradientUnits="userSpaceOnUse">
<stop offset="0.1179" stop-color="#EE5A77"/>
<stop offset="1" stop-color="#801C56"/>
</linearGradient>
<linearGradient id="paint69_linear_10888_36386" x1="49.6928" y1="56.8226" x2="74.7665" y2="96.224" gradientUnits="userSpaceOnUse">
<stop offset="0.1385" stop-color="#F7B142"/>
<stop offset="1" stop-color="#EF794A"/>
</linearGradient>
<linearGradient id="paint70_linear_10888_36386" x1="63.3844" y1="73.3811" x2="58.3099" y2="58.8294" gradientUnits="userSpaceOnUse">
<stop offset="0.1385" stop-color="#F38F49"/>
<stop offset="1" stop-color="#FAD58D"/>
</linearGradient>
<linearGradient id="paint71_linear_10888_36386" x1="54.8319" y1="61.1765" x2="59.9064" y2="81.1757" gradientUnits="userSpaceOnUse">
<stop offset="0.1385" stop-color="#F7B142"/>
<stop offset="1" stop-color="#EF794A"/>
</linearGradient>
<linearGradient id="paint72_linear_10888_36386" x1="74.9936" y1="58.888" x2="85.1796" y2="58.888" gradientUnits="userSpaceOnUse">
<stop offset="0.1436" stop-color="#F7AFAA"/>
<stop offset="0.9333" stop-color="#E58880"/>
</linearGradient>
<linearGradient id="paint73_linear_10888_36386" x1="78.1618" y1="52.3288" x2="80.3083" y2="58.5342" gradientUnits="userSpaceOnUse">
<stop offset="0.1436" stop-color="#F7AFAA"/>
<stop offset="0.9333" stop-color="#E58880"/>
</linearGradient>
<linearGradient id="paint74_linear_10888_36386" x1="78.2918" y1="56.8611" x2="77.6473" y2="63.527" gradientUnits="userSpaceOnUse">
<stop offset="0.1436" stop-color="#F7AFAA"/>
<stop offset="0.9333" stop-color="#E58880"/>
</linearGradient>
<linearGradient id="paint75_linear_10888_36386" x1="77.9504" y1="55.8483" x2="78.1618" y2="57.9492" gradientUnits="userSpaceOnUse">
<stop offset="0.1436" stop-color="#F7AFAA"/>
<stop offset="0.9333" stop-color="#E58880"/>
</linearGradient>
<linearGradient id="paint76_linear_10888_36386" x1="78.5693" y1="48.1125" x2="86.6441" y2="68.3557" gradientUnits="userSpaceOnUse">
<stop stop-color="#5E5441"/>
<stop offset="0.9247" stop-color="#4F443B"/>
</linearGradient>
<linearGradient id="paint77_linear_10888_36386" x1="77.6666" y1="38.7031" x2="85.0544" y2="63.217" gradientUnits="userSpaceOnUse">
<stop stop-color="#5E5441"/>
<stop offset="1" stop-color="#413830"/>
</linearGradient>
<linearGradient id="paint78_linear_10888_36386" x1="73.797" y1="52.0178" x2="75.4201" y2="59.7414" gradientUnits="userSpaceOnUse">
<stop stop-color="#5E5441"/>
<stop offset="1" stop-color="#413830"/>
</linearGradient>
<linearGradient id="paint79_linear_10888_36386" x1="76.1973" y1="47.2982" x2="85.7823" y2="71.3271" gradientUnits="userSpaceOnUse">
<stop stop-color="#5E5441"/>
<stop offset="0.9247" stop-color="#4F443B"/>
</linearGradient>
<linearGradient id="paint80_linear_10888_36386" x1="75.3104" y1="51.8296" x2="76.9009" y2="59.3982" gradientUnits="userSpaceOnUse">
<stop stop-color="#5E5441"/>
<stop offset="1" stop-color="#413830"/>
</linearGradient>
<linearGradient id="paint81_linear_10888_36386" x1="73.0195" y1="52.6453" x2="74.3907" y2="47.2444" gradientUnits="userSpaceOnUse">
<stop stop-color="#5E5441"/>
<stop offset="0.9247" stop-color="#B0A05A"/>
</linearGradient>
<linearGradient id="paint82_linear_10888_36386" x1="83.0263" y1="52.9452" x2="82.5412" y2="44.9605" gradientUnits="userSpaceOnUse">
<stop stop-color="#5E5441"/>
<stop offset="0.9247" stop-color="#B0A05A"/>
</linearGradient>
<linearGradient id="paint83_linear_10888_36386" x1="87.8564" y1="15.6893" x2="81.3607" y2="57.4724" gradientUnits="userSpaceOnUse">
<stop offset="0.1179" stop-color="#EE5A77"/>
<stop offset="1" stop-color="#801C56"/>
</linearGradient>
<linearGradient id="paint84_linear_10888_36386" x1="90.081" y1="16.7126" x2="83.8688" y2="56.6718" gradientUnits="userSpaceOnUse">
<stop offset="0.1179" stop-color="#EE5A77"/>
<stop offset="1" stop-color="#801C56"/>
</linearGradient>
<linearGradient id="paint85_linear_10888_36386" x1="94.1141" y1="17.3396" x2="87.902" y2="57.2988" gradientUnits="userSpaceOnUse">
<stop offset="0.1179" stop-color="#EE5A77"/>
<stop offset="1" stop-color="#801C56"/>
</linearGradient>
<linearGradient id="paint86_linear_10888_36386" x1="95.4261" y1="17.6294" x2="89.2139" y2="57.5886" gradientUnits="userSpaceOnUse">
<stop offset="0.1179" stop-color="#EE5A77"/>
<stop offset="1" stop-color="#801C56"/>
</linearGradient>
<linearGradient id="paint87_linear_10888_36386" x1="46.8601" y1="4.28307" x2="64.8039" y2="34.0937" gradientUnits="userSpaceOnUse">
<stop stop-color="#FBECEB"/>
<stop offset="1" stop-color="#E2D9E3"/>
</linearGradient>
<linearGradient id="paint88_linear_10888_36386" x1="55.4884" y1="7.47651" x2="59.4807" y2="26.2101" gradientUnits="userSpaceOnUse">
<stop offset="0.1179" stop-color="#24245A"/>
<stop offset="1" stop-color="#343977"/>
</linearGradient>
<linearGradient id="paint89_linear_10888_36386" x1="9.23297" y1="41.0869" x2="40.1727" y2="53.6043" gradientUnits="userSpaceOnUse">
<stop stop-color="#FBECEB"/>
<stop offset="1" stop-color="#E2D9E3"/>
</linearGradient>
<linearGradient id="paint90_linear_10888_36386" x1="5.78801" y1="44.5046" x2="7.85575" y2="42.1993" gradientUnits="userSpaceOnUse">
<stop offset="0.1179" stop-color="#24245A"/>
<stop offset="1" stop-color="#343977"/>
</linearGradient>
<linearGradient id="paint91_linear_10888_36386" x1="25.4351" y1="11.0859" x2="50.0131" y2="23.3155" gradientUnits="userSpaceOnUse">
<stop stop-color="#FBECEB"/>
<stop offset="1" stop-color="#E2D9E3"/>
</linearGradient>
<linearGradient id="paint92_linear_10888_36386" x1="32.5305" y1="9.55311" x2="43.129" y2="20.3265" gradientUnits="userSpaceOnUse">
<stop offset="0.1179" stop-color="#24245A"/>
<stop offset="1" stop-color="#343977"/>
</linearGradient>
<linearGradient id="paint93_linear_10888_36386" x1="9.16847" y1="44.9342" x2="33.0973" y2="58.3912" gradientUnits="userSpaceOnUse">
<stop stop-color="#FBECEB"/>
<stop offset="1" stop-color="#E2D9E3"/>
</linearGradient>
<linearGradient id="paint94_linear_10888_36386" x1="22.6806" y1="59.5246" x2="24.6799" y2="57.7999" gradientUnits="userSpaceOnUse">
<stop offset="0.1179" stop-color="#24245A"/>
<stop offset="1" stop-color="#343977"/>
</linearGradient>
</defs>
</svg>
