<svg width="124" height="125" viewBox="0 0 124 125" fill="none" xmlns="http://www.w3.org/2000/svg">
<path d="M41.614 94.621L23.67 35.3356C23.0899 33.4164 24.2481 31.5362 26.1385 31.3161L57.8445 28.8969C59.414 28.7159 60.241 28.8414 61.1358 30.2011L80.8036 85.2036C81.5689 87.5034 80.2215 90.6261 77.9607 91.0437C77.8826 91.0581 77.8023 91.0704 77.7221 91.0807L45.3332 97.1245C43.7143 97.3343 42.1098 96.2481 41.614 94.621Z" fill="#242459"/>
<path d="M41.5132 94.6992L23.9477 35.9425C23.9477 35.9425 22.3185 31.7975 26.6075 31.3017L57.7498 28.9854C58.7784 28.8661 59.8069 29.2693 60.6297 29.944C61.284 30.4818 61.7708 31.1956 62.0327 32.0011L80.7008 85.2798C81.466 87.5816 80.1186 90.7043 77.8599 91.1219C77.7797 91.1363 77.7015 91.1486 77.6213 91.1589L45.2386 97.2129C43.6197 97.4228 42.0151 96.3366 41.5132 94.6992Z" fill="url(#paint0_linear_424_7048)"/>
<path d="M43.1837 91.1239L26.4184 34.8831C25.8753 33.0626 26.9574 31.277 28.7306 31.0672L58.3527 28.8044C59.8194 28.6316 60.7842 28.7447 61.2758 30.2444L80.633 84.568C81.3859 86.7979 78.7076 88.1268 76.9179 88.3633L46.6561 93.5122C45.1462 93.7118 43.6486 92.6832 43.1837 91.1239Z" fill="#055275"/>
<path d="M44.9569 91.1898L28.1155 35.0312C28.0718 34.91 28.0555 34.7805 28.0681 34.6522C28.0806 34.5239 28.1215 34.4 28.1879 34.2895C28.2543 34.1789 28.3445 34.0846 28.4518 34.0133C28.5592 33.942 28.6812 33.8955 28.8088 33.8772L58.8423 31.2441C59.0726 31.222 59.3037 31.2781 59.4982 31.4035C59.6927 31.529 59.8392 31.7163 59.914 31.9353L78.3332 84.5968C78.3829 84.7166 78.4052 84.846 78.3986 84.9755C78.3919 85.1051 78.3564 85.2315 78.2948 85.3456C78.2331 85.4597 78.1467 85.5586 78.042 85.6351C77.9373 85.7116 77.8168 85.7638 77.6893 85.7879L45.5555 91.5765C45.0762 91.6588 45.1071 91.6814 44.9569 91.1898Z" fill="#EFE4E8"/>
<path d="M65.8836 81.5544L62.907 73.5461C62.8974 73.5193 62.8942 73.4906 62.8975 73.4623C62.9008 73.434 62.9106 73.4069 62.9261 73.383C62.9417 73.3591 62.9625 73.3391 62.987 73.3246C63.0115 73.3101 63.0391 73.3014 63.0675 73.2993L70.2673 72.2831C70.3192 72.2757 70.3721 72.2851 70.4184 72.3099C70.4646 72.3347 70.5018 72.3736 70.5244 72.4209L73.7294 80.0979C73.7408 80.1241 73.746 80.1526 73.7444 80.1811C73.7429 80.2097 73.7347 80.2374 73.7205 80.2622C73.7063 80.287 73.6865 80.3081 73.6627 80.3239C73.6388 80.3397 73.6117 80.3496 73.5833 80.353L66.151 81.7004C66.0965 81.7103 66.0402 81.7012 65.9916 81.6746C65.9429 81.648 65.9048 81.6056 65.8836 81.5544Z" fill="#F6B042"/>
<path d="M60.5621 67.5394L58.1224 59.4735C58.1143 59.4472 58.1122 59.4194 58.1163 59.3921C58.1203 59.3649 58.1304 59.3389 58.1458 59.316C58.1611 59.2931 58.1814 59.274 58.2051 59.26C58.2288 59.2459 58.2554 59.2374 58.2828 59.2349L65.1329 58.2413C65.183 58.2343 65.2339 58.2438 65.2781 58.2682C65.3222 58.2927 65.3572 58.331 65.3777 58.3771L68.3646 66.1941C68.3759 66.2212 68.3808 66.2506 68.3789 66.28C68.377 66.3094 68.3684 66.3379 68.3536 66.3634C68.3389 66.3888 68.3185 66.4106 68.294 66.4269C68.2695 66.4432 68.2416 66.4536 68.2124 66.4574L60.8069 67.6916C60.7548 67.6979 60.7022 67.6862 60.6577 67.6585C60.6132 67.6308 60.5795 67.5888 60.5621 67.5394Z" fill="#ED5A76"/>
<path d="M56.3348 54.8554L54.1008 47.308C54.0967 47.2803 54.0984 47.2521 54.1056 47.2251C54.1129 47.1981 54.1256 47.1728 54.1429 47.1509C54.1602 47.1289 54.1818 47.1108 54.2064 47.0974C54.231 47.0841 54.2581 47.076 54.2859 47.0735L61.3212 46.2506C61.368 46.2434 61.4159 46.2526 61.4567 46.2765C61.4976 46.3005 61.5289 46.3379 61.5454 46.3823L63.8576 53.6623C63.8642 53.6875 63.8655 53.7139 63.8612 53.7396C63.857 53.7653 63.8474 53.7898 63.833 53.8116C63.8186 53.8333 63.7998 53.8518 63.7778 53.8658C63.7558 53.8798 63.7311 53.889 63.7053 53.8927L56.5857 54.9768C56.5363 54.9918 56.4831 54.9876 56.4366 54.9651C56.3901 54.9426 56.3537 54.9035 56.3348 54.8554Z" fill="#F6B042"/>
<path d="M52.7758 43.8109L50.4534 36.0515C50.4164 35.9343 50.5069 35.8273 50.6468 35.8212L57.97 35.1835C58.0207 35.181 58.0708 35.1945 58.1133 35.2223C58.1558 35.25 58.1884 35.2904 58.2066 35.3377L60.5969 42.7433C60.6047 42.7688 60.6066 42.7959 60.6025 42.8223C60.5984 42.8487 60.5883 42.8739 60.5731 42.8959C60.5578 42.9178 60.5378 42.9361 60.5145 42.9492C60.4912 42.9623 60.4652 42.97 60.4385 42.9716L53.033 43.959C52.9798 43.9659 52.9259 43.9551 52.8794 43.9284C52.833 43.9016 52.7966 43.8603 52.7758 43.8109Z" fill="#58A9BF"/>
<path d="M54.405 84.0229L51.5251 76.1278C51.5157 76.101 51.5123 76.0726 51.5151 76.0444C51.518 76.0162 51.527 75.9889 51.5415 75.9646C51.556 75.9403 51.5757 75.9194 51.5992 75.9035C51.6226 75.8876 51.6493 75.8771 51.6773 75.8727L58.6221 74.5623C58.6719 74.5522 58.7236 74.5594 58.7688 74.5825C58.814 74.6057 58.8501 74.6435 58.871 74.6899L61.971 82.2435C61.9815 82.2699 61.9861 82.2982 61.9844 82.3265C61.9827 82.3549 61.9748 82.3825 61.9613 82.4074C61.9477 82.4323 61.9289 82.454 61.906 82.4708C61.8832 82.4876 61.8569 82.4992 61.8291 82.5048L54.658 84.1504C54.6076 84.1619 54.5547 84.1555 54.5086 84.1322C54.4624 84.1089 54.4257 84.0703 54.405 84.0229Z" fill="#ED5A76"/>
<path d="M89.7232 23.6226C90.1459 23.6226 90.4885 23.28 90.4885 22.8573C90.4885 22.4347 90.1459 22.0921 89.7232 22.0921C89.3006 22.0921 88.958 22.4347 88.958 22.8573C88.958 23.28 89.3006 23.6226 89.7232 23.6226Z" fill="#EFE4E8"/>
<path d="M62.8556 11.4837C63.1237 11.4837 63.3411 11.2663 63.3411 10.9982C63.3411 10.7301 63.1237 10.5128 62.8556 10.5128C62.5875 10.5128 62.3701 10.7301 62.3701 10.9982C62.3701 11.2663 62.5875 11.4837 62.8556 11.4837Z" fill="#EFE4E8"/>
<path d="M21.9173 74.6919C22.34 74.6919 22.6826 74.3493 22.6826 73.9267C22.6826 73.504 22.34 73.1614 21.9173 73.1614C21.4947 73.1614 21.1521 73.504 21.1521 73.9267C21.1521 74.3493 21.4947 74.6919 21.9173 74.6919Z" fill="#EFE4E8"/>
<path d="M60.5332 104.946C61.1944 104.946 61.7304 104.41 61.7304 103.748C61.7304 103.087 61.1944 102.551 60.5332 102.551C59.8719 102.551 59.3359 103.087 59.3359 103.748C59.3359 104.41 59.8719 104.946 60.5332 104.946Z" fill="#EFE4E8"/>
<path d="M64.0219 107.891C64.3866 107.891 64.6822 107.596 64.6822 107.231C64.6822 106.866 64.3866 106.571 64.0219 106.571C63.6572 106.571 63.3616 106.866 63.3616 107.231C63.3616 107.596 63.6572 107.891 64.0219 107.891Z" fill="#EFE4E8"/>
<path d="M110.634 57.1882C111.015 57.1882 111.325 56.8787 111.325 56.497C111.325 56.1152 111.015 55.8058 110.634 55.8058C110.252 55.8058 109.942 56.1152 109.942 56.497C109.942 56.8787 110.252 57.1882 110.634 57.1882Z" fill="#EFE4E8"/>
<path d="M112.477 61.5718C112.744 61.5718 112.96 61.3554 112.96 61.0884C112.96 60.8214 112.744 60.605 112.477 60.605C112.21 60.605 111.993 60.8214 111.993 61.0884C111.993 61.3554 112.21 61.5718 112.477 61.5718Z" fill="#EFE4E8"/>
<path d="M110.465 64.0095C110.727 64.0095 110.94 63.7967 110.94 63.5343C110.94 63.2718 110.727 63.0591 110.465 63.0591C110.202 63.0591 109.99 63.2718 109.99 63.5343C109.99 63.7967 110.202 64.0095 110.465 64.0095Z" fill="#EFE4E8"/>
<path d="M58.6572 109.259C59.0673 109.259 59.3998 108.927 59.3998 108.517C59.3998 108.107 59.0673 107.774 58.6572 107.774C58.247 107.774 57.9146 108.107 57.9146 108.517C57.9146 108.927 58.247 109.259 58.6572 109.259Z" fill="#EFE4E8"/>
<path d="M35.9716 102.528C36.2988 102.528 36.564 102.263 36.564 101.936C36.564 101.609 36.2988 101.344 35.9716 101.344C35.6444 101.344 35.3792 101.609 35.3792 101.936C35.3792 102.263 35.6444 102.528 35.9716 102.528Z" fill="#EFE4E8"/>
<path d="M40.3718 109.99C40.6888 109.99 40.9457 109.733 40.9457 109.416C40.9457 109.099 40.6888 108.842 40.3718 108.842C40.0548 108.842 39.7979 109.099 39.7979 109.416C39.7979 109.733 40.0548 109.99 40.3718 109.99Z" fill="#EFE4E8"/>
<path d="M40.2853 104.931C40.7591 104.931 41.1431 104.547 41.1431 104.073C41.1431 103.6 40.7591 103.216 40.2853 103.216C39.8115 103.216 39.4275 103.6 39.4275 104.073C39.4275 104.547 39.8115 104.931 40.2853 104.931Z" fill="#EFE4E8"/>
<path d="M92.4963 27.7347C92.8133 27.7347 93.0702 27.4778 93.0702 27.1608C93.0702 26.8438 92.8133 26.5869 92.4963 26.5869C92.1793 26.5869 91.9224 26.8438 91.9224 27.1608C91.9224 27.4778 92.1793 27.7347 92.4963 27.7347Z" fill="#EFE4E8"/>
<path d="M23.0632 69.2406C23.3802 69.2406 23.6371 68.9837 23.6371 68.6667C23.6371 68.3497 23.3802 68.0928 23.0632 68.0928C22.7462 68.0928 22.4893 68.3497 22.4893 68.6667C22.4893 68.9837 22.7462 69.2406 23.0632 69.2406Z" fill="#EFE4E8"/>
<path d="M66.3485 13.1767C66.5394 13.1767 66.6941 13.022 66.6941 12.8311C66.6941 12.6403 66.5394 12.4855 66.3485 12.4855C66.1577 12.4855 66.0029 12.6403 66.0029 12.8311C66.0029 13.022 66.1577 13.1767 66.3485 13.1767Z" fill="#EFE4E8"/>
<path d="M63.3082 16.5729C63.6774 16.5729 63.9768 16.2736 63.9768 15.9044C63.9768 15.5352 63.6774 15.2358 63.3082 15.2358C62.939 15.2358 62.6396 15.5352 62.6396 15.9044C62.6396 16.2736 62.939 16.5729 63.3082 16.5729Z" fill="#EFE4E8"/>
<path d="M12.4877 25.9039C12.7558 25.9039 12.9731 25.6866 12.9731 25.4185C12.9731 25.1503 12.7558 24.933 12.4877 24.933C12.2196 24.933 12.0022 25.1503 12.0022 25.4185C12.0022 25.6866 12.2196 25.9039 12.4877 25.9039Z" fill="#EFE4E8"/>
<path d="M15.4725 26.0849C15.6634 26.0849 15.8181 25.9302 15.8181 25.7393C15.8181 25.5485 15.6634 25.3937 15.4725 25.3937C15.2817 25.3937 15.127 25.5485 15.127 25.7393C15.127 25.9302 15.2817 26.0849 15.4725 26.0849Z" fill="#EFE4E8"/>
<path d="M16.2769 22.0983C16.6166 22.0983 16.892 21.8229 16.892 21.4832C16.892 21.1435 16.6166 20.8682 16.2769 20.8682C15.9372 20.8682 15.6619 21.1435 15.6619 21.4832C15.6619 21.8229 15.9372 22.0983 16.2769 22.0983Z" fill="#EFE4E8"/>
<path d="M18.2826 70.0059C18.6518 70.0059 18.9511 69.7065 18.9511 69.3373C18.9511 68.9681 18.6518 68.6688 18.2826 68.6688C17.9133 68.6688 17.614 68.9681 17.614 69.3373C17.614 69.7065 17.9133 70.0059 18.2826 70.0059Z" fill="#EFE4E8"/>
<path d="M96.2011 23.2647C97.945 23.2647 99.3587 21.8509 99.3587 20.107C99.3587 18.3631 97.945 16.9494 96.2011 16.9494C94.4572 16.9494 93.0435 18.3631 93.0435 20.107C93.0435 21.8509 94.4572 23.2647 96.2011 23.2647Z" fill="#F6B042"/>
<path d="M110.654 74.7536C111.316 74.7536 111.853 74.2167 111.853 73.5543C111.853 72.892 111.316 72.355 110.654 72.355C109.992 72.355 109.455 72.892 109.455 73.5543C109.455 74.2167 109.992 74.7536 110.654 74.7536Z" fill="#F6B042"/>
<path d="M107.433 69.4093C108.415 69.4093 109.212 68.6127 109.212 67.63C109.212 66.6472 108.415 65.8506 107.433 65.8506C106.45 65.8506 105.653 66.6472 105.653 67.63C105.653 68.6127 106.45 69.4093 107.433 69.4093Z" fill="#F6B042"/>
<path d="M26.2393 105.923C27.7764 105.923 29.0225 104.677 29.0225 103.139C29.0225 101.602 27.7764 100.356 26.2393 100.356C24.7022 100.356 23.4561 101.602 23.4561 103.139C23.4561 104.677 24.7022 105.923 26.2393 105.923Z" fill="#F6B042"/>
<path d="M32.8282 110.397C33.6485 110.397 34.3135 109.732 34.3135 108.912C34.3135 108.091 33.6485 107.426 32.8282 107.426C32.008 107.426 31.343 108.091 31.343 108.912C31.343 109.732 32.008 110.397 32.8282 110.397Z" fill="#F6B042"/>
<path d="M23.3388 65.8341C24.6692 65.8341 25.7476 64.7556 25.7476 63.4253C25.7476 62.0949 24.6692 61.0164 23.3388 61.0164C22.0084 61.0164 20.9299 62.0949 20.9299 63.4253C20.9299 64.7556 22.0084 65.8341 23.3388 65.8341Z" fill="#F6B042"/>
<path d="M45.1562 91.6156C45.1562 91.6156 62.7238 82.2476 67.6382 69.2406L51.9467 16.0669C51.9467 16.0669 51.4797 22.5323 40.9844 28.6542C30.4892 34.7761 27.9548 34.4429 27.9548 34.4429L45.1562 91.6156Z" fill="#F2F2F2"/>
<path d="M45.1562 91.6156C45.1562 91.6156 62.7238 82.2476 67.6382 69.2406L51.9467 16.0669C51.9467 16.0669 51.4797 22.5323 40.9844 28.6542C30.4892 34.7761 27.9548 34.4429 27.9548 34.4429L45.1562 91.6156Z" fill="url(#paint1_linear_424_7048)"/>
<path d="M45.1709 34.013C45.1709 34.013 47.2732 32.1266 50.5769 28.1976L52.9693 36.0145L47.444 41.3177L45.1709 34.013Z" fill="#58A9BF"/>
<path d="M48.3015 43.8232C48.3015 43.8232 50.7803 41.1881 53.7219 38.1621L56.3797 46.0737C56.3797 46.0737 52.0043 51.2987 50.8132 51.2987L48.3015 43.8232Z" fill="#F6B042"/>
<path d="M52.0457 54.3226C52.0457 54.3226 53.8065 52.0372 56.8181 48.5627L59.5828 56.9022C59.5828 56.9022 57.4949 60.8847 54.6582 62.3699L52.0457 54.3226Z" fill="#58A9BF"/>
<path d="M35.5806 40.9474C35.5806 40.9474 37.8742 39.3449 41.4844 35.8047L43.9036 44.4589L38.047 48.9536L35.5806 40.9474Z" fill="#ED5A76"/>
<path d="M38.9419 51.6155C38.9419 51.6155 41.5544 49.3527 44.6359 46.7669L47.1538 54.9541C47.1538 54.9541 42.6817 59.4077 41.4886 59.274L38.9419 51.6155Z" fill="#ED5A76"/>
<path d="M42.6941 62.2733C42.6941 62.2733 44.4817 60.315 47.5262 57.3898L49.9638 65.4124C49.9638 65.4124 47.878 68.8087 45.1317 69.901L42.6941 62.2733Z" fill="#58A9BF"/>
<path d="M55.1455 66.0891C55.1455 66.0891 57.6757 63.4499 60.6997 59.9816L63.4623 68.3211C63.4623 68.3211 60.3129 73.2581 57.4782 74.7248L55.1455 66.0891Z" fill="#ED5A76"/>
<path d="M46.8945 75.4613C46.8945 75.4613 49.4248 72.822 52.4363 69.3538L55.2011 77.6932C55.2011 77.6932 52.0517 82.6302 49.2149 84.0969L46.8945 75.4613Z" fill="#58A9BF"/>
<path d="M25.2745 55.0014L13.8124 55.7214L9.67969 45.3166L21.3022 44.9957L25.2745 55.0014Z" fill="#F6B042"/>
<path d="M24.1164 54.3102L14.3576 54.9253L10.8379 46.0654L20.7325 45.7918L24.1164 54.3102Z" fill="url(#paint2_linear_424_7048)"/>
<path d="M16.1145 48.392L14.8391 52.6008L20.0045 52.4095L16.1145 48.392Z" fill="url(#paint3_linear_424_7048)"/>
<path d="M18.6158 49.5399L17.7251 52.4733L21.325 52.3396L18.6158 49.5399Z" fill="url(#paint4_linear_424_7048)"/>
<path d="M20.2201 47.9638C20.3556 47.6886 20.1407 47.3056 19.7401 47.1084C19.3395 46.9112 18.905 46.9745 18.7695 47.2497C18.634 47.5249 18.8489 47.9078 19.2495 48.105C19.6501 48.3022 20.0846 48.239 20.2201 47.9638Z" fill="url(#paint5_linear_424_7048)"/>
<path d="M34.0295 25.5665L24.8343 25.8854L21.5183 17.5974H30.8431L34.0295 25.5665Z" fill="#ED5A76"/>
<path d="M33.1061 25.0008L25.2686 25.2744L22.4421 18.2103H30.3887L33.1061 25.0008Z" fill="url(#paint6_linear_424_7048)"/>
<path d="M27.0148 20.4793L26.0459 23.6699L29.9647 23.5259L27.0148 20.4793Z" fill="url(#paint7_linear_424_7048)"/>
<path d="M28.9115 21.3494L28.2368 23.5731L30.9666 23.4723L28.9115 21.3494Z" fill="url(#paint8_linear_424_7048)"/>
<path d="M30.1302 20.1514C30.2331 19.9425 30.0702 19.6519 29.7665 19.5023C29.4627 19.3528 29.1331 19.401 29.0302 19.6099C28.9274 19.8189 29.0902 20.1095 29.394 20.259C29.6977 20.4086 30.0273 20.3604 30.1302 20.1514Z" fill="url(#paint9_linear_424_7048)"/>
<path d="M75.3237 28.4197L67.4718 28.6912L64.6392 21.6148H72.6022L75.3237 28.4197Z" fill="#F6B042"/>
<path d="M74.4204 27.8663L67.8953 28.0926L65.542 22.2114H72.1597L74.4204 27.8663Z" fill="url(#paint10_linear_424_7048)"/>
<path d="M69.2594 23.9805L68.3687 26.9221L71.9768 26.7884L69.2594 23.9805Z" fill="url(#paint11_linear_424_7048)"/>
<path d="M71.0058 24.7827L70.3845 26.8336L72.9003 26.739L71.0058 24.7827Z" fill="url(#paint12_linear_424_7048)"/>
<path d="M72.1314 23.6816C72.2262 23.489 72.0758 23.221 71.7955 23.083C71.5152 22.945 71.2111 22.9893 71.1163 23.1819C71.0215 23.3746 71.1718 23.6426 71.4521 23.7806C71.7324 23.9186 72.0365 23.8743 72.1314 23.6816Z" fill="url(#paint13_linear_424_7048)"/>
<path d="M78.5984 100.14L68.7429 102.238L65.0771 91.4057L74.6694 89.7868L78.5984 100.14Z" fill="#58A9BF"/>
<path d="M77.566 99.4984L69.1915 101.276L66.0442 92.0558L74.2417 90.6673L77.566 99.4984Z" fill="url(#paint14_linear_424_7048)"/>
<path d="M70.3742 94.6148L69.1873 98.332L74.2991 97.3878L70.3742 94.6148Z" fill="url(#paint15_linear_424_7048)"/>
<path d="M72.9683 95.1723L71.9912 97.7972L75.6796 97.1163L72.9683 95.1723Z" fill="url(#paint16_linear_424_7048)"/>
<path d="M74.1159 93.1502C74.1473 93.2073 74.1647 93.271 74.1666 93.3361C74.1685 93.4012 74.155 93.4658 74.1271 93.5247C74.0992 93.5835 74.0577 93.6349 74.006 93.6746C73.9544 93.7142 73.8941 93.7411 73.83 93.7529C73.6883 93.7854 73.5398 93.7704 73.4074 93.7102C73.2751 93.65 73.1662 93.5479 73.0977 93.4197C73.0633 93.3628 73.0432 93.2985 73.0391 93.2322C73.035 93.1659 73.047 93.0996 73.0741 93.039C73.1012 92.9784 73.1426 92.9252 73.1947 92.884C73.2468 92.8428 73.3081 92.8149 73.3733 92.8025C73.5182 92.7687 73.6702 92.7846 73.8049 92.8476C73.9396 92.9107 74.0492 93.0173 74.1159 93.1502Z" fill="url(#paint17_linear_424_7048)"/>
<path d="M27.8953 34.3256C27.8953 34.3256 42.0583 25.6509 42.7475 16.3014C42.7475 16.3014 58.3525 62.8225 58.9553 66.3525C58.9553 66.3525 56.9517 78.7835 45.0987 91.6547L27.8953 34.3256Z" fill="#F2F2F2"/>
<path d="M37.0597 46.7937L36.782 45.3763C39.6335 43.2753 41.8962 40.4756 43.3523 37.2467L43.8419 38.8409C41.0258 44.3889 37.2448 46.7011 37.0597 46.7937Z" fill="#58A9BF"/>
<path d="M38.0037 49.5296L37.7219 48.1122C40.5735 46.0112 42.8362 43.2115 44.2923 39.9826L44.7819 41.5769C41.9678 47.1248 38.1868 49.437 38.0037 49.5296Z" fill="#58A9BF"/>
<path d="M63.2176 49.9328C63.2176 49.9328 61.4917 49.6078 61.0165 49.5564C60.5414 49.505 59.5128 48.2892 59.3277 48.1308C59.1425 47.9724 59.1446 47.2298 59.5334 47.3635C59.7185 47.4253 60.2061 47.7441 60.313 47.775C60.42 47.8058 61.2942 48.2831 61.2942 48.2831C61.2942 48.2831 60.9425 47.5199 60.8026 47.2113C60.6833 46.946 60.1011 45.7138 60.097 45.7343C59.8248 45.4842 59.5653 45.2205 59.3194 44.9444C59.0808 44.5494 59.0829 44.1421 59.268 44.1216C59.4532 44.101 59.9304 44.4918 60.1937 44.7572C60.1937 44.7572 60.7574 44.7202 60.9096 44.8621C60.9475 44.8998 60.9873 44.9355 61.0289 44.9691L61.3313 45.0205C61.3313 45.0205 61.2696 45.0205 61.537 45.1337C61.798 45.231 62.0396 45.3737 62.2508 45.5554C62.3331 45.6644 64.1659 48.1967 64.1659 48.1967L65.1719 49.1491L64.349 50.4718L63.2176 49.9328Z" fill="#E48780"/>
<path d="M63.2177 49.9329C63.2177 49.9329 61.1914 49.6202 60.9034 49.5071C60.778 49.4598 59.4635 47.9416 59.4059 47.6043C59.34 47.1661 60.5661 47.8902 60.5661 47.8902L61.319 48.2728C61.319 48.2728 60.3377 45.8228 60.0641 45.6788C59.2146 44.9136 59.2413 44.7223 59.2413 44.7223L61.4321 46.4646L62.2776 46.0183C62.2776 46.0183 62.1768 45.4402 62.257 45.5472C62.3372 45.6542 64.1722 48.1885 64.1722 48.1885L65.1781 49.1409L64.3552 50.4636L63.2177 49.9329Z" fill="url(#paint18_linear_424_7048)"/>
<path d="M60.2019 44.749L60.9116 45.5224L61.6172 46.5695C61.6172 46.5695 61.2798 45.6747 61.2058 45.5409C60.8854 45.2594 60.5503 44.9951 60.2019 44.749Z" fill="url(#paint19_linear_424_7048)"/>
<path d="M61.0371 44.967C61.0371 44.967 61.2428 45.146 61.3662 45.29C61.4897 45.434 61.9834 46.2939 61.9834 46.2939C61.9834 46.2939 61.6069 45.471 61.5246 45.325C61.383 45.1795 61.2183 45.0586 61.0371 44.967Z" fill="url(#paint20_linear_424_7048)"/>
<path d="M65.867 49.3527L65.0133 48.6944C65.0045 48.6874 64.9943 48.6824 64.9833 48.6798C64.9723 48.6772 64.9609 48.6771 64.9499 48.6795C64.9389 48.6818 64.9285 48.6866 64.9196 48.6935C64.9106 48.7003 64.9033 48.7091 64.8981 48.7191L63.9807 50.4491C63.9734 50.464 63.9715 50.4809 63.9753 50.497C63.979 50.5131 63.9882 50.5274 64.0013 50.5376L64.9578 51.3234C64.9666 51.3308 64.977 51.336 64.9881 51.3386C64.9993 51.3413 65.0109 51.3413 65.0221 51.3387C65.0332 51.3361 65.0436 51.331 65.0525 51.3237C65.0613 51.3164 65.0683 51.3071 65.073 51.2967L65.8958 49.4453C65.9025 49.4289 65.9033 49.4107 65.8981 49.3938C65.8928 49.3769 65.8818 49.3624 65.867 49.3527Z" fill="#58A9BF"/>
<path d="M65.8671 49.3527C65.8671 49.3527 65.4742 49.9328 65.1389 49.9328C64.5506 49.9328 64.4868 50.1221 64.5218 49.3856L63.9746 50.4492C63.9673 50.464 63.9654 50.4809 63.9692 50.497C63.9729 50.5131 63.9821 50.5275 63.9951 50.5376L64.9517 51.3234C64.9605 51.3308 64.9709 51.336 64.982 51.3386C64.9932 51.3413 65.0048 51.3413 65.016 51.3388C65.0271 51.3362 65.0375 51.331 65.0464 51.3237C65.0552 51.3164 65.0622 51.3071 65.0669 51.2967L65.8897 49.4453C65.8971 49.4296 65.8988 49.4119 65.8947 49.395C65.8906 49.3782 65.8808 49.3633 65.8671 49.3527Z" fill="url(#paint21_linear_424_7048)"/>
<path d="M73.5114 53.796C72.8408 53.2982 72.1969 52.5926 69.7099 50.9655C67.4574 49.4926 66.0668 49.0009 65.8261 48.9228C65.8157 48.9191 65.8043 48.9194 65.7941 48.9236C65.7838 48.9277 65.7755 48.9355 65.7706 48.9454L64.6906 51.274C64.6851 51.2815 64.6821 51.2905 64.6821 51.2997C64.6821 51.309 64.6851 51.318 64.6906 51.3255C64.956 51.6505 67.8194 54.7875 70.2797 56.6081C72.8634 58.5212 73.6348 59.0231 74.7354 57.7333C75.8359 56.4435 74.684 54.6641 73.5114 53.796Z" fill="#58A9BF"/>
<path d="M70.946 51.8027C69.0062 50.5006 68.856 50.3792 67.9653 49.8896C67.9653 49.8896 67.6382 49.6983 67.8254 50.12C67.9739 50.4687 68.2223 50.7658 68.5392 50.9737C69.0597 51.3069 72.061 53.2365 73.2417 53.6849C74.1901 54.0429 71.2402 52.0393 70.946 51.8027Z" fill="url(#paint22_linear_424_7048)"/>
<path d="M65.2707 50.2414L64.6906 51.2699C64.6851 51.2774 64.6821 51.2864 64.6821 51.2957C64.6821 51.3049 64.6851 51.3139 64.6906 51.3214C64.956 51.6464 67.8194 54.7835 70.2797 56.604C72.8634 58.5171 73.6348 59.019 74.7354 57.7292C73.3201 57.7169 65.2707 50.2414 65.2707 50.2414Z" fill="url(#paint23_linear_424_7048)"/>
<path d="M81.7622 67.3995L80.7151 65.8217C80.7151 65.8217 78.9625 66.2002 77.9833 66.3401C77.1954 66.4553 76.2944 66.7659 76.2492 66.9675C76.2039 67.1691 76.5269 69.0925 76.6915 69.3805C76.805 69.5619 76.9759 69.7001 77.1769 69.7734C77.383 69.8868 77.596 69.9871 77.8146 70.0737C78.0203 70.1396 78.4523 70.6908 78.8185 70.7052C79.1846 70.7196 79.9972 69.977 80.1618 69.8372C80.3263 69.6973 80.532 69.4422 80.3922 69.1707C80.2992 69.0243 80.1931 68.8866 80.0754 68.7592L80.098 68.57C80.098 68.57 81.5462 67.7718 81.7622 67.3995Z" fill="#E48780"/>
<path d="M81.7624 67.3996L78.7734 69.1481C78.7734 69.1481 77.712 68.2389 77.3335 67.9488C76.955 67.6588 76.2905 66.7742 76.2453 66.9758C76.2 67.1774 76.523 69.1008 76.6875 69.3888C76.8011 69.5702 76.972 69.7084 77.173 69.7817C77.3791 69.8951 77.5921 69.9954 77.8107 70.082C78.0164 70.1478 78.4484 70.6991 78.8146 70.7135C79.1807 70.7279 79.9933 69.9853 80.1579 69.8454C80.3224 69.7056 80.5281 69.4505 80.3883 69.179C80.2953 69.033 80.19 68.8954 80.0735 68.7675L80.0941 68.5783C80.0941 68.5783 81.5464 67.7719 81.7624 67.3996Z" fill="url(#paint24_linear_424_7048)"/>
<path d="M78.1747 69.0843C78.0977 69.6128 78.2146 70.1513 78.5038 70.6004C78.5038 70.6004 77.8209 69.9051 78.1747 69.0843Z" fill="url(#paint25_linear_424_7048)"/>
<path d="M80.1064 68.5782C79.8721 68.9134 79.5525 69.1797 79.1807 69.3497C79.3247 69.4193 79.4434 69.5322 79.5201 69.6726C79.5201 69.6726 79.5386 69.3929 79.4378 69.3805C79.4378 69.3805 80.1187 68.9609 80.1064 68.5782Z" fill="url(#paint26_linear_424_7048)"/>
<path d="M77.8148 70.082C77.8148 70.082 77.7243 69.6274 77.6646 69.2118C77.6335 68.93 77.6545 68.6448 77.7263 68.3705C77.7263 68.3705 77.5 68.9403 77.5206 69.2036C77.5918 69.5047 77.6903 69.7987 77.8148 70.082Z" fill="url(#paint27_linear_424_7048)"/>
<path d="M77.0124 68.1483C76.931 68.4032 76.8812 68.6671 76.8643 68.9341C76.8591 69.1152 76.8715 69.2964 76.9014 69.4751C76.8115 69.2736 76.7425 69.0634 76.6956 68.8477C76.6895 68.7017 77.0124 68.1483 77.0124 68.1483Z" fill="url(#paint28_linear_424_7048)"/>
<path d="M79.6641 47.5137C76.3172 50.2866 74.077 52.8374 73.1534 53.6973C72.5075 54.298 73.3365 58.6549 74.4535 58.081C75.7906 57.363 80.8593 54.1128 82.869 51.7225C84.8788 49.3322 82.6057 45.0781 79.6641 47.5137Z" fill="#58A9BF"/>
<path d="M79.6639 47.5137C79.3306 49.76 75.2164 55.02 74.5211 55.9128C73.8258 56.8056 73.4926 58.5603 74.84 57.8423C76.1874 57.1244 80.8632 54.1128 82.8729 51.7225C84.8827 49.3322 82.6055 45.0781 79.6639 47.5137Z" fill="url(#paint29_linear_424_7048)"/>
<path d="M89.5628 67.0725C90.1367 65.2869 96.8943 64.9681 97.7233 67.5827C98.5523 70.1972 99.8915 83.6506 99.5088 85.1173C99.1262 86.584 94.8557 90.8545 93.3252 86.2631C91.7947 81.6717 88.9889 68.8581 89.5628 67.0725Z" fill="#055275"/>
<path d="M89.5629 67.0725C90.1368 65.2869 96.8943 64.9681 97.7234 67.5827C98.5524 70.1972 99.8915 83.6506 99.5089 85.1173L96.703 79.3142L92.2926 82.6899C90.8095 76.9939 89.1041 68.496 89.5629 67.0725Z" fill="url(#paint30_linear_424_7048)"/>
<path d="M108.435 107.112C108.435 107.112 109.297 106.06 109.463 105.104L108.188 102.553L106.912 104.053L107.529 105.303L108.435 107.112Z" fill="#BBBDBF"/>
<path d="M107.223 105.168L108.69 103C108.69 103 104.929 90.982 100.975 86.6457C97.0217 82.3093 93.1976 84.1278 93.644 86.8699C94.0904 89.612 100.465 96.1782 101.872 98.0276C103.279 99.8769 107.223 105.168 107.223 105.168Z" fill="#055275"/>
<path d="M107.223 105.168C107.223 105.168 103.812 97.9679 99.8607 93.6274C95.909 89.287 100.465 96.1782 101.868 98.0275C103.271 99.8769 107.223 105.168 107.223 105.168Z" fill="url(#paint31_linear_424_7048)"/>
<path d="M107.223 105.168L108.69 103C108.69 103 104.929 90.982 100.976 86.6457C97.0218 82.3093 101.375 88.4971 102.442 91.1096C103.718 94.2343 104.61 95.8285 105.631 99.0787C106.651 102.329 107.223 105.168 107.223 105.168Z" fill="url(#paint32_linear_424_7048)"/>
<path d="M85.6727 68.9857C85.4444 69.2984 83.2515 81.7397 82.7414 83.9696C82.2312 86.1994 82.1037 88.2442 84.9733 89.067C87.843 89.8899 88.925 86.7075 90.2642 84.7965C91.6033 82.8855 95.8533 74.2025 96.7028 72.491C101.169 63.5036 91.1569 61.5267 85.6727 68.9857Z" fill="#055275"/>
<path d="M86.3744 75.1713C87.0121 71.664 85.3129 70.4914 84.9447 72.4107C84.1877 76.3521 82.4865 84.6072 82.9967 84.6709C83.5068 84.7347 85.7408 78.6766 86.3744 75.1713Z" fill="url(#paint33_linear_424_7048)"/>
<path d="M90.4884 67.7575C90.4884 67.7575 90.077 69.2715 89.5154 71.4233C88.2482 76.206 86.1521 84.1505 85.8003 85.6912C85.2922 87.9211 88.0323 88.7769 90.2642 84.7985C91.6034 82.8854 95.8533 74.2044 96.7029 72.4929C99.4018 67.0581 96.8099 64.1864 93.1256 64.4127C90.7168 64.5629 90.4884 67.7575 90.4884 67.7575Z" fill="url(#paint34_linear_424_7048)"/>
<path d="M77.387 42.3133L78.4793 44.6337L81.1288 44.0392C81.1288 44.0392 80.0756 41.474 80.0427 41.3362C80.0097 41.1984 77.387 42.3133 77.387 42.3133Z" fill="#E48780"/>
<path d="M77.387 42.3133L78.4793 44.6337L80.5199 42.3154C80.5199 42.3154 80.0756 41.474 80.0427 41.3362C80.0097 41.1984 77.387 42.3133 77.387 42.3133Z" fill="url(#paint35_linear_424_7048)"/>
<path d="M80.2545 36.356C80.2545 36.356 77.895 35.1382 76.8356 36.8333C75.7762 38.5283 75.2064 41.1367 75.8667 42.6898C76.3152 43.7739 77.2655 43.3069 77.7181 43.1403C78.5409 42.8215 81.534 41.7353 82.0112 39.8798C82.4885 38.0243 80.2545 36.356 80.2545 36.356Z" fill="#E48780"/>
<path d="M80.2546 36.356C80.2546 36.356 77.8951 35.1382 76.8357 36.8333C76.6588 37.1189 76.5008 37.4157 76.3625 37.7219C76.3625 37.7219 77.4837 37.5162 78.0288 38.8204C78.4793 39.9045 77.2553 43.3172 77.7099 43.1403C78.5328 42.8215 81.5258 41.7353 82.0031 39.8798C82.4803 38.0243 80.2546 36.356 80.2546 36.356Z" fill="url(#paint36_linear_424_7048)"/>
<path d="M79.1024 37.8659C79.1024 37.8659 77.1729 38.3432 76.3192 36.4259C75.4655 34.5087 76.3994 33.6838 77.5534 33.7044C78.7075 33.725 81.3303 35.85 80.5342 37.9173C79.7381 39.9847 79.1024 37.8659 79.1024 37.8659Z" fill="#23255A"/>
<path d="M79.1024 37.8659C79.1024 37.8659 77.1728 38.3431 76.3191 36.4259C75.4654 34.5087 77.6398 36.9711 78.7876 36.9916C79.9355 37.0122 81.322 35.8499 80.5259 37.9173C79.7298 39.9847 79.1024 37.8659 79.1024 37.8659Z" fill="url(#paint37_linear_424_7048)"/>
<path d="M78.6704 37.7466C78.6704 37.7466 78.0348 38.3041 78.2343 39.02C78.3669 39.5811 78.4468 40.1534 78.4729 40.7294C78.4729 40.7294 80.1803 38.9788 80.0219 37.6273C79.8635 36.2758 78.6704 37.7466 78.6704 37.7466Z" fill="#23255A"/>
<path d="M78.6704 37.7466C78.6704 37.7466 78.0348 38.3041 78.2343 39.02C78.3669 39.5811 78.4468 40.1534 78.4729 40.7294C78.4729 40.7294 80.1803 38.9788 80.0219 37.6273C79.8635 36.2758 78.6704 37.7466 78.6704 37.7466Z" fill="url(#paint38_linear_424_7048)"/>
<path d="M79.9356 36.1174C79.9356 36.1174 81.8446 35.5887 82.6921 36.0125C83.5396 36.4362 84.6525 38.4501 84.2822 39.6165C83.9119 40.7829 80.6782 42.9881 80.6782 42.9881C80.6782 42.9881 79.5386 42.2249 79.6723 38.8533C79.7155 37.7302 79.9356 36.1174 79.9356 36.1174Z" fill="#23255A"/>
<path d="M81.6369 40.5422C84.2 39.8551 82.6922 36.0166 82.6922 36.0166C83.5397 36.4404 84.6526 38.4543 84.2823 39.6206C83.912 40.787 80.6783 42.9881 80.6783 42.9881C80.6783 42.9881 79.5387 42.2249 79.6724 38.8533C79.7156 37.7302 79.0738 41.2313 81.6369 40.5422Z" fill="url(#paint39_linear_424_7048)"/>
<path d="M78.5059 40.1719C78.5059 40.1719 78.9831 38.767 79.6722 38.8472C80.3614 38.9274 80.3079 40.3571 79.9088 40.9927C79.5097 41.6284 79.0119 41.7621 78.6067 41.5111C77.9998 41.1367 78.5059 40.1719 78.5059 40.1719Z" fill="#E48780"/>
<path d="M79.0611 41.0729C79.5384 40.8878 79.5651 40.3838 79.5919 39.7482C79.6186 39.1125 79.0611 39.7749 78.9295 39.9539C78.7978 40.1328 79.1146 40.2974 79.1146 40.2974C79.1146 40.2974 78.5839 41.2581 79.0611 41.0729Z" fill="url(#paint40_linear_424_7048)"/>
<path d="M80.6782 36.1709C80.6247 36.0392 80.6514 35.1423 80.4396 35.1115C80.2277 35.0806 80.1475 36.0906 80.3861 36.3457C80.6247 36.6008 80.6782 36.1709 80.6782 36.1709Z" fill="#23255A"/>
<path d="M83.1242 45.3949C83.1242 45.3949 79.6272 45.7137 78.6603 47.4993C77.6935 49.2849 80.5117 58.9758 81.785 62.5469C83.0584 66.118 83.4431 68.7943 83.7619 69.5595C84.0808 70.3248 83.9841 70.5716 84.9406 70.5079C85.8972 70.4441 94.9833 68.1566 96.6393 67.8336C98.2953 67.5107 98.8712 67.3872 98.8712 67.3872C98.8712 67.3872 96.9911 62.2548 95.1685 59.2905C94.035 57.435 87.5223 47.1805 83.1242 45.3949Z" fill="#58A9BF"/>
<path d="M83.124 45.3949C83.124 45.3949 79.6269 45.7137 78.6601 47.4993C78.4544 47.8819 78.4235 48.6286 78.512 49.5975C78.6293 51.2617 80.0157 49.0627 80.0157 49.0627C80.0157 49.0627 80.5979 46.9089 83.124 45.3949Z" fill="url(#paint41_linear_424_7048)"/>
<path d="M78.5594 50.0542C78.9955 53.6953 80.8222 59.8562 81.7849 62.5469C83.0603 66.116 83.443 68.7943 83.7618 69.5595C84.0807 70.3248 84.0169 63.2484 83.1241 60.0599C82.2313 56.8714 82.6139 60.0599 81.9125 58.5932C81.211 57.1265 78.4175 48.8611 78.5594 50.0542Z" fill="url(#paint42_linear_424_7048)"/>
<path d="M83.5068 47.308C83.5068 47.308 82.5503 49.8588 83.3155 55.0221C84.0808 60.1854 85.2286 60.4425 86.502 64.0136C87.7753 67.5847 83.4431 68.7943 83.7619 69.5678C84.0808 70.3412 83.9841 70.5798 84.9406 70.5161C85.8972 70.4523 94.9833 68.1648 96.6393 67.8419C98.2953 67.5189 98.8712 67.3955 98.8712 67.3955C98.8712 67.3955 96.9911 62.263 95.1685 59.2988C94.035 57.435 87.9049 49.0935 83.5068 47.308Z" fill="url(#paint43_linear_424_7048)"/>
<path d="M83.5068 47.308C83.5068 47.308 82.5503 49.8588 83.3155 55.0221C84.0808 60.1854 92.8152 61.2715 94.0906 64.8426C95.366 68.4137 83.9841 70.5716 84.9406 70.5078C85.8972 70.4441 94.9833 68.1566 96.6393 67.8336C98.2953 67.5107 98.8712 67.3872 98.8712 67.3872C98.8712 67.3872 96.9911 62.2548 95.1685 59.2905C94.035 57.435 87.9049 49.0935 83.5068 47.308Z" fill="url(#paint44_linear_424_7048)"/>
<path d="M109.352 104.841C109.352 104.841 108.94 106.659 108.157 106.634C108.157 106.634 108.447 109.926 108.568 110.891C108.69 111.855 108.733 113.23 109.076 113.371C109.311 113.463 109.558 113.522 109.809 113.546C109.868 113.556 109.928 113.544 109.979 113.513C110.03 113.481 110.068 113.433 110.086 113.376C110.475 112.16 112.318 106.381 112.318 106.153C112.318 105.925 110.109 104.701 109.352 104.841Z" fill="#242459"/>
<path d="M110.739 106.873C110.165 108.332 109.879 109.981 109.591 110.866C109.303 111.751 109.704 113.54 109.815 113.54C109.874 113.55 109.935 113.538 109.986 113.507C110.037 113.475 110.075 113.427 110.093 113.369C110.481 112.154 112.325 106.375 112.325 106.147C112.325 105.919 111.312 105.415 110.739 106.873Z" fill="url(#paint45_linear_424_7048)"/>
<path d="M97.2295 105.104L98.8546 107.782L100.768 106.682L98.4247 103.24L97.2295 105.104Z" fill="#BBBDBF"/>
<path d="M97.596 106.157C98.3862 105.754 99.0986 105.215 99.7004 104.563C99.7004 104.563 95.3661 94.6889 93.8356 91.7473C92.3051 88.8057 88.9253 85.3086 87.1398 84.7985C85.3542 84.2883 83.2519 84.9898 82.7417 86.7095C82.2316 88.4292 86.5021 93.2778 88.2959 95.1909C90.0896 97.104 97.596 106.157 97.596 106.157Z" fill="#055275"/>
<path d="M97.5959 106.157C97.5959 106.157 97.888 106.009 98.0361 105.915C98.1842 105.82 98.4167 105.666 98.4167 105.666C98.4167 105.666 94.2181 99.9695 92.3688 97.2953C90.5195 94.6211 86.502 93.2799 88.2876 95.193C90.0731 97.1061 97.5959 106.157 97.5959 106.157Z" fill="url(#paint46_linear_424_7048)"/>
<path d="M98.9351 105.264C98.9351 105.264 98.5998 105.711 99.7003 104.563C99.7003 104.563 95.366 94.689 93.8355 91.7473C92.3051 88.8057 88.9253 85.3087 87.1397 84.7985C85.3542 84.2883 86.7571 85.8805 86.7571 85.8805L92.6877 95.3185L98.9351 105.264Z" fill="url(#paint47_linear_424_7048)"/>
<path d="M102.403 108.286C102.403 108.286 96.7894 114.314 96.5672 114.474C96.345 114.634 95.1169 114.122 95.5386 112.974C95.9604 111.827 98.0915 107.607 98.3466 107.272C98.6017 106.937 99.225 106.007 100.231 105.912C100.245 105.912 101.519 106.505 102.403 108.286Z" fill="#242459"/>
<path d="M96.5734 114.474L102.403 108.286C102.403 108.286 101.766 107.001 99.5233 109.582C97.6842 111.695 95.4893 114.314 96.5734 114.474Z" fill="url(#paint48_linear_424_7048)"/>
<path d="M87.8306 61.8331C87.8306 61.8331 82.4822 54.4892 81.5709 52.8909C80.6596 51.2925 79.053 47.4211 82.1715 47.6577C85.2901 47.8942 87.8306 51.1547 89.4104 54.2239C90.9903 57.2931 93.5719 60.3129 91.4675 61.8619C89.3631 63.4109 87.8306 61.8331 87.8306 61.8331Z" fill="#58A9BF"/>
<path d="M86.0451 59.3604C84.3995 57.073 82.1367 53.8804 81.571 52.8909C80.9435 51.7924 81.5483 50.8194 83.3668 53.7446C87.2465 59.9858 87.0552 60.7675 86.0451 59.3604Z" fill="url(#paint49_linear_424_7048)"/>
<path d="M81.6883 64.9373L80.3923 65.575C80.3923 65.575 80.8387 67.3914 81.571 67.8707L82.7827 67.2639L81.6883 64.9373Z" fill="#58A9BF"/>
<path d="M81.6883 64.9373L80.3923 65.575C80.3923 65.575 80.8387 67.3914 81.571 67.8707L82.7827 67.2639L81.6883 64.9373Z" fill="url(#paint50_linear_424_7048)"/>
<path d="M91.157 59.056C88.958 58.912 88.1927 59.2947 85.7057 61.3518C83.2187 63.4088 81.355 64.9846 81.355 64.9846C81.355 64.9846 82.0708 67.1363 82.5501 67.6156C82.5501 67.6156 86.0904 66.7578 88.7214 65.3199C92.7348 63.1209 93.3519 59.2 91.157 59.056Z" fill="#58A9BF"/>
<path d="M83.8398 64.5546C81.6408 64.4107 88.2872 59.2062 85.8002 61.2633C83.3132 63.3204 81.4495 64.8982 81.4495 64.8982C81.4495 64.8982 86.0409 64.6986 83.8398 64.5546Z" fill="url(#paint51_linear_424_7048)"/>
<path d="M91.157 59.056C91.2846 61.2715 86.22 64.1988 84.5908 64.7151C83.5411 65.0208 82.4407 65.1124 81.355 64.9846C81.355 64.9846 82.0708 67.1363 82.5501 67.6156C82.5501 67.6156 86.0904 66.7578 88.7214 65.3199C92.7348 63.1208 93.3519 59.2 91.157 59.056Z" fill="url(#paint52_linear_424_7048)"/>
<path d="M78.6601 47.4993C78.6601 47.4993 77.3539 45.7775 77.4814 45.1398C77.609 44.5021 81.8795 42.9881 82.2621 42.9881C82.6447 42.9881 83.2186 45.5224 83.2186 45.5224L78.6601 47.4993Z" fill="#58A9BF"/>
<path d="M78.6602 47.4993C78.6602 47.4993 79.4501 46.7299 80.9497 45.543C82.4493 44.3561 81.8795 42.9881 82.2621 42.9881C82.6447 42.9881 83.2187 45.5224 83.2187 45.5224L78.6602 47.4993Z" fill="url(#paint53_linear_424_7048)"/>
<defs>
<linearGradient id="paint0_linear_424_7048" x1="53.2036" y1="59.6011" x2="24.2686" y2="97.5976" gradientUnits="userSpaceOnUse">
<stop stop-color="#222E51" stop-opacity="0"/>
<stop offset="1" stop-color="#231F20"/>
</linearGradient>
<linearGradient id="paint1_linear_424_7048" x1="13098.4" y1="13008.9" x2="-20739.7" y2="28737.1" gradientUnits="userSpaceOnUse">
<stop stop-color="#222E51" stop-opacity="0"/>
<stop offset="1" stop-color="#231F20"/>
</linearGradient>
<linearGradient id="paint2_linear_424_7048" x1="23.2689" y1="44.9916" x2="-16.8032" y2="80.9495" gradientUnits="userSpaceOnUse">
<stop stop-color="white" stop-opacity="0"/>
<stop offset="1" stop-color="white"/>
</linearGradient>
<linearGradient id="paint3_linear_424_7048" x1="422.644" y1="964.859" x2="487.925" y2="1508.81" gradientUnits="userSpaceOnUse">
<stop stop-color="#222E51" stop-opacity="0"/>
<stop offset="1" stop-color="#231F20"/>
</linearGradient>
<linearGradient id="paint4_linear_424_7048" x1="344.129" y1="716.685" x2="375.86" y2="980.907" gradientUnits="userSpaceOnUse">
<stop stop-color="#222E51" stop-opacity="0"/>
<stop offset="1" stop-color="#231F20"/>
</linearGradient>
<linearGradient id="paint5_linear_424_7048" x1="226.923" y1="346.856" x2="238.101" y2="406.069" gradientUnits="userSpaceOnUse">
<stop stop-color="#222E51" stop-opacity="0"/>
<stop offset="1" stop-color="#231F20"/>
</linearGradient>
<linearGradient id="paint6_linear_424_7048" x1="1770.58" y1="496.022" x2="561.604" y2="2548.2" gradientUnits="userSpaceOnUse">
<stop stop-color="white" stop-opacity="0"/>
<stop offset="1" stop-color="white"/>
</linearGradient>
<linearGradient id="paint7_linear_424_7048" x1="541.715" y1="292.697" x2="579.234" y2="605.473" gradientUnits="userSpaceOnUse">
<stop stop-color="#222E51" stop-opacity="0"/>
<stop offset="1" stop-color="#231F20"/>
</linearGradient>
<linearGradient id="paint8_linear_424_7048" x1="411.713" y1="227.399" x2="429.958" y2="379.343" gradientUnits="userSpaceOnUse">
<stop stop-color="#222E51" stop-opacity="0"/>
<stop offset="1" stop-color="#231F20"/>
</linearGradient>
<linearGradient id="paint9_linear_424_7048" x1="203.167" y1="87.8026" x2="209.592" y2="121.85" gradientUnits="userSpaceOnUse">
<stop stop-color="#222E51" stop-opacity="0"/>
<stop offset="1" stop-color="#231F20"/>
</linearGradient>
<linearGradient id="paint10_linear_424_7048" x1="3202.46" y1="461.009" x2="2904.12" y2="1855.56" gradientUnits="userSpaceOnUse">
<stop stop-color="white" stop-opacity="0"/>
<stop offset="1" stop-color="white"/>
</linearGradient>
<linearGradient id="paint11_linear_424_7048" x1="1283.84" y1="327.44" x2="1315.75" y2="593.109" gradientUnits="userSpaceOnUse">
<stop stop-color="#222E51" stop-opacity="0"/>
<stop offset="1" stop-color="#231F20"/>
</linearGradient>
<linearGradient id="paint12_linear_424_7048" x1="938.492" y1="250.22" x2="954.002" y2="379.323" gradientUnits="userSpaceOnUse">
<stop stop-color="#222E51" stop-opacity="0"/>
<stop offset="1" stop-color="#231F20"/>
</linearGradient>
<linearGradient id="paint13_linear_424_7048" x1="393.729" y1="106.421" x2="399.203" y2="135.372" gradientUnits="userSpaceOnUse">
<stop stop-color="#222E51" stop-opacity="0"/>
<stop offset="1" stop-color="#231F20"/>
</linearGradient>
<linearGradient id="paint14_linear_424_7048" x1="3964.55" y1="4724.95" x2="4610.81" y2="6612" gradientUnits="userSpaceOnUse">
<stop stop-color="white" stop-opacity="0"/>
<stop offset="1" stop-color="white"/>
</linearGradient>
<linearGradient id="paint15_linear_424_7048" x1="1858.33" y1="1405.37" x2="1978.79" y2="1805.36" gradientUnits="userSpaceOnUse">
<stop stop-color="#222E51" stop-opacity="0"/>
<stop offset="1" stop-color="#231F20"/>
</linearGradient>
<linearGradient id="paint16_linear_424_7048" x1="1405.39" y1="1029.81" x2="1464.35" y2="1227.11" gradientUnits="userSpaceOnUse">
<stop stop-color="#222E51" stop-opacity="0"/>
<stop offset="1" stop-color="#231F20"/>
</linearGradient>
<linearGradient id="paint17_linear_424_7048" x1="595.232" y1="362.913" x2="603.233" y2="390.847" gradientUnits="userSpaceOnUse">
<stop stop-color="#222E51" stop-opacity="0"/>
<stop offset="1" stop-color="#231F20"/>
</linearGradient>
<linearGradient id="paint18_linear_424_7048" x1="1853.36" y1="1304.95" x2="1804.89" y2="1693.07" gradientUnits="userSpaceOnUse">
<stop stop-color="#222E51" stop-opacity="0"/>
<stop offset="1" stop-color="#231F20"/>
</linearGradient>
<linearGradient id="paint19_linear_424_7048" x1="481.46" y1="432.284" x2="460.438" y2="467.662" gradientUnits="userSpaceOnUse">
<stop stop-color="#222E51" stop-opacity="0"/>
<stop offset="1" stop-color="#231F20"/>
</linearGradient>
<linearGradient id="paint20_linear_424_7048" x1="344.925" y1="328.841" x2="332.764" y2="347.594" gradientUnits="userSpaceOnUse">
<stop stop-color="#222E51" stop-opacity="0"/>
<stop offset="1" stop-color="#231F20"/>
</linearGradient>
<linearGradient id="paint21_linear_424_7048" x1="673.522" y1="519.303" x2="654.415" y2="562.086" gradientUnits="userSpaceOnUse">
<stop stop-color="#222E51" stop-opacity="0"/>
<stop offset="1" stop-color="#231F20"/>
</linearGradient>
<linearGradient id="paint22_linear_424_7048" x1="1983.09" y1="1065.31" x2="2026.23" y2="852.481" gradientUnits="userSpaceOnUse">
<stop stop-color="white" stop-opacity="0"/>
<stop offset="1" stop-color="white"/>
</linearGradient>
<linearGradient id="paint23_linear_424_7048" x1="3518.68" y1="2109.69" x2="3221.65" y2="2768.78" gradientUnits="userSpaceOnUse">
<stop stop-color="#222E51" stop-opacity="0"/>
<stop offset="1" stop-color="#231F20"/>
</linearGradient>
<linearGradient id="paint24_linear_424_7048" x1="2386.32" y1="829.131" x2="2415.11" y2="1005.08" gradientUnits="userSpaceOnUse">
<stop stop-color="#222E51" stop-opacity="0"/>
<stop offset="1" stop-color="#231F20"/>
</linearGradient>
<linearGradient id="paint25_linear_424_7048" x1="336.8" y1="529.805" x2="337.143" y2="556.416" gradientUnits="userSpaceOnUse">
<stop stop-color="#222E51" stop-opacity="0"/>
<stop offset="1" stop-color="#231F20"/>
</linearGradient>
<linearGradient id="paint26_linear_424_7048" x1="499.694" y1="353.406" x2="501.396" y2="365.864" gradientUnits="userSpaceOnUse">
<stop stop-color="#222E51" stop-opacity="0"/>
<stop offset="1" stop-color="#231F20"/>
</linearGradient>
<linearGradient id="paint27_linear_424_7048" x1="296.965" y1="596.309" x2="293.694" y2="628.361" gradientUnits="userSpaceOnUse">
<stop stop-color="#222E51" stop-opacity="0"/>
<stop offset="1" stop-color="#231F20"/>
</linearGradient>
<linearGradient id="paint28_linear_424_7048" x1="277.642" y1="469.272" x2="277.213" y2="488.665" gradientUnits="userSpaceOnUse">
<stop stop-color="#222E51" stop-opacity="0"/>
<stop offset="1" stop-color="#231F20"/>
</linearGradient>
<linearGradient id="paint29_linear_424_7048" x1="3747.46" y1="2830.64" x2="4289.49" y2="3550.74" gradientUnits="userSpaceOnUse">
<stop stop-color="#222E51" stop-opacity="0"/>
<stop offset="1" stop-color="#231F20"/>
</linearGradient>
<linearGradient id="paint30_linear_424_7048" x1="4528.78" y1="7706.2" x2="5762.61" y2="6776.32" gradientUnits="userSpaceOnUse">
<stop stop-color="#222E51" stop-opacity="0"/>
<stop offset="1" stop-color="#231F20"/>
</linearGradient>
<linearGradient id="paint31_linear_424_7048" x1="4509.86" y1="6103.61" x2="5117.9" y2="7087.1" gradientUnits="userSpaceOnUse">
<stop stop-color="white" stop-opacity="0"/>
<stop offset="1" stop-color="white"/>
</linearGradient>
<linearGradient id="paint32_linear_424_7048" x1="4668.11" y1="9398.57" x2="5682.35" y2="9147.24" gradientUnits="userSpaceOnUse">
<stop stop-color="#222E51" stop-opacity="0"/>
<stop offset="1" stop-color="#231F20"/>
</linearGradient>
<linearGradient id="paint33_linear_424_7048" x1="1641.66" y1="4958.29" x2="1081.68" y2="4990.95" gradientUnits="userSpaceOnUse">
<stop stop-color="white" stop-opacity="0"/>
<stop offset="1" stop-color="white"/>
</linearGradient>
<linearGradient id="paint34_linear_424_7048" x1="5092.31" y1="8274.49" x2="6232.27" y2="8532.77" gradientUnits="userSpaceOnUse">
<stop stop-color="#222E51" stop-opacity="0"/>
<stop offset="1" stop-color="#231F20"/>
</linearGradient>
<linearGradient id="paint35_linear_424_7048" x1="79.4297" y1="45.5841" x2="76.9385" y2="28.465" gradientUnits="userSpaceOnUse">
<stop stop-color="#222E51" stop-opacity="0"/>
<stop offset="0.76" stop-color="#23232C" stop-opacity="0.76"/>
<stop offset="1" stop-color="#231F20"/>
</linearGradient>
<linearGradient id="paint36_linear_424_7048" x1="2227.05" y1="1491.42" x2="2469.32" y2="1047.21" gradientUnits="userSpaceOnUse">
<stop stop-color="#222E51" stop-opacity="0"/>
<stop offset="0.76" stop-color="#23232C" stop-opacity="0.76"/>
<stop offset="1" stop-color="#231F20"/>
</linearGradient>
<linearGradient id="paint37_linear_424_7048" x1="1811.07" y1="522.695" x2="1836.4" y2="625.722" gradientUnits="userSpaceOnUse">
<stop stop-color="#222E51" stop-opacity="0"/>
<stop offset="1" stop-color="#231F20"/>
</linearGradient>
<linearGradient id="paint38_linear_424_7048" x1="816.205" y1="671.034" x2="757.019" y2="690.815" gradientUnits="userSpaceOnUse">
<stop stop-color="#222E51" stop-opacity="0"/>
<stop offset="1" stop-color="#231F20"/>
</linearGradient>
<linearGradient id="paint39_linear_424_7048" x1="1881.46" y1="1165.33" x2="2104.54" y2="1418.39" gradientUnits="userSpaceOnUse">
<stop stop-color="#222E51" stop-opacity="0"/>
<stop offset="1" stop-color="#231F20"/>
</linearGradient>
<linearGradient id="paint40_linear_424_7048" x1="357.265" y1="355.126" x2="378.534" y2="346.312" gradientUnits="userSpaceOnUse">
<stop stop-color="#222E51" stop-opacity="0"/>
<stop offset="0.76" stop-color="#23232C" stop-opacity="0.76"/>
<stop offset="1" stop-color="#231F20"/>
</linearGradient>
<linearGradient id="paint41_linear_424_7048" x1="1910.39" y1="1195.77" x2="1883.38" y2="937.861" gradientUnits="userSpaceOnUse">
<stop stop-color="#222E51" stop-opacity="0"/>
<stop offset="1" stop-color="#231F20"/>
</linearGradient>
<linearGradient id="paint42_linear_424_7048" x1="2280.6" y1="5576.5" x2="1900.93" y2="5616" gradientUnits="userSpaceOnUse">
<stop stop-color="white" stop-opacity="0"/>
<stop offset="1" stop-color="white"/>
</linearGradient>
<linearGradient id="paint43_linear_424_7048" x1="6172.57" y1="6296.88" x2="9939.8" y2="7753.11" gradientUnits="userSpaceOnUse">
<stop stop-color="#222E51" stop-opacity="0"/>
<stop offset="1" stop-color="#231F20"/>
</linearGradient>
<linearGradient id="paint44_linear_424_7048" x1="76.7267" y1="56.0588" x2="118.679" y2="72.0609" gradientUnits="userSpaceOnUse">
<stop stop-color="#222E51" stop-opacity="0"/>
<stop offset="0.42" stop-color="#222D4D" stop-opacity="0.07"/>
<stop offset="0.68" stop-color="#222941" stop-opacity="0.32"/>
<stop offset="0.9" stop-color="#23232D" stop-opacity="0.73"/>
<stop offset="1" stop-color="#231F20"/>
</linearGradient>
<linearGradient id="paint45_linear_424_7048" x1="1701.16" y1="4184.59" x2="1602.28" y2="4180.65" gradientUnits="userSpaceOnUse">
<stop stop-color="#222E51" stop-opacity="0"/>
<stop offset="1" stop-color="#231F20"/>
</linearGradient>
<linearGradient id="paint46_linear_424_7048" x1="4611.13" y1="5465.86" x2="5935.35" y2="6801.67" gradientUnits="userSpaceOnUse">
<stop stop-color="white" stop-opacity="0"/>
<stop offset="1" stop-color="white"/>
</linearGradient>
<linearGradient id="paint47_linear_424_7048" x1="90.1533" y1="97.1822" x2="105.39" y2="83.9859" gradientUnits="userSpaceOnUse">
<stop stop-color="#222E51" stop-opacity="0"/>
<stop offset="0.08" stop-color="#222D4D" stop-opacity="0.08"/>
<stop offset="1" stop-color="#231F20"/>
</linearGradient>
<linearGradient id="paint48_linear_424_7048" x1="3087.89" y1="3679.03" x2="3008.44" y2="3550.74" gradientUnits="userSpaceOnUse">
<stop stop-color="#222E51" stop-opacity="0"/>
<stop offset="1" stop-color="#231F20"/>
</linearGradient>
<linearGradient id="paint49_linear_424_7048" x1="2238.27" y1="2189.42" x2="2681.42" y2="2122.6" gradientUnits="userSpaceOnUse">
<stop stop-color="white" stop-opacity="0"/>
<stop offset="1" stop-color="white"/>
</linearGradient>
<linearGradient id="paint50_linear_424_7048" x1="1019.77" y1="1003.92" x2="1094.14" y2="978.308" gradientUnits="userSpaceOnUse">
<stop stop-color="#222E51" stop-opacity="0"/>
<stop offset="1" stop-color="#231F20"/>
</linearGradient>
<linearGradient id="paint51_linear_424_7048" x1="2106.18" y1="1351.29" x2="2044.79" y2="1162.67" gradientUnits="userSpaceOnUse">
<stop stop-color="white" stop-opacity="0"/>
<stop offset="1" stop-color="white"/>
</linearGradient>
<linearGradient id="paint52_linear_424_7048" x1="4707.97" y1="2533.11" x2="4904.18" y2="3492.02" gradientUnits="userSpaceOnUse">
<stop stop-color="#222E51" stop-opacity="0"/>
<stop offset="1" stop-color="#231F20"/>
</linearGradient>
<linearGradient id="paint53_linear_424_7048" x1="1843.85" y1="1010.5" x2="2080.43" y2="1124.12" gradientUnits="userSpaceOnUse">
<stop stop-color="#222E51" stop-opacity="0"/>
<stop offset="1" stop-color="#231F20"/>
</linearGradient>
</defs>
</svg>
