<svg width="124" height="125" viewBox="0 0 124 125" fill="none" xmlns="http://www.w3.org/2000/svg">
<path d="M89.0842 101.393C89.0379 101.825 88.7602 102.234 88.0968 102.25C87.0785 102.273 87.1865 101.833 85.1346 101.108C83.0826 100.383 81.2544 100.329 80.4752 99.8813C79.6961 99.4416 79.0944 99.1253 79.0867 98.2922C79.079 97.8833 79.1561 97.5285 79.2873 97.2354C79.8041 96.032 81.1387 95.7003 81.1387 95.7003C81.1387 95.7003 83.1906 95.9317 85.1886 97.2585C87.0014 98.4619 88.8065 100.174 89.0147 100.745C89.0687 100.93 89.1073 101.17 89.0842 101.393Z" fill="url(#paint0_linear_424_7062)"/>
<path d="M89.0841 101.393C88.7909 101.293 88.4129 100.953 87.9732 100.56C87.117 99.7809 85.5896 98.7935 83.1442 98.377C81.3545 98.0761 79.9197 97.5207 79.2717 97.243C79.7886 96.0396 81.1231 95.7079 81.1231 95.7079C81.1231 95.7079 83.1751 95.9393 85.173 97.2661C86.9858 98.4695 88.7909 100.182 88.9992 100.753C89.0686 100.93 89.1072 101.169 89.0841 101.393Z" fill="url(#paint1_linear_424_7062)"/>
<path d="M81.0386 99.9893C81.7884 99.9893 82.3963 99.4263 82.3963 98.7319C82.3963 98.0374 81.7884 97.4745 81.0386 97.4745C80.2888 97.4745 79.6809 98.0374 79.6809 98.7319C79.6809 99.4263 80.2888 99.9893 81.0386 99.9893Z" fill="#161440"/>
<path d="M82.0104 99.2718L81.4396 100.267L80.9999 101.031C80.9999 101.031 78.2922 101.509 78.7936 99.2487L79.9662 98.4079L80.483 98.0299C80.483 98.0299 81.3779 97.8216 81.7636 98.3462C82.1647 98.8707 82.0104 99.2718 82.0104 99.2718Z" fill="url(#paint2_linear_424_7062)"/>
<path d="M81.4396 100.259L80.9999 101.023C80.9999 101.023 78.2922 101.501 78.7936 99.241L79.9662 98.4001C80.3133 98.5853 80.969 99.0558 81.3701 100.09C81.401 100.144 81.4241 100.205 81.4396 100.259Z" fill="url(#paint3_linear_424_7062)"/>
<path d="M81.1849 101.455C81.1849 101.455 77.7907 106.022 75.839 107.657C73.9259 109.262 71.118 110.234 69.9455 108.768C69.9223 108.737 69.8915 108.706 69.8683 108.668C68.7421 107.071 69.3592 104.379 72.7534 101.995C76.1476 99.6113 78.8398 98.7936 78.8398 98.7936C78.8398 98.7936 79.9969 99.079 80.6603 99.8041C80.7375 99.889 80.8069 99.9815 80.8686 100.082C81.4549 101.023 81.1849 101.455 81.1849 101.455Z" fill="url(#paint4_linear_424_7062)"/>
<path d="M81.185 101.455C81.185 101.455 77.7908 106.022 75.8391 107.657C73.926 109.262 71.1181 110.234 69.9456 108.768C71.1335 109.007 73.2009 108.513 75.3377 106.878C77.4359 105.273 79.781 101.37 80.6681 99.8118C80.7453 99.8967 80.8147 99.9893 80.8764 100.09C81.455 101.023 81.185 101.455 81.185 101.455Z" fill="url(#paint5_linear_424_7062)"/>
<path d="M76.7878 99.5264C76.7878 99.5264 77.9681 99.4879 79.2949 100.606C80.6063 101.71 80.2977 102.697 80.2977 102.697L81.316 101.347C81.316 101.347 81.6246 100.699 80.7066 99.6807C79.7809 98.6624 78.8475 98.6547 78.8475 98.6547L76.7878 99.5264Z" fill="url(#paint6_linear_424_7062)"/>
<path d="M65.2244 103.522C65.2167 103.561 65.209 103.6 65.2013 103.638C65.0084 104.502 64.5764 104.633 63.6276 103.954C62.6788 103.276 62.3625 103.114 60.8737 102.358C59.3849 101.602 58.706 101.231 58.706 101.231C58.706 101.231 58.0272 100.182 58.1198 99.2411C58.22 98.2999 58.8295 97.9065 58.8295 97.9065C58.8295 97.9065 58.8989 97.8448 59.0377 97.7677C59.1997 97.6674 59.4466 97.5439 59.7706 97.4591C60.3568 97.3048 61.2902 97.3048 61.2902 97.3048C61.2902 97.3048 61.7068 97.4668 62.1388 98.0917C62.5708 98.7088 63.0182 99.781 63.6353 100.329C64.8156 101.355 65.3479 102.658 65.2244 103.522Z" fill="url(#paint7_linear_424_7062)"/>
<path d="M65.2247 103.522C64.8698 103.492 64.4224 103.252 63.9827 102.62C63.435 101.833 62.1468 100.738 60.442 99.6654C59.3157 98.9557 59.0688 98.1997 59.0303 97.7754C59.1923 97.6751 59.4391 97.5517 59.7631 97.4668C60.3494 97.3126 61.2828 97.3126 61.2828 97.3126C61.2828 97.3126 61.6993 97.4746 62.1313 98.0994C62.5633 98.7165 63.0107 99.7888 63.6279 100.336C64.8158 101.355 65.3481 102.658 65.2247 103.522Z" fill="url(#paint8_linear_424_7062)"/>
<path d="M59.6163 100.514L58.6212 101.085L57.8575 101.517C57.8575 101.517 55.281 100.56 56.8546 98.8631L58.2894 98.7242L58.9297 98.6625C58.9297 98.6625 59.8091 98.9325 59.8708 99.5805C59.948 100.244 59.6163 100.514 59.6163 100.514Z" fill="url(#paint9_linear_424_7062)"/>
<path d="M58.6212 101.085L57.8575 101.517C57.8575 101.517 55.281 100.56 56.8546 98.8631L58.2894 98.7242C58.4977 99.0559 58.8217 99.7965 58.6443 100.892C58.6443 100.961 58.6289 101.023 58.6212 101.085Z" fill="url(#paint10_linear_424_7062)"/>
<path d="M58.004 101.764C58.004 101.764 52.0179 103.661 48.4462 104.849C46.3403 105.543 44.7589 105.636 43.7021 105.366C42.5912 105.081 42.0667 104.402 42.1284 103.6C42.2441 102.041 42.7147 101.1 46.8109 99.9739C50.907 98.8399 56.6232 98.5005 56.6232 98.5005C56.6232 98.5005 57.5874 98.7088 58.004 99.673C58.0194 99.7116 58.0349 99.7502 58.0503 99.781C58.4823 100.946 58.004 101.764 58.004 101.764Z" fill="url(#paint11_linear_424_7062)"/>
<path d="M58.1506 101.794L56.5152 102.358C56.5229 102.334 56.7698 101.81 56.5075 100.529C56.4843 100.421 56.4612 100.313 56.4303 100.19C56.0369 98.6316 55.0264 98.5314 55.0264 98.5314L56.5846 98.3385C56.5846 98.3385 57.5412 98.4079 58.1197 99.6499C58.1351 99.673 58.1429 99.6962 58.1506 99.7193C58.6751 100.923 58.1506 101.794 58.1506 101.794Z" fill="url(#paint12_linear_424_7062)"/>
<path d="M58.0041 101.764C58.0041 101.764 52.0179 103.661 48.4463 104.849C46.3404 105.543 44.759 105.636 43.7021 105.366C44.8053 105.119 46.2169 104.749 47.8986 104.186C51.4162 103.005 56.1218 100.73 58.0349 99.781C58.4823 100.946 58.0041 101.764 58.0041 101.764Z" fill="url(#paint13_linear_424_7062)"/>
<path d="M58.1507 101.794L56.5153 102.358C56.523 102.334 56.7698 101.81 56.5076 100.529C57.1787 100.205 57.7418 99.9276 58.1584 99.7194C58.6752 100.923 58.1507 101.794 58.1507 101.794Z" fill="url(#paint14_linear_424_7062)"/>
<path d="M74.5741 106.701C74.5664 106.994 74.551 107.271 74.5124 107.518C74.3504 108.614 73.8336 109.269 72.5608 109.501C72.3679 109.539 72.1596 109.562 71.9359 109.578C70.532 109.678 69.344 109.03 68.1406 107.804C66.7598 106.392 65.3635 104.217 63.6124 101.517C60.3339 96.4717 58.9994 94.1652 57.4489 91.7584C57.0555 91.1489 56.7546 90.5241 56.5309 89.8915C56.3612 89.3901 56.2378 88.881 56.1683 88.3719C55.8058 85.6025 56.986 82.8409 59.4468 81.0049C61.3753 79.5624 63.7359 79.4698 65.6952 79.9635C67.2689 80.3569 68.5726 81.1361 69.182 81.9075C70.1 83.0723 70.5628 83.9208 71.1028 86.0345C71.3574 87.0373 71.6351 88.3333 71.9899 90.0767C73.0853 95.4843 74.173 100.12 74.4353 103.815C74.5124 104.942 74.5896 105.906 74.5741 106.701Z" fill="url(#paint15_linear_424_7062)"/>
<path d="M70.4395 92.2289C70.4395 92.2289 71.3729 98.5313 71.8203 101.077C72.3217 103.931 72.9928 104.641 73.1085 102.967C73.2165 101.301 71.4809 94.142 70.4395 92.2289Z" fill="url(#paint16_linear_424_7062)"/>
<path d="M71.033 91.9744C71.033 91.9744 70.0147 92.3601 68.8576 91.1644C67.7005 89.9687 66.4045 85.7645 66.4045 85.7645L66.744 85.6874C67.0757 86.6671 68.1171 89.3824 68.8113 90.5627C69.413 91.5809 70.4544 91.7198 70.9713 91.6195C71.0098 91.8432 71.033 91.9744 71.033 91.9744Z" fill="#0C435E"/>
<path d="M74.5741 106.701C74.1884 104.78 73.3167 100.876 71.3574 92.6686C69.7683 86.0114 67.0529 81.7763 65.6875 79.9558C67.2612 80.3492 68.5649 81.1284 69.1743 81.8998C70.0922 83.0646 70.5551 83.9131 71.0951 86.0268C71.3496 87.0296 71.6274 88.3256 71.9822 90.069C73.0776 95.4766 74.1653 100.113 74.4276 103.808C74.5124 104.942 74.5896 105.906 74.5741 106.701Z" fill="url(#paint17_linear_424_7062)"/>
<path d="M71.0948 86.0268C68.5723 87.0219 64.8001 88.071 59.647 88.3487C58.4051 88.4182 57.248 88.4182 56.1603 88.3642C55.7977 85.5948 56.978 82.8332 59.4388 80.9972C62.9255 78.3976 67.8163 80.1795 69.1662 81.892C70.0919 83.0646 70.5548 83.9209 71.0948 86.0268Z" fill="url(#paint18_linear_424_7062)"/>
<path d="M72.5606 109.508C72.3678 109.547 72.1595 109.57 71.9358 109.586C68.9196 109.794 66.8908 106.569 63.6123 101.517C60.3338 96.4717 58.9993 94.1652 57.4487 91.7584C57.0553 91.1489 56.7545 90.5241 56.5308 89.8915C57.5799 91.2338 59.4544 93.4323 62.0001 95.6925C66.0191 99.2565 69.4904 100.738 68.9196 101.154C68.3487 101.571 64.862 100.059 64.862 100.059C64.862 100.059 66.8368 103.854 69.961 107.241C70.8713 108.228 71.7584 108.961 72.5606 109.508Z" fill="url(#paint19_linear_424_7062)"/>
<path d="M68.8887 86.1579C68.8887 86.1579 70.5703 90.447 71.8509 95.5228C73.1391 100.599 73.6483 103.252 73.6483 103.252C73.6483 103.252 72.8306 97.3202 71.5038 92.5992C70.1769 87.8782 69.5135 86.0037 69.5135 86.0037L68.8887 86.1579Z" fill="url(#paint20_linear_424_7062)"/>
<path d="M74.5122 107.526C74.3502 108.621 73.8334 109.277 72.5606 109.508C72.3677 109.547 72.1594 109.57 71.9357 109.586C70.5317 109.686 69.3438 109.038 68.1404 107.811C68.2252 106.901 68.6187 105.497 70.1383 104.857C72.3446 103.916 74.0339 105.057 74.5122 107.526Z" fill="url(#paint21_linear_424_7062)"/>
<path d="M58.9145 91.7275C58.9145 91.7275 58.2742 91.7738 57.7574 91.6813C57.2483 91.5887 57.0014 91.1799 56.9397 89.8685C56.878 88.5571 56.986 85.5717 56.986 85.5717L57.2714 85.5949C57.256 86.2968 57.2406 87.8551 57.256 88.7885C57.2791 90.015 57.3254 90.7324 57.4797 91.0487C57.634 91.3727 58.5751 91.2878 58.5751 91.2878C58.5751 91.2878 58.5442 88.5879 58.5519 87.3922C58.5597 86.6825 58.5674 86.0731 58.5674 85.6951L58.9608 85.726C58.9608 85.726 58.9145 86.2968 58.8914 87.6777C58.8682 89.1125 58.9145 91.7275 58.9145 91.7275Z" fill="#0C435E"/>
<path d="M59.4698 88.3564C59.4467 88.4258 59.4158 88.4952 59.3927 88.5647C57.9347 92.2597 57.3099 92.8305 52.5734 98.6084C49.7501 102.057 47.3818 104.116 45.6693 104.965C45.0213 105.289 44.4736 105.435 44.0262 105.428C43.6714 105.42 43.3782 105.312 43.1545 105.111C42.2443 104.278 41.3803 103.445 41.7583 100.506C41.8971 99.4029 42.2134 98.0144 42.7688 96.217C43.9491 92.3831 45.785 88.5801 47.1119 86.0653C48.0761 84.2525 48.7781 83.1031 48.7781 83.1031C51.0538 79.9866 54.178 80.0252 56.8007 80.974C56.9396 81.0203 57.0707 81.0743 57.2019 81.1283C59.8632 82.1928 60.8121 84.7693 59.4698 88.3564Z" fill="url(#paint22_linear_424_7062)"/>
<path d="M46.3171 88.1096C46.3171 88.1096 44.674 94.2655 43.9412 96.7494C43.1235 99.5265 42.3675 100.159 42.4446 98.4851C42.5218 96.8111 45.0597 89.8839 46.3171 88.1096Z" fill="url(#paint23_linear_424_7062)"/>
<path d="M59.4698 88.3565C58.1584 88.395 55.5587 88.3333 52.1028 87.6236C49.912 87.1762 48.2689 86.5899 47.1118 86.0577C48.0761 84.2449 48.7781 83.0955 48.7781 83.0955C51.0537 79.979 54.1779 80.0175 56.8007 80.9664C56.9396 81.0127 57.0707 81.0667 57.2018 81.1206C59.8632 82.1929 60.812 84.7694 59.4698 88.3565Z" fill="url(#paint24_linear_424_7062)"/>
<path d="M59.3926 88.5647C57.9346 92.2598 57.3098 92.8306 52.5733 98.6085C48.6854 103.353 45.6692 105.466 44.0261 105.435C45.0058 104.749 46.1861 103.792 47.5746 102.466C49.0634 101.046 50.3903 98.9556 51.5397 96.6259C50.4211 97.2431 47.4743 98.2382 46.8726 97.4436C46.5023 96.9577 49.2177 96.3637 51.4008 93.98C55.4584 89.5598 56.4998 82.3009 56.8007 80.9741C56.9395 81.0203 57.0707 81.0743 57.2018 81.1283C59.9172 82.216 60.8506 84.8697 59.3926 88.5647Z" fill="url(#paint25_linear_424_7062)"/>
<path d="M45.6769 104.965C45.0289 105.289 44.4812 105.435 44.0338 105.428C43.6789 105.42 43.3858 105.312 43.1621 105.111C42.2518 104.278 41.3879 103.445 41.7658 100.506C42.2673 100.375 43.0387 100.383 43.9566 101.046C45.376 102.064 45.8852 103.723 45.6769 104.965Z" fill="url(#paint26_linear_424_7062)"/>
<path d="M71.8277 83.9826C71.8277 83.9826 68.0324 86.8445 59.5469 86.7905C51.0691 86.7365 45.6538 83.3578 45.6538 83.3578C45.6538 83.3578 47.3278 81.4987 48.4617 78.1585C48.6546 77.5876 48.832 76.9782 48.9863 76.3302C49.5494 73.908 50.0894 71.3161 50.4983 68.9324C50.8454 66.9113 51.1 65.0291 51.1925 63.5248C51.2851 62.0129 51.5165 60.8789 51.8791 60.0766C52.3034 59.1432 52.9051 58.6649 53.6919 58.5801C54.0236 58.5415 54.3784 58.5878 54.7642 58.6727C56.0756 58.9735 57.6261 59.7912 58.8758 59.7603C61.0203 59.7141 61.5371 59.3669 63.2342 58.8964C63.6045 58.7961 65.2553 58.1172 65.7644 58.0015C67.0141 57.7315 67.3458 58.4335 67.4384 59.9378C67.5541 61.874 67.2841 65.1294 68.0787 69.3412C68.6572 72.4269 69.3978 75.4508 70.0612 77.9425C70.5395 79.7167 70.9792 81.2209 71.2955 82.2855C71.6272 83.3655 71.8277 83.9826 71.8277 83.9826Z" fill="url(#paint27_linear_424_7062)"/>
<path d="M70.0688 77.9656C69.7834 77.7264 69.4749 77.387 69.1277 76.9088C67.3072 74.4094 64.3373 68.2227 64.4993 64.5739C64.6304 61.4806 66.3969 60.0226 67.4538 59.9532C67.5695 61.8894 67.2995 65.1448 68.094 69.3567C68.6649 72.45 69.3977 75.4739 70.0688 77.9656Z" fill="url(#paint28_linear_424_7062)"/>
<path d="M49.6728 76.9088C49.2099 77.5413 48.8088 77.9425 48.4617 78.1662C48.6545 77.5953 48.8319 76.9859 48.9862 76.3379C49.5494 73.9157 50.0893 71.3238 50.4982 68.9401C50.8453 66.919 51.0999 65.0368 51.1925 63.5325C51.285 62.0206 51.5164 60.8866 51.879 60.0844C52.9127 60.5086 54.1855 61.9512 54.3012 64.574C54.4632 68.215 51.4933 74.4094 49.6728 76.9088Z" fill="url(#paint29_linear_424_7062)"/>
<path d="M71.8277 83.9826C71.8277 83.9826 71.7506 84.0366 71.5963 84.1368C70.6629 84.7308 66.829 86.8368 59.5469 86.7905C51.0691 86.7365 45.6538 83.3577 45.6538 83.3577C45.6538 83.3577 47.9449 80.8044 48.9863 76.3302C49.264 75.1422 49.534 73.908 49.7886 72.6814C50.0508 71.4086 50.29 70.1435 50.4983 68.9324C51.37 70.1666 54.255 74.0854 57.2558 76.0448C60.8429 78.3898 56.3224 78.9298 54.2936 78.0736C52.2648 77.2173 50.938 79.4004 57.4178 81.5835C62.1234 83.1726 68.1558 82.7792 71.3032 82.3009C71.6272 83.3654 71.8277 83.9826 71.8277 83.9826Z" fill="url(#paint30_linear_424_7062)"/>
<path d="M71.6039 84.1369C70.6704 84.7309 66.8365 86.8368 59.5544 86.7905C51.0767 86.7365 45.6614 83.3578 45.6614 83.3578C45.6614 83.3578 47.9525 80.8044 48.9939 76.3302C49.2716 75.1423 49.5416 73.908 49.7961 72.6815C50.3978 73.3834 51.2001 74.2474 52.0178 74.9185C53.2135 75.9059 49.881 76.5848 50.1433 79.2384C50.4055 81.8921 59.2459 85.3248 64.8695 85.1166C67.6697 85.024 69.9916 84.5689 71.6039 84.1369Z" fill="url(#paint31_linear_424_7062)"/>
<path d="M58.4591 73.6302C61.0588 75.713 62.1002 75.4507 62.4627 76.9087C62.8253 78.3667 60.3259 78.7292 61.0048 79.4621C61.6836 80.1872 69.7988 82.378 68.9117 81.1823C68.0246 79.9866 64.5918 79.6704 65.1164 78.4747C65.6332 77.279 68.4489 74.9879 65.0161 73.7922C61.5833 72.5965 58.9297 71.8637 55.9598 69.1638C52.9898 66.4484 55.8518 71.5474 58.4591 73.6302Z" fill="url(#paint32_linear_424_7062)"/>
<path d="M63.242 58.9118C62.7175 59.9223 60.3647 61.9743 57.657 60.9483C55.4662 60.1152 54.9108 59.1663 54.772 58.688C56.0834 58.9889 57.6339 59.8066 58.8836 59.7757C61.0281 59.7295 61.5372 59.3823 63.242 58.9118Z" fill="url(#paint33_linear_424_7062)"/>
<path d="M57.8499 59.7295C57.8499 59.7295 57.0707 60.1075 56.3302 61.3881C55.9522 62.036 55.6899 62.6378 55.5279 63.0697C55.4122 63.3629 55.6745 63.6637 55.9753 63.5943C56.8933 63.3937 58.4516 63.0929 58.9376 63.17C59.4081 63.2472 60.5807 63.6252 61.3135 63.8643C61.5989 63.9569 61.8766 63.71 61.8226 63.4169C61.6992 62.7766 61.4601 61.7815 61.0281 60.9869C60.3261 59.7064 59.5084 58.9658 57.8499 59.7295Z" fill="url(#paint34_linear_424_7062)"/>
<path d="M58.976 59.3207C57.8343 59.3592 57.0783 60.4392 56.5538 61.5577C56.0369 62.6763 55.9829 63.0157 55.9829 63.0157L58.8217 62.252L61.969 63.3243C61.969 63.3243 61.4985 59.2435 58.976 59.3207Z" fill="url(#paint35_linear_424_7062)"/>
<path d="M59.0299 61.6195C59.7116 61.6195 60.2642 61.2119 60.2642 60.7092C60.2642 60.2065 59.7116 59.799 59.0299 59.799C58.3482 59.799 57.7957 60.2065 57.7957 60.7092C57.7957 61.2119 58.3482 61.6195 59.0299 61.6195Z" fill="url(#paint36_linear_424_7062)"/>
<path d="M73.7254 67.3742C73.7254 67.3742 73.8025 68.7396 71.8354 70.5138C69.8683 72.288 67.6852 72.2649 67.6852 72.2649C67.6852 72.2649 67.6004 70.4367 69.8066 68.6393C72.3754 66.541 73.7254 67.3742 73.7254 67.3742Z" fill="url(#paint37_linear_424_7062)"/>
<path d="M66.3044 64.1111C66.1192 65.0985 66.3892 66.6567 67.3535 68.9478C67.986 70.4598 68.4875 71.5089 68.9426 72.3189C69.5674 73.4374 70.1228 74.124 70.8557 74.9725C71.3648 75.5665 71.9202 75.8133 72.4371 75.8596C73.2085 75.9368 73.8796 75.5665 74.1805 75.2425C74.6819 74.7025 74.8747 73.4683 73.6096 70.722C73.4399 70.3595 73.2239 69.9352 72.9694 69.4646C72.2828 68.1995 71.3262 66.595 70.3466 64.8979C68.9966 62.576 68.0092 62.3523 67.0218 62.954C66.6592 63.1854 66.4124 63.5634 66.3044 64.1111Z" fill="url(#paint38_linear_424_7062)"/>
<path d="M66.3044 64.1111C66.1192 65.0985 66.3892 66.6567 67.3535 68.9478C67.986 70.4598 68.4875 71.5089 68.9426 72.3189C69.5674 73.4374 70.1228 74.124 70.8557 74.9725C71.3648 75.5665 71.9202 75.8133 72.4371 75.8596C72.0128 75.5511 71.5268 75.0651 71.0408 74.2937C69.4517 71.7943 69.0892 68.2844 69.0892 68.2844C68.85 67.3124 67.1529 65.1525 66.3044 64.1111Z" fill="url(#paint39_linear_424_7062)"/>
<path d="M67.3537 68.9477C67.9863 70.4597 68.4877 71.5088 68.9428 72.3188C69.3131 71.7171 69.9997 70.8531 71.0951 70.2514C71.8896 69.8194 72.5144 69.588 72.9696 69.4723C72.283 68.2072 71.3265 66.6026 70.3468 64.9055C68.9968 62.5836 68.0094 62.3599 67.022 62.9616C66.0346 63.5633 65.8495 65.3684 67.3537 68.9477Z" fill="url(#paint40_linear_424_7062)"/>
<path d="M64.6999 65.4147C65.8879 68.778 67.6853 72.2571 67.6853 72.2571C67.6853 72.2571 68.2793 70.6526 69.4209 69.3258C69.6215 69.0943 69.8452 68.8629 70.0766 68.6546C71.6503 67.2815 73.5634 67.2507 73.5634 67.2507C73.5634 67.2507 71.2106 62.9076 69.4595 59.9994C67.7084 57.0835 65.6873 58.094 65.6873 58.094C64.9622 58.6263 64.4762 59.2974 64.2062 60.0997C63.7511 61.496 63.9439 63.2856 64.6999 65.4147Z" fill="url(#paint41_linear_424_7062)"/>
<path d="M67.6006 58.7189C67.5929 59.2975 68.7115 61.226 70.3083 63.1468C71.9051 65.0676 72.5454 65.7156 72.5454 65.7156C72.5454 65.7156 70.5628 61.9511 69.614 60.524C68.6652 59.1046 67.6083 58.1404 67.6006 58.7189Z" fill="url(#paint42_linear_424_7062)"/>
<path d="M64.7001 65.4148C65.8881 68.7781 67.6854 72.2572 67.6854 72.2572C67.6854 72.2572 68.2794 70.6526 69.4211 69.3258C68.7731 68.8167 68.0557 68.1533 67.3229 67.297C65.2941 64.9519 64.461 61.3726 64.2141 60.092C63.7513 61.496 63.9441 63.2857 64.7001 65.4148Z" fill="url(#paint43_linear_424_7062)"/>
<path d="M72.9155 66.0705C72.9155 66.0705 71.7121 65.5999 69.3979 67.4436C67.1376 69.241 66.9602 70.8763 66.9602 70.8763L67.6853 72.2649C67.6853 72.2649 68.2793 70.4135 70.3081 68.9324C72.3369 67.4513 73.7255 67.3741 73.7255 67.3741L72.9155 66.0705Z" fill="url(#paint44_linear_424_7062)"/>
<path d="M44.6355 66.2942C44.6355 66.2942 44.3038 67.621 45.9006 69.727C47.4974 71.8329 49.6497 72.2264 49.6497 72.2264C49.6497 72.2264 50.0739 70.4444 48.2457 68.269C46.1166 65.7234 44.6355 66.2942 44.6355 66.2942Z" fill="url(#paint45_linear_424_7062)"/>
<path d="M52.3651 63.494C52.3651 64.4969 51.8097 65.978 50.4366 68.0531C49.5341 69.4185 48.8475 70.3519 48.2458 71.0693C47.4204 72.049 46.7493 72.6198 45.8699 73.3218C45.2605 73.8078 44.6665 73.9466 44.1496 73.9004C43.3782 73.8309 42.7842 73.3449 42.5528 72.9669C42.1594 72.3421 42.198 71.0924 43.9568 68.6316C44.1882 68.3076 44.4813 67.9296 44.8208 67.5131C45.731 66.3945 46.9653 64.9983 48.2458 63.5172C50.0046 61.4884 51.0152 61.4498 51.8714 62.2289C52.1877 62.5144 52.3574 62.9232 52.3651 63.494Z" fill="url(#paint46_linear_424_7062)"/>
<path d="M52.3652 63.4941C52.3652 64.4969 51.8097 65.978 50.4366 68.0531C49.5341 69.4185 48.8475 70.3519 48.2458 71.0693C47.4204 72.049 46.7493 72.6198 45.8699 73.3218C45.2605 73.8078 44.6665 73.9467 44.1497 73.9004C44.6279 73.6767 45.1911 73.2833 45.8159 72.6198C47.8447 70.4599 48.863 67.0811 48.863 67.0811C49.2641 66.1632 51.3315 64.3503 52.3652 63.4941Z" fill="url(#paint47_linear_424_7062)"/>
<path d="M50.4288 68.0454C49.5263 69.4108 48.8397 70.3442 48.238 71.0616C47.9835 70.4059 47.4743 69.4262 46.5101 68.6316C45.8081 68.0531 45.2373 67.7137 44.813 67.5131C45.7233 66.3945 46.9575 64.9983 48.238 63.5172C49.9969 61.4884 51.0074 61.4498 51.8637 62.2289C52.7354 63.0158 52.5811 64.8054 50.4288 68.0454Z" fill="url(#paint48_linear_424_7062)"/>
<path d="M53.8618 66.0551C52.0644 69.1407 49.6499 72.2186 49.6499 72.2186C49.6499 72.2186 49.3722 70.5293 48.4928 69.0173C48.3385 68.7473 48.161 68.485 47.9682 68.2382C46.6799 66.6028 44.8054 66.2094 44.8054 66.2094C44.8054 66.2094 47.9296 62.3832 50.1899 59.8452C52.4501 57.3073 54.2475 58.6727 54.2475 58.6727C54.8646 59.3284 55.2117 60.0767 55.3274 60.9175C55.528 62.3832 55.0035 64.1034 53.8618 66.0551Z" fill="url(#paint49_linear_424_7062)"/>
<path d="M52.2649 58.935C52.1646 59.5059 50.7066 61.1953 48.7781 62.7766C46.8496 64.358 46.1013 64.8826 46.1013 64.8826C46.1013 64.8826 48.755 61.5501 49.9506 60.3313C51.1463 59.1125 52.3729 58.3642 52.2649 58.935Z" fill="url(#paint50_linear_424_7062)"/>
<path d="M53.8617 66.055C52.0643 69.1407 49.6498 72.2186 49.6498 72.2186C49.6498 72.2186 49.3721 70.5292 48.4927 69.0173C49.2255 68.6315 50.0509 68.1147 50.938 67.4204C53.368 65.4919 54.8568 62.1363 55.3351 60.9252C55.5279 62.3831 55.0034 64.1034 53.8617 66.055Z" fill="url(#paint51_linear_424_7062)"/>
<path d="M45.6693 65.1603C45.6693 65.1603 46.9344 64.9288 48.8706 67.1736C50.7529 69.3645 50.6294 70.9998 50.6294 70.9998L49.6575 72.2264C49.6575 72.2264 49.426 70.2979 47.7058 68.4619C45.9856 66.6259 44.6433 66.2942 44.6433 66.2942L45.6693 65.1603Z" fill="url(#paint52_linear_424_7062)"/>
<path d="M70.8172 74.4634C70.9406 75.0805 71.3186 75.6359 72.0746 75.9908C73.44 76.6233 74.7205 75.3736 75.2451 74.4557C75.7696 73.5377 76.4099 72.504 77.0193 70.1281C77.5979 67.8524 78.377 63.7254 78.5158 62.1363C78.5236 62.0668 78.5236 62.0051 78.5313 61.9511C78.6161 60.5163 78.5621 59.9609 78.0299 59.7989C77.4976 59.6369 76.9113 59.8606 76.6645 60.4314C76.4099 61.0023 76.5102 61.0023 75.6616 63.3319C74.8131 65.6616 73.2934 68.6392 71.55 71.5166C71.0332 72.3574 70.6243 73.4914 70.8172 74.4634Z" fill="url(#paint53_linear_424_7062)"/>
<path d="M70.8171 74.4634C70.9406 75.0805 71.3186 75.6359 72.0745 75.9908C73.4399 76.6233 74.7205 75.3737 75.245 74.4557C75.7696 73.5377 76.4098 72.504 77.0193 70.1281C77.5978 67.8524 78.3769 63.7254 78.5158 62.1363C78.3075 62.9386 77.9912 64.1574 77.4975 65.9316C76.3713 70.0124 75.8004 73.7151 73.5402 74.988C72.414 75.6205 71.4728 75.1191 70.8171 74.4634Z" fill="url(#paint54_linear_424_7062)"/>
<path d="M79.6729 58.4489C79.6189 58.9426 79.5186 59.4595 79.3875 59.7989C79.0944 60.5317 78.7549 60.9252 78.7549 60.9252L78.5621 61.0872L78.5389 61.1103C78.5389 61.1103 78.5235 61.118 78.4927 61.1257C78.4927 61.1257 78.4927 61.1257 78.4849 61.1257C78.4618 61.1334 78.4309 61.1412 78.4001 61.1489C78.0529 61.2492 77.1427 61.4652 76.7261 61.064C76.7261 61.064 76.6413 60.9792 76.5178 60.8326C76.2864 60.5549 75.9084 60.0458 75.7233 59.4286C75.5767 58.9349 75.4379 58.6881 75.569 58.0478C75.6462 57.6852 75.8082 57.0373 76.055 56.8213C76.109 56.775 76.163 56.7518 76.2247 56.7518C76.5718 56.7518 76.7724 56.7827 76.7724 56.7827C76.7724 56.7827 76.7724 56.775 76.7801 56.7673C76.8187 56.6901 76.973 56.397 77.2044 56.3661H77.2353C77.5361 56.3507 77.945 56.6361 77.9912 56.667H77.999C77.999 56.667 78.1841 56.4741 78.4464 56.4433C78.4927 56.4356 78.5467 56.4433 78.5929 56.451C78.9092 56.505 79.0249 56.8984 79.0249 56.8984C79.0249 56.8984 79.0326 56.8984 79.0481 56.8907C79.1175 56.8753 79.3026 56.8444 79.4569 56.883C79.5726 56.9138 79.6729 56.9756 79.7038 57.1067C79.7501 57.315 79.7423 57.8627 79.6729 58.4489Z" fill="url(#paint55_linear_424_7062)"/>
<path d="M80.267 59.2126C80.2284 59.5675 79.9122 60.0843 79.4493 60.5009C79.1408 60.7786 78.7705 60.9869 78.5622 61.0949C78.5313 61.1103 78.5082 61.118 78.4851 61.1334C78.4851 61.1334 78.4851 61.1334 78.4773 61.1334C78.4234 61.1566 78.3925 61.172 78.3925 61.172C78.3925 61.172 78.3925 61.1643 78.3925 61.1566C78.3925 61.0254 78.3771 60.0689 78.6471 59.4441C78.9402 58.7729 79.0405 58.2175 79.349 58.2947C79.4416 58.3178 79.5496 58.3718 79.673 58.4489C79.6807 58.4489 79.6807 58.4566 79.6885 58.4566C79.7579 58.5029 79.8273 58.5492 79.8967 58.6109C80.1127 58.7884 80.2902 59.0198 80.267 59.2126Z" fill="url(#paint56_linear_424_7062)"/>
<path d="M76.518 60.8326C76.518 60.8326 76.518 60.8403 76.5103 60.8403C76.2789 60.5626 75.9009 60.0535 75.7157 59.4363C75.5692 58.9426 75.4303 58.6958 75.5614 58.0555C75.6386 57.693 75.8006 57.045 76.0474 56.829C76.0243 57.0295 75.8854 58.2098 76.0937 59.0738C76.3251 60.0303 76.7031 60.5395 76.518 60.8326Z" fill="url(#paint57_linear_424_7062)"/>
<path d="M77.1966 58.0941C77.1966 58.0941 76.9266 57.1453 76.78 56.7827C76.8186 56.7056 76.9729 56.4124 77.2043 56.3816C77.2583 56.4202 77.3123 56.4973 77.3355 56.667C77.374 57.0219 77.1966 58.0941 77.1966 58.0941Z" fill="url(#paint58_linear_424_7062)"/>
<path d="M78.4464 56.4587C78.3924 56.9138 78.1995 57.6466 78.1995 57.6466C78.1995 57.6466 78.0915 57.1067 77.9912 56.6747H77.9989C77.9989 56.6747 78.1841 56.4818 78.4464 56.4587Z" fill="url(#paint59_linear_424_7062)"/>
<path d="M79.4647 56.8984C79.295 57.3072 79.0327 57.8009 79.0327 57.8009C79.0327 57.8009 79.0481 57.3227 79.0481 56.9061C79.1253 56.8907 79.3104 56.8598 79.4647 56.8984Z" fill="url(#paint60_linear_424_7062)"/>
<path d="M79.5496 59.4287C79.5496 59.4287 79.5496 59.4287 79.6113 59.0738C79.6498 58.8578 79.673 58.611 79.6807 58.449C79.7501 58.4953 79.8195 58.5415 79.889 58.6033C79.9121 58.6958 79.9198 58.8038 79.9353 58.9427C79.9815 59.2744 79.5496 59.4287 79.5496 59.4287Z" fill="url(#paint61_linear_424_7062)"/>
<path d="M46.4484 71.8637C46.4098 72.4963 46.1167 73.0902 45.4224 73.5531C44.165 74.3785 42.7147 73.3217 42.0668 72.4885C41.4188 71.6554 40.6397 70.722 39.6985 68.4541C38.796 66.2787 37.446 62.3137 37.0835 60.7554C37.068 60.6937 37.0526 60.632 37.0449 60.5703C36.7595 59.1663 36.7363 58.6032 37.2377 58.3718C37.7469 58.1403 38.3486 58.2715 38.6803 58.8038C39.012 59.3283 38.9117 59.3515 40.0842 61.5345C41.2568 63.7176 43.1776 66.4484 45.3144 69.0558C45.9392 69.804 46.5101 70.8763 46.4484 71.8637Z" fill="url(#paint62_linear_424_7062)"/>
<path d="M46.4484 71.8637C46.4098 72.4963 46.1167 73.0903 45.4224 73.5531C44.165 74.3785 42.7148 73.3217 42.0668 72.4886C41.4188 71.6554 40.6397 70.722 39.6986 68.4541C38.796 66.2787 37.4461 62.3137 37.0835 60.7554C37.3998 61.5191 37.8935 62.6762 38.634 64.3733C40.3234 68.2535 41.4188 71.8406 43.841 72.774C45.0367 73.2368 45.893 72.612 46.4484 71.8637Z" fill="url(#paint63_linear_424_7062)"/>
<path d="M38.9427 59.4209C38.9427 59.4209 39.4364 58.7035 39.5907 57.6621C39.6756 57.1221 39.7373 56.4356 39.4981 55.7876C39.3362 55.3402 39.1356 54.7616 38.773 54.8156C38.4105 54.8696 38.1559 55.0856 38.1559 55.0856C38.1559 55.0856 37.9245 54.6768 37.6159 54.6999C37.2765 54.7308 37.1839 55.0779 37.1839 55.0779C37.1839 55.0779 36.7519 54.6845 36.2814 54.8542C35.9651 54.9699 35.888 55.3942 35.888 55.3942C35.888 55.3942 35.2014 55.3633 35.1783 55.7567C35.1551 56.1502 35.5331 57.7624 35.942 58.4875C36.3585 59.2127 36.7751 59.5829 36.7751 59.5829L37.0374 59.7372C37.0451 59.7372 38.4799 60.0226 38.9427 59.4209Z" fill="url(#paint64_linear_424_7062)"/>
<path d="M35.7644 56.8984C35.4481 57.0295 34.8387 57.6235 34.939 57.9938C35.0393 58.3641 35.4481 58.8501 35.9958 59.2203C36.5435 59.5906 37.2069 59.768 37.2069 59.768C37.2069 59.768 37.0912 58.6572 36.6824 57.9938C36.2735 57.3304 36.073 56.775 35.7644 56.8984Z" fill="url(#paint65_linear_424_7062)"/>
<path d="M39.0583 59.2667C39.2512 58.9581 39.498 58.3101 39.5983 57.6699C39.6754 57.1607 39.6831 56.7905 39.5906 56.1502C39.5211 55.6642 39.282 55.0934 39.0043 54.9236C39.0583 55.1242 39.1972 56.3662 39.1123 57.2456C39.0197 58.2176 38.8192 58.9967 39.0583 59.2667Z" fill="url(#paint66_linear_424_7062)"/>
<path d="M37.9014 56.4124C37.9014 56.4124 38.0403 55.4327 38.1329 55.0548C38.0866 54.9853 37.8937 54.7153 37.6546 54.7153C37.6083 54.7616 37.562 54.8465 37.562 55.0162C37.5774 55.3787 37.9014 56.4124 37.9014 56.4124Z" fill="url(#paint67_linear_424_7062)"/>
<path d="M36.6824 54.9004C36.7981 55.3401 37.0835 56.0421 37.0835 56.0421C37.0835 56.0421 37.1144 55.4944 37.1606 55.0547C37.1606 55.0547 36.9447 54.8927 36.6824 54.9004Z" fill="url(#paint68_linear_424_7062)"/>
<path d="M35.4868 55.4636C35.7105 55.8493 36.05 56.6901 36.05 56.6901C36.05 56.6901 35.9497 55.8338 35.8957 55.4173C35.8262 55.4096 35.6334 55.4096 35.4868 55.4636Z" fill="url(#paint69_linear_424_7062)"/>
<path d="M35.7181 58.0787C35.7181 58.0787 35.7181 58.0787 35.6024 57.7392C35.5329 57.531 35.4789 57.2841 35.4481 57.1298C35.3864 57.1838 35.3247 57.2455 35.2629 57.3072C35.2552 57.3998 35.2629 57.5078 35.2629 57.6544C35.2707 57.9784 35.7181 58.0787 35.7181 58.0787Z" fill="url(#paint70_linear_424_7062)"/>
<path d="M60.226 58.4258L59.9328 60.4623C59.9328 60.4623 60.0408 61.2954 59.1537 61.4034C58.2666 61.5114 58.2357 60.74 58.2357 60.74L58.228 59.2975L58.2743 57.0141L60.3803 57.2609L60.226 58.4258Z" fill="url(#paint71_linear_424_7062)"/>
<path d="M60.3803 57.2609L60.226 58.4258C59.7863 58.7189 59.1537 59.0506 58.3437 59.2666C58.3052 59.2743 58.2666 59.2898 58.228 59.2975L58.2743 57.0141L60.3803 57.2609Z" fill="url(#paint72_linear_424_7062)"/>
<path d="M62.301 54.9313C62.1236 55.641 61.8613 56.235 61.5527 56.7133C60.7042 58.0401 59.9559 58.5261 59.0842 58.5106C58.0659 58.4875 56.8471 56.8058 56.5077 54.5456C56.4768 54.3373 56.4537 54.129 56.446 53.913C56.3611 51.3365 57.4025 50.056 58.9994 50.0328C62.409 49.9711 62.9644 52.2391 62.301 54.9313Z" fill="url(#paint73_linear_424_7062)"/>
<path d="M62.301 54.9313C62.1236 55.641 61.8613 56.235 61.5527 56.7133C61.4139 56.2736 61.5373 55.4328 61.491 54.8156C61.383 53.4271 61.275 52.8254 61.275 52.8254L60.3802 52.486C60.3802 52.486 59.9559 53.1802 58.3205 53.9825C57.6571 54.3065 57.0323 54.5456 56.5077 54.5379C56.4768 54.3296 56.4537 54.1214 56.446 53.9054C56.3611 51.3289 57.4025 50.0483 58.9994 50.0252C62.409 49.9712 62.9644 52.2391 62.301 54.9313Z" fill="url(#paint74_linear_424_7062)"/>
<path d="M59.0456 54.6382L58.0042 56.1656C58.0042 56.1656 58.1739 56.397 58.4978 56.4973C58.8141 56.6053 59.1381 56.6284 59.1381 56.6284L59.0456 54.6382Z" fill="url(#paint75_linear_424_7062)"/>
<path d="M61.5063 53.5582C61.5218 52.7096 61.5912 52.5631 61.5912 52.5631L56.8933 51.3288C56.8933 51.3288 56.9782 50.056 59.223 49.5854C61.4678 49.1149 63.4117 50.974 63.9671 51.8071C64.5225 52.6402 63.8283 53.913 62.6634 55.5793C61.4986 57.2455 61.3752 56.937 61.3752 56.937C61.3752 56.937 61.4909 54.4067 61.5063 53.5582Z" fill="url(#paint76_linear_424_7062)"/>
<path d="M61.7378 50.5652C61.5681 50.9586 61.2132 51.5063 60.6887 52.0308C59.8015 52.9257 58.4284 53.7588 56.685 53.6431C54.9802 53.5274 54.3631 52.8871 54.2551 52.2854C54.1857 51.9151 54.3168 51.5603 54.5019 51.3597C54.9802 50.8429 55.7285 50.8814 55.7285 50.8814C55.7285 50.8814 53.4683 49.5469 54.178 47.8035C54.2165 47.711 54.2551 47.6261 54.3091 47.5335C55.3736 45.6899 58.1353 48.0504 58.2201 48.1121C58.2047 48.0504 57.603 46.2761 58.6367 45.983C58.6753 45.9676 58.7216 45.9599 58.7678 45.9521C59.9944 45.767 60.8275 48.6984 60.8275 48.6984C60.8275 48.6984 60.7889 47.2018 61.6143 47.387C62.4398 47.5721 62.1929 49.5006 61.7378 50.5652Z" fill="url(#paint77_linear_424_7062)"/>
<path d="M57.9116 50.1254C57.9116 50.1254 57.7264 51.0588 55.7285 50.8737C55.7285 50.8737 53.4683 49.5392 54.178 47.7958C54.3785 48.1121 54.7719 48.5672 55.4971 49.084C56.8933 50.0869 57.9116 50.1254 57.9116 50.1254Z" fill="url(#paint78_linear_424_7062)"/>
<path d="M60.6887 52.0308C59.8016 52.9257 58.4285 53.7588 56.6851 53.6431C54.9803 53.5274 54.3631 52.8871 54.2551 52.2854C54.6717 52.5245 55.3814 52.8408 56.1836 52.8099C57.4719 52.7714 57.8499 52.54 57.8499 52.54C57.8499 52.54 57.1556 52.5168 56.8933 52.4782C56.6311 52.4397 56.2916 52.2622 56.2916 52.2622C56.2916 52.2622 58.4362 52.4782 59.655 52.2468C60.141 52.1465 60.4727 52.0771 60.6887 52.0308Z" fill="url(#paint79_linear_424_7062)"/>
<path d="M59.3848 48.6058L58.22 48.1121C58.2046 48.0503 57.6029 46.2761 58.6366 45.983V45.9984C58.6366 45.9984 58.6366 46.8547 58.868 47.5798C59.084 48.2741 59.3694 48.5903 59.3848 48.6058Z" fill="url(#paint80_linear_424_7062)"/>
<path d="M61.6222 47.6029C61.3831 47.7186 61.6916 48.5749 61.7688 49.1226C61.8459 49.6703 61.8074 49.732 61.8074 49.732C61.8074 49.732 62.1159 49.138 62.0311 48.4823C61.9462 47.8266 61.8768 47.4717 61.6222 47.6029Z" fill="url(#paint81_linear_424_7062)"/>
<path d="M55.1036 47.0012C54.6484 47.0707 54.5636 47.4332 54.741 47.5952C54.9184 47.7572 56.0755 47.4409 56.9704 47.7649C57.8729 48.0812 58.3743 48.3744 58.3743 48.3744C58.3743 48.3744 56.6387 46.7621 55.1036 47.0012Z" fill="url(#paint82_linear_424_7062)"/>
<path d="M61.4061 55.4172C61.4061 55.4172 61.8767 54.2987 62.5555 54.2524C63.2421 54.2061 63.1958 54.9775 62.8872 55.6795C62.5787 56.3815 61.3213 56.7055 61.3213 56.7055L61.4061 55.4172Z" fill="url(#paint83_linear_424_7062)"/>
<path d="M61.8996 55.0778C62.0461 54.8695 62.4318 54.4993 62.671 54.6381C62.9101 54.7847 62.6632 55.5561 62.2621 55.8107C61.8687 56.0729 61.8147 55.6718 61.8147 55.6718C61.8147 55.6718 62.1464 55.5021 62.1387 55.2475C62.131 54.993 61.8996 55.0778 61.8996 55.0778Z" fill="url(#paint84_linear_424_7062)"/>
<path d="M68.2178 34.5275L63.9519 37.8677L66.243 43.5916C66.2738 43.6764 66.2969 43.7613 66.3047 43.8384C66.3895 44.5636 65.5487 45.1344 64.8853 44.6793L58.9763 40.6294L53.8233 44.1624C53.2061 44.5867 52.4347 44.2087 52.2727 43.5839C52.2342 43.4219 52.2264 43.2444 52.2804 43.0516L53.6921 38.0991L49.5111 35.3684C48.9865 35.0212 48.8862 34.3964 49.1177 33.9258C49.2797 33.6018 49.5882 33.355 50.0125 33.3087L55.4278 32.7841L57.7343 26.9986C58.1123 26.0497 59.4468 26.0343 59.8403 26.9754L60.0717 27.5077L62.1159 32.2904L67.7163 32.8381C68.0326 32.869 68.2718 33.0387 68.4106 33.2624C68.6652 33.6558 68.6343 34.1958 68.2178 34.5275Z" fill="url(#paint85_linear_424_7062)"/>
<path d="M54.1932 36.7492L53.6995 38.0992L49.5184 35.3684C48.9939 35.0212 48.8936 34.3964 49.125 33.9258C49.5647 34.3115 50.3053 34.8438 51.4546 35.4378C53.5683 36.5409 54.1932 36.7492 54.1932 36.7492Z" fill="url(#paint86_linear_424_7062)"/>
<path d="M68.2176 34.5276L63.9517 37.8678L63.4348 36.4407C63.4348 36.4407 65.2013 35.5844 66.7673 34.5661C67.7547 33.9259 68.233 33.5942 68.4335 33.2779C68.665 33.6559 68.6341 34.1959 68.2176 34.5276Z" fill="url(#paint87_linear_424_7062)"/>
<path d="M64.8775 44.6792L58.9762 40.6293L53.8232 44.1624C53.2061 44.5866 52.4347 44.2086 52.2727 43.5838C52.4116 43.6609 53.0441 43.8538 54.7104 42.4961C56.6389 40.9379 59.1845 38.6468 59.1845 38.6468C59.1845 38.6468 63.921 42.8355 64.9624 43.5144C65.5641 43.9078 65.9961 43.9464 66.3046 43.8384C66.3818 44.5635 65.5487 45.1343 64.8775 44.6792Z" fill="url(#paint88_linear_424_7062)"/>
<path d="M60.0792 27.5231C59.5855 27.0526 58.9144 26.8674 58.3667 27.9706C57.7187 29.2974 56.7853 32.6144 56.7853 32.6144L55.4353 32.7996L57.7418 27.014C58.1198 26.0652 59.4543 26.0498 59.8478 26.9909L60.0792 27.5231Z" fill="url(#paint89_linear_424_7062)"/>
<path d="M59.1922 26.8366C58.93 27.1837 60.0331 29.6831 60.8276 31.0099C61.6222 32.3367 61.8613 32.3599 61.8613 32.3599C61.8613 32.3599 59.7939 26.042 59.1922 26.8366Z" fill="url(#paint90_linear_424_7062)"/>
<path d="M67.986 33.2162C67.8085 32.8227 65.3169 32.7996 63.5349 32.6684C61.9921 32.5605 61.7761 32.6376 61.7761 32.6376C61.7761 32.6376 68.3948 34.1264 67.986 33.2162Z" fill="url(#paint91_linear_424_7062)"/>
<path d="M49.4028 33.7715C49.5571 33.3626 52.041 33.1698 53.8076 32.9229C55.3427 32.707 55.5587 32.7764 55.5587 32.7764C55.5587 32.7764 49.0557 34.7126 49.4028 33.7715Z" fill="url(#paint92_linear_424_7062)"/>
<path d="M35.2012 45.2192C36.8828 47.5643 39.5211 47.2789 39.5211 47.2789L39.0505 46.4998C38.3639 46.4998 37.1065 46.4226 36.0806 45.0804C34.638 43.1904 35.6254 42.7816 36.5974 42.5502L36.1654 41.7325C36.1654 41.7402 33.0258 42.1876 35.2012 45.2192Z" fill="url(#paint93_linear_424_7062)"/>
<path d="M45.9935 40.5523C46.5489 43.3834 44.5278 45.1113 44.5278 45.1113L44.281 44.2319C44.7515 43.7305 45.5538 42.7585 45.2838 41.1C44.8981 38.7549 43.9184 39.1946 43.0853 39.7423L42.7844 38.8706C42.7921 38.8706 45.2761 36.8958 45.9935 40.5523Z" fill="url(#paint94_linear_424_7062)"/>
<path d="M42.9155 47.171L44.628 51.136L43.7255 51.5217L42.0129 47.5644L42.9155 47.171Z" fill="url(#paint95_linear_424_7062)"/>
<path d="M42.9154 47.171L43.5094 48.5518C43.4168 48.6984 43.3242 48.9143 43.2702 49.2461C43.2008 49.6549 43.7177 50.8969 43.9491 51.4369L43.7177 51.5371L42.0051 47.5721L42.9154 47.171Z" fill="url(#paint96_linear_424_7062)"/>
<path d="M42.6686 37.9294L44.5586 44.3938C44.6666 44.7564 44.6897 45.119 44.6434 45.4738C44.5123 46.5307 43.7717 47.5026 42.7149 47.9578C41.3032 48.5672 39.6061 48.1352 38.8579 46.8546L35.4482 41.0459C35.4482 41.0459 35.8031 40.5754 37.2688 39.7963C37.7008 39.5725 38.2253 39.318 38.8579 39.0403C41.8509 37.7597 42.6686 37.9294 42.6686 37.9294Z" fill="url(#paint97_linear_424_7062)"/>
<path d="M44.6434 45.4739C44.5123 46.5307 43.7717 47.5027 42.7149 47.9579C41.3032 48.5673 39.6061 48.1353 38.8579 46.8547L35.4482 41.046C35.4482 41.046 36.0654 40.4443 36.6208 40.1666C36.6208 40.1666 39.0276 44.8105 40.0613 46.2068C40.6244 46.9704 42.1749 47.0553 43.9569 46.0448C44.2809 45.8673 44.4429 45.7593 44.6434 45.4739Z" fill="url(#paint98_linear_424_7062)"/>
<path d="M40.4393 44.2319C41.2999 44.2319 41.9976 43.5343 41.9976 42.6737C41.9976 41.8131 41.2999 41.1154 40.4393 41.1154C39.5788 41.1154 38.8811 41.8131 38.8811 42.6737C38.8811 43.5343 39.5788 44.2319 40.4393 44.2319Z" fill="url(#paint99_linear_424_7062)"/>
<path d="M40.4392 43.8617C41.0953 43.8617 41.6272 43.3298 41.6272 42.6737C41.6272 42.0176 41.0953 41.4857 40.4392 41.4857C39.7831 41.4857 39.2512 42.0176 39.2512 42.6737C39.2512 43.3298 39.7831 43.8617 40.4392 43.8617Z" fill="url(#paint100_linear_424_7062)"/>
<path d="M40.4933 43.7691C41.0898 43.7691 41.5733 43.2856 41.5733 42.6891C41.5733 42.0927 41.0898 41.6091 40.4933 41.6091C39.8969 41.6091 39.4133 42.0927 39.4133 42.6891C39.4133 43.2856 39.8969 43.7691 40.4933 43.7691Z" fill="url(#paint101_linear_424_7062)"/>
<path d="M47.0885 50.5806L41.6424 52.9334C41.5884 52.81 41.5575 52.6866 41.5498 52.5632C41.5344 52.3857 41.5653 52.216 41.627 52.054C41.735 51.784 41.9432 51.5526 42.2364 51.4215L45.5766 49.9789C45.6614 49.9404 45.7463 49.9172 45.8311 49.9018C46.348 49.8169 46.8726 50.0869 47.0885 50.5806Z" fill="url(#paint102_linear_424_7062)"/>
<path d="M47.0888 50.5806L41.6426 52.9334C41.5886 52.81 41.5578 52.6866 41.55 52.5632C42.414 52.2006 45.5305 50.8815 45.9085 50.4649C46.1631 50.1872 46.0088 50.0098 45.8391 49.9018C46.3482 49.8169 46.8728 50.0869 47.0888 50.5806Z" fill="url(#paint103_linear_424_7062)"/>
<path d="M40.3543 41.6708C40.0997 41.694 39.9532 41.8251 40.0226 42.0025C40.092 42.1799 40.6629 41.9562 40.9946 42.0488C41.3263 42.1491 41.388 42.2339 41.388 42.2339C41.388 42.2339 41.2106 41.5937 40.3543 41.6708Z" fill="url(#paint104_linear_424_7062)"/>
<path d="M43.1699 38.7317C43.1699 38.7317 43.7331 38.4309 44.5199 38.7549C45.3144 39.0789 45.7927 40.2283 45.7927 40.2283C45.7927 40.2283 45.6461 38.994 44.8593 38.5466C44.0725 38.1146 43.1699 38.7317 43.1699 38.7317Z" fill="url(#paint105_linear_424_7062)"/>
<path d="M35.7103 41.9562C35.7103 41.9562 35.1163 42.1877 34.854 43.0054C34.5841 43.823 35.1472 44.9262 35.1472 44.9262C35.1472 44.9262 34.2986 44.0159 34.4761 43.1211C34.6535 42.2339 35.7103 41.9562 35.7103 41.9562Z" fill="url(#paint106_linear_424_7062)"/>
<path d="M36.7751 40.128C36.7751 40.128 38.7808 39.48 40.5473 39.2794C42.3139 39.0866 43.1624 39.8657 43.1624 39.8657L42.6687 37.9295C42.6687 37.9295 42.0902 37.914 40.2696 38.5543C38.4491 39.1946 36.7751 40.128 36.7751 40.128Z" fill="url(#paint107_linear_424_7062)"/>
<path d="M40.7014 43.4374C40.3543 43.4605 39.8529 43.2368 39.9377 43.4837C40.0149 43.7305 40.5471 43.7228 40.8326 43.6379C41.118 43.5531 41.4188 43.1597 41.4188 43.1597C41.4188 43.1597 41.3031 43.4065 40.7014 43.4374Z" fill="url(#paint108_linear_424_7062)"/>
<path d="M78.4156 35.5689C78.4156 35.5689 78.2305 34.2807 78.7782 33.7561C79.3259 33.2393 78.3848 31.6193 78.7782 31.2568C79.1716 30.8942 79.6884 31.2336 79.9739 31.9048C80.2593 32.5836 80.267 33.0773 80.267 33.0773C80.267 33.0773 81.0461 32.059 81.563 32.2673C82.0798 32.4756 81.9795 33.2701 81.9795 33.2701C81.9795 33.2701 82.3961 33.2856 82.6584 33.6481C82.9206 34.0107 82.6584 34.4813 82.6584 34.4813C82.6584 34.4813 83.0981 34.5815 83.2292 34.9518C83.3603 35.3144 82.9669 35.6769 82.9669 35.6769C82.9669 35.6769 83.4375 35.8852 83.2523 36.3249C83.0672 36.7646 81.833 37.752 80.8378 37.9912C79.8427 38.2226 79.403 37.9912 79.403 37.9912C79.403 37.9912 78.431 36.3326 78.4156 35.5689Z" fill="url(#paint109_linear_424_7062)"/>
<path d="M79.5881 33.9876C79.5881 33.9876 79.5264 34.3348 79.8658 34.4505C80.2053 34.5662 80.8378 34.0648 81.2621 33.7331C81.6864 33.4014 81.9178 33.2317 81.9178 33.2317C81.9178 33.2317 80.7298 34.0031 80.2978 33.9568C79.8658 33.9105 80.1975 33.1237 80.1975 33.1237C80.1975 33.1237 79.7347 33.6019 79.5881 33.9876Z" fill="url(#paint110_linear_424_7062)"/>
<path d="M80.1436 34.8824C80.0896 35.0444 80.051 35.4609 80.375 35.6075C80.699 35.7541 81.3778 35.3144 81.833 35.0289C82.2881 34.7435 82.5349 34.5892 82.5349 34.5892C82.5349 34.5892 81.2775 35.2449 80.8533 35.1524C80.429 35.0598 80.7144 34.1341 80.7144 34.1341C80.7144 34.1341 80.267 34.4889 80.1436 34.8824Z" fill="url(#paint111_linear_424_7062)"/>
<path d="M80.8455 35.9084C80.7992 36.0472 80.7683 36.4175 81.0538 36.5487C81.3392 36.6798 81.9409 36.2941 82.342 36.0395C82.7431 35.785 82.9591 35.6538 82.9591 35.6538C82.9591 35.6538 81.856 36.2324 81.478 36.1475C81.1 36.0704 81.3546 35.2527 81.3546 35.2527C81.3546 35.2527 80.9612 35.5612 80.8455 35.9084Z" fill="url(#paint112_linear_424_7062)"/>
<path d="M81.4395 36.8186C81.4009 36.9266 81.3777 37.212 81.6015 37.3123C81.8252 37.4126 82.2186 37.2583 82.5271 37.0655C82.8357 36.8726 83.0671 36.5795 83.0671 36.5795C83.0671 36.5795 82.2186 37.0732 81.9255 37.0115C81.6323 36.9498 81.8329 36.3172 81.8329 36.3172C81.8329 36.3172 81.532 36.5563 81.4395 36.8186Z" fill="url(#paint113_linear_424_7062)"/>
<path d="M76.7955 35.947C76.7955 35.947 76.7415 37.3278 77.3972 38.2072C78.0529 39.0866 78.9092 39.0172 78.9092 39.0172L80.2669 38.1069C80.2669 38.1069 79.642 37.8832 79.0635 36.9344C78.4849 35.9855 78.3846 34.7744 78.3846 34.7744L76.7955 35.947Z" fill="url(#paint114_linear_424_7062)"/>
<path d="M71.3186 23.9901C71.3186 23.9901 71.0872 24.7461 70.6937 25.2938C70.3003 25.8415 70.092 25.9958 70.092 25.9958L71.2646 26.6438C71.2646 26.6438 71.6272 26.0961 71.8354 25.2398C72.0437 24.3835 72.0669 24.1444 72.0669 24.1444L71.3186 23.9901Z" fill="url(#paint115_linear_424_7062)"/>
<path d="M73.8798 48.6752C73.8798 48.6752 73.2549 49.1612 72.6224 49.3772C71.9898 49.5932 71.7275 49.6086 71.7275 49.6086L72.3138 50.812C72.3138 50.812 72.9232 50.5729 73.5866 49.9943C74.2501 49.4081 74.4043 49.2384 74.4043 49.2384L73.8798 48.6752Z" fill="url(#paint116_linear_424_7062)"/>
<path d="M80.2671 46.9704C80.2671 46.9704 80.7531 46.5461 81.0308 46.0833C81.3085 45.6127 81.3625 45.4044 81.3625 45.4044L82.2265 46.0678C82.2265 46.0678 81.941 46.5152 81.3625 46.955C80.7839 47.3947 80.6219 47.4872 80.6219 47.4872L80.2671 46.9704Z" fill="url(#paint117_linear_424_7062)"/>
<path d="M39.907 30.2077C39.907 30.2077 40.2233 30.7631 40.6321 31.1334C41.041 31.496 41.2338 31.5885 41.2338 31.5885L40.4162 32.3137C40.4162 32.3137 40.0304 31.9434 39.7142 31.3031C39.3979 30.6551 39.3362 30.4777 39.3362 30.4777L39.907 30.2077Z" fill="url(#paint118_linear_424_7062)"/>
<path d="M44.1265 56.0113C44.1265 56.0113 44.6356 56.4047 45.1447 56.5898C45.6539 56.775 45.8699 56.7827 45.8699 56.7827L45.3839 57.7624C45.3839 57.7624 44.8902 57.5618 44.3502 57.0835C43.8102 56.6053 43.6868 56.4587 43.6868 56.4587L44.1265 56.0113Z" fill="url(#paint119_linear_424_7062)"/>
<path d="M67.9322 26.8058C67.2919 26.8058 66.775 27.3226 66.775 27.9629C66.775 27.3226 66.2582 26.8058 65.6179 26.8058C66.2582 26.8058 66.775 26.289 66.775 25.6487C66.775 26.289 67.2919 26.8058 67.9322 26.8058Z" fill="#F8B143"/>
<path d="M49.9508 26.2966C49.4803 26.2966 49.0945 26.6823 49.0945 27.1529C49.0945 26.6823 48.7088 26.2966 48.2383 26.2966C48.7088 26.2966 49.0945 25.9109 49.0945 25.4404C49.0945 25.9109 49.4725 26.2966 49.9508 26.2966Z" fill="#F8B143"/>
<path d="M47.1117 36.8959C46.51 36.8959 46.024 37.3818 46.024 37.9835C46.024 37.3818 45.538 36.8959 44.9363 36.8959C45.538 36.8959 46.024 36.4099 46.024 35.8082C46.0317 36.4099 46.5177 36.8959 47.1117 36.8959Z" fill="#F8B143"/>
<path d="M39.691 51.7685C39.2667 51.7685 38.9196 52.1157 38.9196 52.5399C38.9196 52.1157 38.5725 51.7685 38.1482 51.7685C38.5725 51.7685 38.9196 51.4214 38.9196 50.9971C38.9196 51.4214 39.2667 51.7685 39.691 51.7685Z" fill="#F8B143"/>
<path d="M72.1285 43.715C71.3031 43.715 70.6397 44.3784 70.6397 45.2038C70.6397 44.3784 69.9763 43.715 69.1509 43.715C69.9763 43.715 70.6397 43.0516 70.6397 42.2262C70.6397 43.0516 71.3031 43.715 72.1285 43.715Z" fill="#F8B143"/>
<path d="M65.7412 46.7698L67.4074 51.3442L69.228 51.19L65.7412 46.7698Z" fill="#F8BD5B"/>
<path d="M69.8298 31.681L77.1659 25.9031L77.0117 27.4922L69.8298 31.681Z" fill="#F8BD5B"/>
<path d="M46.2556 30.3928L39.4672 23.6353L38.5647 24.2987L46.2556 30.3928Z" fill="#F8BD5B"/>
<path d="M51.4086 45.389L48.7009 50.7194L50.2129 51.19L51.4086 45.389Z" fill="#F8BD5B"/>
<path d="M52.7354 17.7417L55.389 25.9417L53.985 17.4717L52.7354 17.7417Z" fill="#F8BD5B"/>
<path d="M66.0038 15.0958L62.3396 27.23L67.1995 15.5432L66.0038 15.0958Z" fill="#F8BD5B"/>
<defs>
<linearGradient id="paint0_linear_424_7062" x1="82.8219" y1="98.1774" x2="90.731" y2="108.064" gradientUnits="userSpaceOnUse">
<stop offset="0.1179" stop-color="#23255A"/>
<stop offset="1" stop-color="#161541"/>
</linearGradient>
<linearGradient id="paint1_linear_424_7062" x1="91.0087" y1="103.048" x2="85.0248" y2="99.093" gradientUnits="userSpaceOnUse">
<stop offset="0.1179" stop-color="#23255A"/>
<stop offset="1" stop-color="#161541"/>
</linearGradient>
<linearGradient id="paint2_linear_424_7062" x1="78.7379" y1="99.5227" x2="82.0403" y2="99.5227" gradientUnits="userSpaceOnUse">
<stop stop-color="white"/>
<stop offset="1" stop-color="#E3EDF4"/>
</linearGradient>
<linearGradient id="paint3_linear_424_7062" x1="80.1254" y1="99.7367" x2="79.4327" y2="102" gradientUnits="userSpaceOnUse">
<stop stop-color="#BDBEC0"/>
<stop offset="1" stop-color="#E3EDF4"/>
</linearGradient>
<linearGradient id="paint4_linear_424_7062" x1="72.4586" y1="106.38" x2="81.2522" y2="98.7312" gradientUnits="userSpaceOnUse">
<stop stop-color="#1E5D5D"/>
<stop offset="1" stop-color="#0D5475"/>
</linearGradient>
<linearGradient id="paint5_linear_424_7062" x1="69.9397" y1="104.65" x2="81.2465" y2="104.65" gradientUnits="userSpaceOnUse">
<stop stop-color="#1E5869"/>
<stop offset="1" stop-color="#08445E"/>
</linearGradient>
<linearGradient id="paint6_linear_424_7062" x1="76.7859" y1="100.679" x2="81.3636" y2="100.679" gradientUnits="userSpaceOnUse">
<stop stop-color="#4093B0"/>
<stop offset="1" stop-color="#1D586B"/>
</linearGradient>
<linearGradient id="paint7_linear_424_7062" x1="60.987" y1="101.9" x2="64.8375" y2="98.3357" gradientUnits="userSpaceOnUse">
<stop offset="0.1179" stop-color="#23255A"/>
<stop offset="1" stop-color="#161541"/>
</linearGradient>
<linearGradient id="paint8_linear_424_7062" x1="58.6634" y1="103.157" x2="62.1497" y2="100.633" gradientUnits="userSpaceOnUse">
<stop offset="0.1179" stop-color="#23255A"/>
<stop offset="1" stop-color="#161541"/>
</linearGradient>
<linearGradient id="paint9_linear_424_7062" x1="56.6627" y1="99.0811" x2="59.5121" y2="100.751" gradientUnits="userSpaceOnUse">
<stop stop-color="white"/>
<stop offset="1" stop-color="#E3EDF4"/>
</linearGradient>
<linearGradient id="paint10_linear_424_7062" x1="57.7517" y1="99.9672" x2="56.0096" y2="101.57" gradientUnits="userSpaceOnUse">
<stop stop-color="#BDBEC0"/>
<stop offset="1" stop-color="#E3EDF4"/>
</linearGradient>
<linearGradient id="paint11_linear_424_7062" x1="42.1139" y1="102.004" x2="58.2234" y2="102.004" gradientUnits="userSpaceOnUse">
<stop stop-color="#1E5D5D"/>
<stop offset="1" stop-color="#0D5475"/>
</linearGradient>
<linearGradient id="paint12_linear_424_7062" x1="55.0265" y1="100.35" x2="58.3829" y2="100.35" gradientUnits="userSpaceOnUse">
<stop stop-color="#4093B0"/>
<stop offset="1" stop-color="#1D586B"/>
</linearGradient>
<linearGradient id="paint13_linear_424_7062" x1="43.6944" y1="102.644" x2="58.2235" y2="102.644" gradientUnits="userSpaceOnUse">
<stop stop-color="#1E5869"/>
<stop offset="1" stop-color="#08445E"/>
</linearGradient>
<linearGradient id="paint14_linear_424_7062" x1="56.2599" y1="98.6553" x2="57.2941" y2="100.958" gradientUnits="userSpaceOnUse">
<stop stop-color="#4093B0"/>
<stop offset="1" stop-color="#1D586B"/>
</linearGradient>
<linearGradient id="paint15_linear_424_7062" x1="65.4869" y1="113.177" x2="65.2527" y2="87.1875" gradientUnits="userSpaceOnUse">
<stop stop-color="#1E5D5D"/>
<stop offset="1" stop-color="#0D5475"/>
</linearGradient>
<linearGradient id="paint16_linear_424_7062" x1="72.2875" y1="105.917" x2="71.6628" y2="95.5865" gradientUnits="userSpaceOnUse">
<stop stop-color="#4093B0"/>
<stop offset="1" stop-color="#19576D"/>
</linearGradient>
<linearGradient id="paint17_linear_424_7062" x1="65.6916" y1="93.3322" x2="74.5786" y2="93.3322" gradientUnits="userSpaceOnUse">
<stop stop-color="#4093B0"/>
<stop offset="1" stop-color="#1D586B"/>
</linearGradient>
<linearGradient id="paint18_linear_424_7062" x1="65.8724" y1="98.49" x2="64.6236" y2="92.194" gradientUnits="userSpaceOnUse">
<stop stop-color="#1E5869"/>
<stop offset="1" stop-color="#08445E"/>
</linearGradient>
<linearGradient id="paint19_linear_424_7062" x1="65.1012" y1="114.329" x2="64.6329" y2="102.049" gradientUnits="userSpaceOnUse">
<stop stop-color="#1E5869"/>
<stop offset="1" stop-color="#08445E"/>
</linearGradient>
<linearGradient id="paint20_linear_424_7062" x1="77.5031" y1="125.748" x2="74.8431" y2="112.338" gradientUnits="userSpaceOnUse">
<stop stop-color="#1E5869"/>
<stop offset="1" stop-color="#08445E"/>
</linearGradient>
<linearGradient id="paint21_linear_424_7062" x1="71.8901" y1="112.549" x2="70.742" y2="102.599" gradientUnits="userSpaceOnUse">
<stop offset="0.1179" stop-color="#23255A"/>
<stop offset="1" stop-color="#161541"/>
</linearGradient>
<linearGradient id="paint22_linear_424_7062" x1="51.0513" y1="113.307" x2="50.8172" y2="87.3175" gradientUnits="userSpaceOnUse">
<stop stop-color="#1E5D5D"/>
<stop offset="1" stop-color="#0D5475"/>
</linearGradient>
<linearGradient id="paint23_linear_424_7062" x1="42.9207" y1="101.487" x2="44.719" y2="91.296" gradientUnits="userSpaceOnUse">
<stop stop-color="#4093B0"/>
<stop offset="1" stop-color="#19576D"/>
</linearGradient>
<linearGradient id="paint24_linear_424_7062" x1="55.9228" y1="72.7523" x2="53.6853" y2="85.5005" gradientUnits="userSpaceOnUse">
<stop stop-color="#1E5869"/>
<stop offset="1" stop-color="#08445E"/>
</linearGradient>
<linearGradient id="paint25_linear_424_7062" x1="52.7957" y1="114.798" x2="52.3274" y2="102.518" gradientUnits="userSpaceOnUse">
<stop stop-color="#1E5869"/>
<stop offset="1" stop-color="#08445E"/>
</linearGradient>
<linearGradient id="paint26_linear_424_7062" x1="44.2999" y1="108.427" x2="43.1291" y2="98.2803" gradientUnits="userSpaceOnUse">
<stop offset="0.1179" stop-color="#23255A"/>
<stop offset="1" stop-color="#161541"/>
</linearGradient>
<linearGradient id="paint27_linear_424_7062" x1="58.4713" y1="85.4776" x2="63.9348" y2="49.1843" gradientUnits="userSpaceOnUse">
<stop stop-color="#59AAC0"/>
<stop offset="1" stop-color="#69C2C4"/>
</linearGradient>
<linearGradient id="paint28_linear_424_7062" x1="68.293" y1="59.4831" x2="65.5612" y2="91.1715" gradientUnits="userSpaceOnUse">
<stop stop-color="#59AAC0"/>
<stop offset="1" stop-color="#5083C3"/>
</linearGradient>
<linearGradient id="paint29_linear_424_7062" x1="52.5559" y1="58.1265" x2="49.8241" y2="89.8149" gradientUnits="userSpaceOnUse">
<stop stop-color="#59AAC0"/>
<stop offset="1" stop-color="#5083C3"/>
</linearGradient>
<linearGradient id="paint30_linear_424_7062" x1="60.8835" y1="58.8443" x2="58.1518" y2="90.5327" gradientUnits="userSpaceOnUse">
<stop stop-color="#59AAC0"/>
<stop offset="1" stop-color="#5083C3"/>
</linearGradient>
<linearGradient id="paint31_linear_424_7062" x1="63.9937" y1="71.9452" x2="52.2081" y2="95.048" gradientUnits="userSpaceOnUse">
<stop stop-color="#4D83C4"/>
<stop offset="1" stop-color="#5083C3"/>
</linearGradient>
<linearGradient id="paint32_linear_424_7062" x1="71.021" y1="87.4235" x2="60.0051" y2="71.7953" gradientUnits="userSpaceOnUse">
<stop stop-color="#59AAC0"/>
<stop offset="1" stop-color="#69C2C4"/>
</linearGradient>
<linearGradient id="paint33_linear_424_7062" x1="58.8092" y1="57.5985" x2="60.8775" y2="70.3988" gradientUnits="userSpaceOnUse">
<stop stop-color="#59AAC0"/>
<stop offset="1" stop-color="#5083C3"/>
</linearGradient>
<linearGradient id="paint34_linear_424_7062" x1="58.6628" y1="63.3464" x2="59.4112" y2="54.1421" gradientUnits="userSpaceOnUse">
<stop stop-color="#59AAC0"/>
<stop offset="1" stop-color="#5083C3"/>
</linearGradient>
<linearGradient id="paint35_linear_424_7062" x1="60.9905" y1="55.3291" x2="59.5336" y2="61.0007" gradientUnits="userSpaceOnUse">
<stop stop-color="#59AAC0"/>
<stop offset="1" stop-color="#8ECBC5"/>
</linearGradient>
<linearGradient id="paint36_linear_424_7062" x1="58.8443" y1="59.5653" x2="60.0098" y2="66.7782" gradientUnits="userSpaceOnUse">
<stop stop-color="#59AAC0"/>
<stop offset="1" stop-color="#5083C3"/>
</linearGradient>
<linearGradient id="paint37_linear_424_7062" x1="67.6883" y1="69.7359" x2="73.7236" y2="69.7359" gradientUnits="userSpaceOnUse">
<stop stop-color="#1E5D5D"/>
<stop offset="1" stop-color="#0D5475"/>
</linearGradient>
<linearGradient id="paint38_linear_424_7062" x1="66.2489" y1="69.2809" x2="74.5609" y2="69.2809" gradientUnits="userSpaceOnUse">
<stop offset="0.1436" stop-color="#F8B0AB"/>
<stop offset="0.9333" stop-color="#E58880"/>
</linearGradient>
<linearGradient id="paint39_linear_424_7062" x1="72.3847" y1="64.336" x2="68.8465" y2="70.9702" gradientUnits="userSpaceOnUse">
<stop offset="0.1436" stop-color="#F8B0AB"/>
<stop offset="0.9333" stop-color="#E58880"/>
</linearGradient>
<linearGradient id="paint40_linear_424_7062" x1="66.5214" y1="58.0651" x2="70.3458" y2="69.9288" gradientUnits="userSpaceOnUse">
<stop offset="0.1436" stop-color="#F8B0AB"/>
<stop offset="0.9333" stop-color="#E58880"/>
</linearGradient>
<linearGradient id="paint41_linear_424_7062" x1="68.3731" y1="72.5326" x2="69.1536" y2="56.4152" gradientUnits="userSpaceOnUse">
<stop stop-color="#59AAC0"/>
<stop offset="1" stop-color="#69C2C4"/>
</linearGradient>
<linearGradient id="paint42_linear_424_7062" x1="70.3189" y1="70.5512" x2="70.0847" y2="62.551" gradientUnits="userSpaceOnUse">
<stop stop-color="#59AAC0"/>
<stop offset="1" stop-color="#69C2C4"/>
</linearGradient>
<linearGradient id="paint43_linear_424_7062" x1="66.8381" y1="68.3822" x2="67.4235" y2="79.4654" gradientUnits="userSpaceOnUse">
<stop stop-color="#59AAC0"/>
<stop offset="1" stop-color="#5083C3"/>
</linearGradient>
<linearGradient id="paint44_linear_424_7062" x1="67.6874" y1="73.4161" x2="71.642" y2="66.7038" gradientUnits="userSpaceOnUse">
<stop stop-color="#59AAC0"/>
<stop offset="1" stop-color="#69C2C4"/>
</linearGradient>
<linearGradient id="paint45_linear_424_7062" x1="44.6072" y1="69.2303" x2="49.6925" y2="69.2303" gradientUnits="userSpaceOnUse">
<stop stop-color="#1E5D5D"/>
<stop offset="1" stop-color="#0D5475"/>
</linearGradient>
<linearGradient id="paint46_linear_424_7062" x1="42.3471" y1="67.8325" x2="52.362" y2="67.8325" gradientUnits="userSpaceOnUse">
<stop offset="0.1436" stop-color="#F8B0AB"/>
<stop offset="0.9333" stop-color="#E58880"/>
</linearGradient>
<linearGradient id="paint47_linear_424_7062" x1="45.7355" y1="63.978" x2="47.8624" y2="67.9586" gradientUnits="userSpaceOnUse">
<stop offset="0.1436" stop-color="#F8B0AB"/>
<stop offset="0.9333" stop-color="#E58880"/>
</linearGradient>
<linearGradient id="paint48_linear_424_7062" x1="49.1973" y1="61.0991" x2="48.2607" y2="68.0456" gradientUnits="userSpaceOnUse">
<stop offset="0.1436" stop-color="#F8B0AB"/>
<stop offset="0.9333" stop-color="#E58880"/>
</linearGradient>
<linearGradient id="paint49_linear_424_7062" x1="49.7207" y1="71.6294" x2="50.5012" y2="55.5121" gradientUnits="userSpaceOnUse">
<stop stop-color="#59AAC0"/>
<stop offset="1" stop-color="#69C2C4"/>
</linearGradient>
<linearGradient id="paint50_linear_424_7062" x1="49.4571" y1="71.1619" x2="49.2229" y2="63.1617" gradientUnits="userSpaceOnUse">
<stop stop-color="#59AAC0"/>
<stop offset="1" stop-color="#69C2C4"/>
</linearGradient>
<linearGradient id="paint51_linear_424_7062" x1="52.1433" y1="69.1584" x2="52.7287" y2="80.2415" gradientUnits="userSpaceOnUse">
<stop stop-color="#59AAC0"/>
<stop offset="1" stop-color="#5083C3"/>
</linearGradient>
<linearGradient id="paint52_linear_424_7062" x1="50.2611" y1="72.9426" x2="47.1391" y2="67.2189" gradientUnits="userSpaceOnUse">
<stop stop-color="#59AAC0"/>
<stop offset="1" stop-color="#69C2C4"/>
</linearGradient>
<linearGradient id="paint53_linear_424_7062" x1="74.3398" y1="53.522" x2="75.2763" y2="93.6768" gradientUnits="userSpaceOnUse">
<stop offset="0.1436" stop-color="#F8B0AB"/>
<stop offset="0.9333" stop-color="#E58880"/>
</linearGradient>
<linearGradient id="paint54_linear_424_7062" x1="73.8672" y1="61.974" x2="75.4803" y2="74.7222" gradientUnits="userSpaceOnUse">
<stop offset="0.1436" stop-color="#F8B0AB"/>
<stop offset="0.9333" stop-color="#E58880"/>
</linearGradient>
<linearGradient id="paint55_linear_424_7062" x1="77.5214" y1="53.4476" x2="78.4579" y2="93.6029" gradientUnits="userSpaceOnUse">
<stop offset="0.1436" stop-color="#F8B0AB"/>
<stop offset="0.9333" stop-color="#E58880"/>
</linearGradient>
<linearGradient id="paint56_linear_424_7062" x1="79.1735" y1="53.408" x2="80.1103" y2="93.5713" gradientUnits="userSpaceOnUse">
<stop offset="0.1436" stop-color="#F8B0AB"/>
<stop offset="0.9333" stop-color="#E58880"/>
</linearGradient>
<linearGradient id="paint57_linear_424_7062" x1="75.6683" y1="56.6542" x2="76.1607" y2="60.546" gradientUnits="userSpaceOnUse">
<stop offset="0.1436" stop-color="#F8B0AB"/>
<stop offset="0.9333" stop-color="#E58880"/>
</linearGradient>
<linearGradient id="paint58_linear_424_7062" x1="77.0841" y1="55.0824" x2="77.0255" y2="59.8044" gradientUnits="userSpaceOnUse">
<stop offset="0.1436" stop-color="#F8B0AB"/>
<stop offset="0.9333" stop-color="#E58880"/>
</linearGradient>
<linearGradient id="paint59_linear_424_7062" x1="78.2352" y1="55.0966" x2="78.1766" y2="59.8186" gradientUnits="userSpaceOnUse">
<stop offset="0.1436" stop-color="#F8B0AB"/>
<stop offset="0.9333" stop-color="#E58880"/>
</linearGradient>
<linearGradient id="paint60_linear_424_7062" x1="79.2794" y1="55.1096" x2="79.2208" y2="59.8316" gradientUnits="userSpaceOnUse">
<stop offset="0.1436" stop-color="#F8B0AB"/>
<stop offset="0.9333" stop-color="#E58880"/>
</linearGradient>
<linearGradient id="paint61_linear_424_7062" x1="79.7973" y1="55.116" x2="79.7388" y2="59.8381" gradientUnits="userSpaceOnUse">
<stop offset="0.1436" stop-color="#F8B0AB"/>
<stop offset="0.9333" stop-color="#E58880"/>
</linearGradient>
<linearGradient id="paint62_linear_424_7062" x1="40.406" y1="54.2184" x2="43.9181" y2="85.9442" gradientUnits="userSpaceOnUse">
<stop offset="0.1436" stop-color="#F8B0AB"/>
<stop offset="0.9333" stop-color="#E58880"/>
</linearGradient>
<linearGradient id="paint63_linear_424_7062" x1="41.3109" y1="60.2041" x2="42.0914" y2="70.6108" gradientUnits="userSpaceOnUse">
<stop offset="0.1436" stop-color="#F8B0AB"/>
<stop offset="0.9333" stop-color="#E58880"/>
</linearGradient>
<linearGradient id="paint64_linear_424_7062" x1="37.2545" y1="54.6896" x2="40.6857" y2="85.6857" gradientUnits="userSpaceOnUse">
<stop offset="0.1436" stop-color="#F8B0AB"/>
<stop offset="0.9333" stop-color="#E58880"/>
</linearGradient>
<linearGradient id="paint65_linear_424_7062" x1="35.6101" y1="54.7493" x2="39.1222" y2="86.4752" gradientUnits="userSpaceOnUse">
<stop offset="0.1436" stop-color="#F8B0AB"/>
<stop offset="0.9333" stop-color="#E58880"/>
</linearGradient>
<linearGradient id="paint66_linear_424_7062" x1="39.2647" y1="54.6665" x2="39.309" y2="58.8971" gradientUnits="userSpaceOnUse">
<stop offset="0.1436" stop-color="#F8B0AB"/>
<stop offset="0.9333" stop-color="#E58880"/>
</linearGradient>
<linearGradient id="paint67_linear_424_7062" x1="37.6025" y1="53.4118" x2="38.3022" y2="58.082" gradientUnits="userSpaceOnUse">
<stop offset="0.1436" stop-color="#F8B0AB"/>
<stop offset="0.9333" stop-color="#E58880"/>
</linearGradient>
<linearGradient id="paint68_linear_424_7062" x1="36.698" y1="53.5238" x2="37.3977" y2="58.1939" gradientUnits="userSpaceOnUse">
<stop offset="0.1436" stop-color="#F8B0AB"/>
<stop offset="0.9333" stop-color="#E58880"/>
</linearGradient>
<linearGradient id="paint69_linear_424_7062" x1="35.3122" y1="52.9338" x2="36.3045" y2="59.5574" gradientUnits="userSpaceOnUse">
<stop offset="0.1436" stop-color="#F8B0AB"/>
<stop offset="0.9333" stop-color="#E58880"/>
</linearGradient>
<linearGradient id="paint70_linear_424_7062" x1="34.8864" y1="53.8333" x2="35.5862" y2="58.5035" gradientUnits="userSpaceOnUse">
<stop offset="0.1436" stop-color="#F8B0AB"/>
<stop offset="0.9333" stop-color="#E58880"/>
</linearGradient>
<linearGradient id="paint71_linear_424_7062" x1="59.253" y1="61.4913" x2="59.3274" y2="57.1404" gradientUnits="userSpaceOnUse">
<stop offset="0.1436" stop-color="#F8B0AB"/>
<stop offset="0.9333" stop-color="#E58880"/>
</linearGradient>
<linearGradient id="paint72_linear_424_7062" x1="59.5103" y1="53.3598" x2="59.3439" y2="56.8536" gradientUnits="userSpaceOnUse">
<stop offset="0.1436" stop-color="#F8B0AB"/>
<stop offset="0.9333" stop-color="#E58880"/>
</linearGradient>
<linearGradient id="paint73_linear_424_7062" x1="59.4878" y1="54.7788" x2="59.5086" y2="48.5192" gradientUnits="userSpaceOnUse">
<stop offset="0.1436" stop-color="#F8B0AB"/>
<stop offset="0.9333" stop-color="#E58880"/>
</linearGradient>
<linearGradient id="paint74_linear_424_7062" x1="60.5846" y1="47.4812" x2="59.8914" y2="51.1968" gradientUnits="userSpaceOnUse">
<stop offset="0.1436" stop-color="#F8B0AB"/>
<stop offset="0.9333" stop-color="#E58880"/>
</linearGradient>
<linearGradient id="paint75_linear_424_7062" x1="59.3734" y1="53.5362" x2="58.9066" y2="55.2002" gradientUnits="userSpaceOnUse">
<stop offset="0.1436" stop-color="#F8B0AB"/>
<stop offset="0.9333" stop-color="#E58880"/>
</linearGradient>
<linearGradient id="paint76_linear_424_7062" x1="60.7227" y1="47.5489" x2="60.2236" y2="58.4461" gradientUnits="userSpaceOnUse">
<stop offset="0.1179" stop-color="#23255A"/>
<stop offset="1" stop-color="#161541"/>
</linearGradient>
<linearGradient id="paint77_linear_424_7062" x1="58.1497" y1="47.4311" x2="57.6506" y2="58.3283" gradientUnits="userSpaceOnUse">
<stop offset="0.1179" stop-color="#23255A"/>
<stop offset="1" stop-color="#161541"/>
</linearGradient>
<linearGradient id="paint78_linear_424_7062" x1="55.0951" y1="47.0954" x2="56.4053" y2="50.6307" gradientUnits="userSpaceOnUse">
<stop offset="0.1179" stop-color="#23255A"/>
<stop offset="1" stop-color="#161541"/>
</linearGradient>
<linearGradient id="paint79_linear_424_7062" x1="55.3594" y1="49.4904" x2="57.134" y2="51.8196" gradientUnits="userSpaceOnUse">
<stop offset="0.1179" stop-color="#23255A"/>
<stop offset="1" stop-color="#161541"/>
</linearGradient>
<linearGradient id="paint80_linear_424_7062" x1="57.3028" y1="45.5675" x2="58.5333" y2="47.1825" gradientUnits="userSpaceOnUse">
<stop offset="0.1179" stop-color="#23255A"/>
<stop offset="1" stop-color="#161541"/>
</linearGradient>
<linearGradient id="paint81_linear_424_7062" x1="61.0369" y1="50.7307" x2="61.5954" y2="49.0158" gradientUnits="userSpaceOnUse">
<stop offset="0.1179" stop-color="#23255A"/>
<stop offset="1" stop-color="#005184"/>
</linearGradient>
<linearGradient id="paint82_linear_424_7062" x1="56.0325" y1="48.9077" x2="56.4406" y2="48.0117" gradientUnits="userSpaceOnUse">
<stop offset="0.1179" stop-color="#23255A"/>
<stop offset="1" stop-color="#005184"/>
</linearGradient>
<linearGradient id="paint83_linear_424_7062" x1="62.2136" y1="54.7879" x2="62.2344" y2="48.5282" gradientUnits="userSpaceOnUse">
<stop offset="0.1436" stop-color="#F8B0AB"/>
<stop offset="0.9333" stop-color="#E58880"/>
</linearGradient>
<linearGradient id="paint84_linear_424_7062" x1="62.5216" y1="53.9992" x2="62.3684" y2="54.8201" gradientUnits="userSpaceOnUse">
<stop offset="0.1436" stop-color="#F8B0AB"/>
<stop offset="0.9333" stop-color="#E58880"/>
</linearGradient>
<linearGradient id="paint85_linear_424_7062" x1="58.1581" y1="30.1102" x2="61.9045" y2="53.8375" gradientUnits="userSpaceOnUse">
<stop offset="0.1385" stop-color="#F7B142"/>
<stop offset="1" stop-color="#EE794B"/>
</linearGradient>
<linearGradient id="paint86_linear_424_7062" x1="51.1729" y1="30.6363" x2="51.8493" y2="38.5454" gradientUnits="userSpaceOnUse">
<stop offset="0.1385" stop-color="#F7B142"/>
<stop offset="1" stop-color="#EE794B"/>
</linearGradient>
<linearGradient id="paint87_linear_424_7062" x1="67.1163" y1="29.0923" x2="65.3472" y2="38.7185" gradientUnits="userSpaceOnUse">
<stop offset="0.1385" stop-color="#F7B142"/>
<stop offset="1" stop-color="#EE794B"/>
</linearGradient>
<linearGradient id="paint88_linear_424_7062" x1="59.5411" y1="28.4262" x2="59.2809" y2="44.2444" gradientUnits="userSpaceOnUse">
<stop offset="0.1385" stop-color="#F7B142"/>
<stop offset="1" stop-color="#EE794B"/>
</linearGradient>
<linearGradient id="paint89_linear_424_7062" x1="58.3327" y1="26.1816" x2="57.1359" y2="34.507" gradientUnits="userSpaceOnUse">
<stop offset="0.1385" stop-color="#F7B142"/>
<stop offset="1" stop-color="#EE794B"/>
</linearGradient>
<linearGradient id="paint90_linear_424_7062" x1="62.0535" y1="30.3903" x2="58.7832" y2="28.52" gradientUnits="userSpaceOnUse">
<stop offset="0.1385" stop-color="#F7B142"/>
<stop offset="1" stop-color="#FAD58D"/>
</linearGradient>
<linearGradient id="paint91_linear_424_7062" x1="63.4803" y1="33.8775" x2="66.625" y2="31.9267" gradientUnits="userSpaceOnUse">
<stop offset="0.1385" stop-color="#F7B142"/>
<stop offset="1" stop-color="#FAD58D"/>
</linearGradient>
<linearGradient id="paint92_linear_424_7062" x1="53.9426" y1="34.1293" x2="50.6725" y2="32.3969" gradientUnits="userSpaceOnUse">
<stop offset="0.1385" stop-color="#F7B142"/>
<stop offset="1" stop-color="#FAD58D"/>
</linearGradient>
<linearGradient id="paint93_linear_424_7062" x1="34.4322" y1="44.513" x2="39.5201" y2="44.513" gradientUnits="userSpaceOnUse">
<stop offset="0.1385" stop-color="#F7B142"/>
<stop offset="1" stop-color="#EE794B"/>
</linearGradient>
<linearGradient id="paint94_linear_424_7062" x1="44.1917" y1="37.8371" x2="44.8681" y2="43.873" gradientUnits="userSpaceOnUse">
<stop offset="0.1385" stop-color="#F7B142"/>
<stop offset="1" stop-color="#EE794B"/>
</linearGradient>
<linearGradient id="paint95_linear_424_7062" x1="44.4979" y1="51.7652" x2="42.1044" y2="46.848" gradientUnits="userSpaceOnUse">
<stop offset="0.1385" stop-color="#F7B142"/>
<stop offset="1" stop-color="#EE794B"/>
</linearGradient>
<linearGradient id="paint96_linear_424_7062" x1="44.7771" y1="52.4296" x2="42.7673" y2="48.1758" gradientUnits="userSpaceOnUse">
<stop offset="0.1385" stop-color="#F7B142"/>
<stop offset="1" stop-color="#EE794B"/>
</linearGradient>
<linearGradient id="paint97_linear_424_7062" x1="38.7128" y1="38.3188" x2="42.8755" y2="52.3679" gradientUnits="userSpaceOnUse">
<stop offset="0.1385" stop-color="#F7B142"/>
<stop offset="1" stop-color="#EE794B"/>
</linearGradient>
<linearGradient id="paint98_linear_424_7062" x1="37.7157" y1="34.858" x2="41.6582" y2="49.0588" gradientUnits="userSpaceOnUse">
<stop offset="0.1385" stop-color="#F7B142"/>
<stop offset="1" stop-color="#EE794B"/>
</linearGradient>
<linearGradient id="paint99_linear_424_7062" x1="40.1109" y1="41.9578" x2="42.4329" y2="47.07" gradientUnits="userSpaceOnUse">
<stop offset="0.1385" stop-color="#F7B142"/>
<stop offset="1" stop-color="#EE794B"/>
</linearGradient>
<linearGradient id="paint100_linear_424_7062" x1="40.8257" y1="44.6964" x2="39.772" y2="39.2329" gradientUnits="userSpaceOnUse">
<stop offset="0.1385" stop-color="#F7B142"/>
<stop offset="1" stop-color="#EE794B"/>
</linearGradient>
<linearGradient id="paint101_linear_424_7062" x1="40.4621" y1="42.4308" x2="40.7873" y2="45.2537" gradientUnits="userSpaceOnUse">
<stop offset="0.1385" stop-color="#F7B142"/>
<stop offset="1" stop-color="#EE794B"/>
</linearGradient>
<linearGradient id="paint102_linear_424_7062" x1="41.5468" y1="51.4137" x2="47.0861" y2="51.4137" gradientUnits="userSpaceOnUse">
<stop offset="0.1385" stop-color="#F7B142"/>
<stop offset="1" stop-color="#EE794B"/>
</linearGradient>
<linearGradient id="paint103_linear_424_7062" x1="43.0016" y1="49.3202" x2="44.6407" y2="52.2471" gradientUnits="userSpaceOnUse">
<stop offset="0.1385" stop-color="#F7B142"/>
<stop offset="1" stop-color="#EE794B"/>
</linearGradient>
<linearGradient id="paint104_linear_424_7062" x1="41.1241" y1="42.2536" x2="40.231" y2="41.7428" gradientUnits="userSpaceOnUse">
<stop offset="0.1385" stop-color="#F7B142"/>
<stop offset="1" stop-color="#FAD58D"/>
</linearGradient>
<linearGradient id="paint105_linear_424_7062" x1="45.6215" y1="39.562" x2="43.6684" y2="38.4451" gradientUnits="userSpaceOnUse">
<stop offset="0.1385" stop-color="#F7B142"/>
<stop offset="1" stop-color="#FAD58D"/>
</linearGradient>
<linearGradient id="paint106_linear_424_7062" x1="34.7464" y1="44.3611" x2="35.1633" y2="42.15" gradientUnits="userSpaceOnUse">
<stop offset="0.1385" stop-color="#F7B142"/>
<stop offset="1" stop-color="#FAD58D"/>
</linearGradient>
<linearGradient id="paint107_linear_424_7062" x1="41.9158" y1="40.2851" x2="38.4178" y2="38.2846" gradientUnits="userSpaceOnUse">
<stop offset="0.1385" stop-color="#F7B142"/>
<stop offset="1" stop-color="#FAD58D"/>
</linearGradient>
<linearGradient id="paint108_linear_424_7062" x1="40.9867" y1="43.5358" x2="40.2318" y2="43.1041" gradientUnits="userSpaceOnUse">
<stop offset="0.1385" stop-color="#F7B142"/>
<stop offset="1" stop-color="#FAD58D"/>
</linearGradient>
<linearGradient id="paint109_linear_424_7062" x1="81.4087" y1="32.3453" x2="78.1306" y2="43.8967" gradientUnits="userSpaceOnUse">
<stop stop-color="#FBECEB"/>
<stop offset="1" stop-color="#E2D9E3"/>
</linearGradient>
<linearGradient id="paint110_linear_424_7062" x1="80.8609" y1="33.0834" x2="80.5716" y2="34.5201" gradientUnits="userSpaceOnUse">
<stop stop-color="#FBECEB"/>
<stop offset="1" stop-color="#E2D9E3"/>
</linearGradient>
<linearGradient id="paint111_linear_424_7062" x1="81.4649" y1="34.335" x2="81.0387" y2="35.7373" gradientUnits="userSpaceOnUse">
<stop stop-color="#FBECEB"/>
<stop offset="1" stop-color="#E2D9E3"/>
</linearGradient>
<linearGradient id="paint112_linear_424_7062" x1="82.3586" y1="34.8308" x2="81.5829" y2="36.4415" gradientUnits="userSpaceOnUse">
<stop stop-color="#FBECEB"/>
<stop offset="1" stop-color="#E2D9E3"/>
</linearGradient>
<linearGradient id="paint113_linear_424_7062" x1="82.6222" y1="35.9371" x2="82.0031" y2="37.2227" gradientUnits="userSpaceOnUse">
<stop stop-color="#FBECEB"/>
<stop offset="1" stop-color="#E2D9E3"/>
</linearGradient>
<linearGradient id="paint114_linear_424_7062" x1="77.768" y1="31.7545" x2="78.7046" y2="38.4668" gradientUnits="userSpaceOnUse">
<stop stop-color="#59AAC0"/>
<stop offset="1" stop-color="#5083C3"/>
</linearGradient>
<linearGradient id="paint115_linear_424_7062" x1="70.0996" y1="25.3163" x2="72.0769" y2="25.3163" gradientUnits="userSpaceOnUse">
<stop offset="0.1179" stop-color="#23255A"/>
<stop offset="1" stop-color="#161541"/>
</linearGradient>
<linearGradient id="paint116_linear_424_7062" x1="71.7248" y1="49.7487" x2="74.4047" y2="49.7487" gradientUnits="userSpaceOnUse">
<stop offset="0.1179" stop-color="#23255A"/>
<stop offset="1" stop-color="#161541"/>
</linearGradient>
<linearGradient id="paint117_linear_424_7062" x1="80.2645" y1="46.4419" x2="82.2255" y2="46.4419" gradientUnits="userSpaceOnUse">
<stop offset="0.1179" stop-color="#23255A"/>
<stop offset="1" stop-color="#161541"/>
</linearGradient>
<linearGradient id="paint118_linear_424_7062" x1="39.3379" y1="31.2578" x2="41.2356" y2="31.2578" gradientUnits="userSpaceOnUse">
<stop offset="0.1179" stop-color="#23255A"/>
<stop offset="1" stop-color="#161541"/>
</linearGradient>
<linearGradient id="paint119_linear_424_7062" x1="43.6952" y1="56.8883" x2="45.8734" y2="56.8883" gradientUnits="userSpaceOnUse">
<stop offset="0.1179" stop-color="#23255A"/>
<stop offset="1" stop-color="#161541"/>
</linearGradient>
</defs>
</svg>
