<svg width="52" height="88" viewBox="0 0 52 88" fill="none" xmlns="http://www.w3.org/2000/svg">
<path d="M34.2777 45.6966C34.2777 45.6966 35.0225 48.2411 34.2157 49.5444C33.4088 50.8477 10.9422 41.7245 11.749 38.6214C12.5558 35.5183 25.9613 32.4772 34.2777 45.6966Z" fill="#22AAE2"/>
<path d="M19.8791 73.4076C20.1274 72.4146 20.0498 70.4441 18.0948 70.1182C16.1399 69.7924 15.1624 70.9095 15.0693 73.0042C14.9762 75.0988 13.9677 76.9296 13.828 77.5347C13.6884 78.1398 11.842 80.2034 13.6418 80.9171C15.4417 81.6309 16.3881 81.305 17.6449 78.9311C18.9016 76.5572 19.6309 74.4006 19.8791 73.4076Z" fill="#673755"/>
<path d="M19.8791 73.4076C20.1274 72.4146 20.0498 70.4441 18.0948 70.1182C16.1399 69.7924 15.1624 70.9095 15.0693 73.0042C14.9762 75.0988 18.3896 73.6248 16.3416 78.7139C16.1097 79.29 13.6418 80.9171 13.6418 80.9171C15.4417 81.6309 16.3881 81.305 17.6449 78.9311C18.9017 76.5572 19.6309 74.4006 19.8791 73.4076Z" fill="url(#paint0_linear_16192_28792)"/>
<path d="M13.7195 68.7684C13.7195 68.7684 15.3486 71.2043 15.5969 71.6388C15.8451 72.0732 16.0934 72.5697 16.9312 72.1973C17.7691 71.825 18.2811 71.0957 18.1414 70.7234C18.0018 70.351 17.0243 66.6738 17.0243 66.6738L13.7195 68.7684Z" fill="#C56B50"/>
<path d="M14.1871 70.3066C13.5299 69.6888 2.56925 51.9572 2.21414 49.3333C1.85904 46.7094 4.75539 44.3159 8.01863 44.2673C11.2819 44.2187 12.7399 44.9946 14.0357 49.615C15.3315 54.2353 18.0074 67.362 18.0328 68.2327C18.0581 69.1035 14.8443 70.9245 14.1871 70.3066Z" fill="#212E51"/>
<path d="M14.1869 70.3066C13.5297 69.6887 2.56911 51.9572 2.21401 49.3332C1.8589 46.7093 5.94616 53.3613 5.94616 53.3613L9.51476 60.2192C9.51476 60.2192 14.8442 70.9244 14.1869 70.3066Z" fill="url(#paint1_linear_16192_28792)"/>
<path d="M13.1456 53.5475C12.4883 52.9297 10.1183 51.4237 9.76315 48.7997C9.40804 46.1758 12.7399 44.9946 14.0357 49.615C15.3315 54.2353 18.0074 67.362 18.0328 68.2327C18.0581 69.1035 13.8028 54.1654 13.1456 53.5475Z" fill="url(#paint2_linear_16192_28792)"/>
<path d="M14.2099 37.1398C14.2099 37.1398 5.66919 42.8529 3.24109 45.1763C0.812981 47.4997 1.62604 52.497 7.81894 51.4318C14.0118 50.3666 25.5217 46.0568 28.1488 44.0054C30.776 41.9539 22.1151 34.9876 14.2099 37.1398Z" fill="#212E51"/>
<path d="M14.2103 37.1398C14.2103 37.1398 5.66959 42.8529 3.24149 45.1763C0.81338 47.4997 3.19791 48.934 9.39081 47.8688C15.5837 46.8036 25.5221 46.0568 28.1492 44.0054C30.7764 41.9539 22.1155 34.9876 14.2103 37.1398Z" fill="url(#paint3_linear_16192_28792)"/>
<path d="M10.903 39.4005C8.22543 41.2611 4.67215 43.8072 3.24136 45.1763C1.50873 46.9379 1.47034 49.9392 4.17742 46.9379C8.45974 42.1901 12.7693 38.1036 10.903 39.4005Z" fill="url(#paint4_linear_16192_28792)"/>
<path d="M24.1924 40.9333C21.1203 46.7983 18.7464 52.2442 16.5121 57.2713C14.2779 62.2984 21.5561 66.4611 24.6889 61.5381C28.9246 54.8819 30.6779 53.4545 33.0363 48.7998C35.3946 44.1451 27.5939 34.4395 24.1924 40.9333Z" fill="#212E51"/>
<path d="M23.9469 41.9705C23.6748 42.7866 26.8035 43.5954 27.878 49.0466C28.6085 52.7525 24.6888 61.5381 24.6888 61.5381C28.9246 54.8819 30.6779 53.4545 33.0363 48.7998C35.3946 44.1451 24.552 40.1551 23.9469 41.9705Z" fill="url(#paint5_linear_16192_28792)"/>
<path d="M8.83212 74.0591L6.03931 79.3965L10.694 83.865L13.5489 77.1622C13.5489 77.1622 12.3697 72.1664 8.83212 74.0591Z" fill="#C56B50"/>
<path d="M8.83206 74.0592L7.76147 76.0297C7.76147 76.0297 10.5543 78.4967 10.9732 79.0552C11.3921 79.6138 10.6939 83.8651 10.6939 83.8651L13.5488 77.1623C13.5488 77.1623 12.3696 72.1665 8.83206 74.0592Z" fill="url(#paint6_linear_16192_28792)"/>
<path d="M13.836 79.125C13.836 79.125 20.4068 69.1252 24.503 61.957C28.5991 54.7887 20.3758 48.4739 16.0004 58.3418C10.4458 68.97 7.4668 74.7418 7.4668 74.7418C7.4668 74.7418 9.11145 75.5564 11.0664 76.852C13.0214 78.1475 12.9748 78.2872 13.836 79.125Z" fill="#212E51"/>
<path d="M13.0212 65.2773C11.4503 68.8324 14.5773 68.219 16.5587 64.5326C18.5401 60.8461 19.7239 56.5265 19.7239 56.5265C19.7239 56.5265 19.1654 54.0595 18.1413 55.8749C17.1173 57.6902 14.7899 61.2743 13.0212 65.2773Z" fill="url(#paint7_linear_16192_28792)"/>
<path d="M13.836 79.125C13.836 79.125 20.4068 69.1252 24.503 61.957C24.503 61.957 16.3417 72.7559 13.7972 74.5557C11.2526 76.3555 7.4668 74.7419 7.4668 74.7419C7.4668 74.7419 9.11145 75.5564 11.0664 76.852C13.0214 78.1476 12.9748 78.2872 13.836 79.125Z" fill="url(#paint8_linear_16192_28792)"/>
<path d="M12.3895 83.8821C12.6902 83.0575 12.8839 82.5974 13.0516 82.2457C13.7085 80.8687 10.9574 78.7914 10.6698 78.3502C10.3823 77.9091 9.16809 76.448 7.16806 73.2989C5.42073 70.5478 2.44676 70.882 1.31876 71.598C0.270136 72.2636 0.434641 74.0993 1.82411 77.4367C2.97922 80.2112 5.24708 85.193 5.97923 86.7945C6.12572 87.115 6.41876 87.3435 6.76515 87.408L9.25374 87.871C9.72964 87.9596 10.4597 87.5617 10.6745 87.1279C10.6745 87.1279 11.8363 85.3992 12.3895 83.8821Z" fill="url(#paint9_linear_16192_28792)"/>
<path d="M9.60866 83.835C8.41876 81.2056 7.48078 80.6907 6.88206 78.5665C5.0002 71.8899 4.5398 71.974 1.31876 71.598C0.270136 72.2636 0.434641 74.0993 1.82411 77.4368C2.97922 80.2113 5.24708 85.193 5.97923 86.7945C6.12572 87.115 6.41876 87.3435 6.76516 87.408L9.25374 87.8711C9.72964 87.9596 10.4597 87.5617 10.6745 87.128C10.6745 87.128 10.4608 85.7179 9.60866 83.835Z" fill="url(#paint10_linear_16192_28792)"/>
<path d="M17.6451 16.8995C17.6451 16.8995 14.2937 11.9965 15.4108 10.8173C16.528 9.63816 18.7622 8.58309 19.9414 10.8173C21.1206 13.0516 22.2998 15.3479 22.2998 15.3479C22.2998 15.3479 18.3899 17.6442 17.6451 16.8995Z" fill="#C56B50"/>
<path d="M17.6451 16.8995C17.6451 16.8995 14.2937 11.9965 15.4108 10.8173C15.4108 10.8173 16.7142 12.8809 17.8623 13.1912C19.0105 13.5015 20.8212 12.489 21.1206 13.0632C21.9114 14.5795 22.2998 15.3479 22.2998 15.3479C22.2998 15.3479 18.3899 17.6442 17.6451 16.8995Z" fill="url(#paint11_linear_16192_28792)"/>
<path d="M21.9271 28.0707L16.1553 16.0926C16.1553 16.0926 17.2586 15.3605 18.9481 14.6031C20.7479 13.7963 22.0512 13.8583 22.0512 13.8583L28.4437 22.7954C28.4437 22.7954 24.0372 30.1808 21.9271 28.0707Z" fill="#F6B042"/>
<path d="M17.7689 19.1337L16.1553 16.0926C16.1553 16.0926 17.2586 15.3605 18.9481 14.6031C20.7479 13.7963 22.0512 13.8583 22.0512 13.8583L28.4437 22.7954C28.4437 22.7954 22.7339 15.0375 17.7689 19.1337Z" fill="url(#paint12_linear_16192_28792)"/>
<path d="M16.8907 17.6188L16.1553 16.0927C16.1553 16.0927 17.2586 15.3605 18.9481 14.6032C20.7479 13.7963 21.6168 13.1757 21.6168 13.1757L22.9116 15.0613L16.8907 17.6188Z" fill="#F6B042"/>
<path d="M15.2091 11.7716C14.768 10.801 16.3581 8.93577 18.1663 7.80563C19.9745 6.67549 26.1208 2.65987 27.1944 2.43384C28.2681 2.20782 29.2852 3.62049 28.2681 4.75063C27.2509 5.88077 21.1047 12.3262 19.9745 13.1173C18.8444 13.9084 16.3393 14.258 15.2091 11.7716Z" fill="#C56B50"/>
<path d="M21.2741 10.6169C24.6221 7.39596 27.4769 4.15732 27.4769 4.15732C27.4769 4.15732 29.2851 3.6205 28.268 4.75064C27.2508 5.88078 21.1046 12.3262 19.9744 13.1173C19.2377 13.633 20.4796 11.3812 21.2741 10.6169Z" fill="url(#paint13_linear_16192_28792)"/>
<path d="M27.6519 4.92232C27.6882 4.92129 27.7236 4.92511 27.7591 4.93326C28.0285 4.99518 28.9276 4.9275 29.525 4.87772C30.2623 4.63226 30.7797 3.47652 30.7752 3.40147C30.6587 3.66988 30.7046 3.74051 30.8918 3.86059C31.0128 3.93824 31.3703 3.85882 31.4286 3.6275C31.4922 3.35203 31.6399 2.34584 31.6399 2.34584C31.6333 2.27334 31.6088 2.20447 31.5679 2.14429C31.3074 1.76145 30.7267 0.702866 30.4433 0.625563C29.8217 0.456042 27.8722 0.498422 27.4766 0.498422C27.0811 0.498422 25.7814 2.77283 25.951 3.90297C26.1023 4.91202 27.3798 4.93004 27.6519 4.92232Z" fill="#C56B50"/>
<path d="M28.6658 3.92372C28.6658 3.92372 28.5598 4.81721 29.6098 4.67291C30.6598 4.52861 30.5326 3.50513 29.9804 3.52344C29.4281 3.54175 28.8097 3.42462 28.6658 3.92372Z" fill="url(#paint14_linear_16192_28792)"/>
<path d="M26.7847 4.51756C26.7847 4.51756 27.6888 3.44393 27.8018 2.65283C27.8018 2.65283 29.1015 4.009 26.7847 4.51756Z" fill="url(#paint15_linear_16192_28792)"/>
<path d="M29.0566 1.8504C29.0566 1.8504 28.9748 2.79178 28.942 3.07808C28.9092 3.36439 29.4147 2.35754 29.0566 1.8504Z" fill="url(#paint16_linear_16192_28792)"/>
<path d="M29.9801 1.71307C29.9801 1.71307 30.0723 2.15776 30.0382 2.40963C30.0042 2.66149 29.936 3.16522 29.936 3.16522C29.936 3.16522 30.2516 2.58365 30.262 2.40084C30.2724 2.21803 29.9801 1.71307 29.9801 1.71307Z" fill="url(#paint17_linear_16192_28792)"/>
<path d="M28.1375 3.0152C28.1375 3.0152 28.3306 3.24456 28.5117 3.26871C28.6928 3.29285 28.9463 3.13592 28.9463 3.13592C28.9463 3.13592 29.1032 3.43772 29.3688 3.47393C29.6344 3.51015 29.8637 3.28078 29.8637 3.28078C29.8637 3.28078 30.1414 3.54636 30.2863 3.58258C30.4311 3.6188 30.7933 3.38943 30.7933 3.38943C30.7933 3.38943 30.5639 3.81195 30.25 3.77573C29.9362 3.73951 29.7792 3.53429 29.7792 3.53429C29.7792 3.53429 29.5137 3.72744 29.2119 3.64294C28.9101 3.55844 28.8738 3.32907 28.8738 3.32907C28.8738 3.32907 28.4272 3.76366 28.1375 3.0152Z" fill="url(#paint18_linear_16192_28792)"/>
<path d="M30.7371 3.47183C30.7371 3.47183 30.9033 3.06224 30.9504 2.75568C30.9975 2.44911 31.0228 1.88177 31.0228 1.88177C31.0228 1.88177 31.1732 2.49038 31.0958 2.89849C31.0184 3.3066 30.7371 3.47183 30.7371 3.47183Z" fill="url(#paint19_linear_16192_28792)"/>
<path d="M31.4048 3.68842C31.4048 3.68842 30.9315 3.81996 30.7083 3.28845C30.7083 3.28845 30.6049 3.69106 30.8592 3.8341C31.158 4.00217 31.4048 3.68842 31.4048 3.68842Z" fill="url(#paint20_linear_16192_28792)"/>
<path d="M31.0228 3.78292C31.0228 3.78292 31.263 3.92418 31.0511 4.39037C30.8392 4.85655 30.0198 4.44687 29.7938 4.39037C29.5678 4.33386 29.4689 3.57102 29.8087 3.54053C30.5425 3.30261 30.7262 3.6134 31.0228 3.78292Z" fill="#C56B50"/>
<path d="M31.0226 3.78288C31.0226 3.78288 31.2627 3.92415 31.0508 4.39034C30.8389 4.85652 30.0196 4.44684 29.7936 4.39034C29.5675 4.33383 29.6523 4.3197 30.3727 4.44684C31.0932 4.57398 30.7259 3.61336 31.0226 3.78288Z" fill="url(#paint21_linear_16192_28792)"/>
<path d="M36.8222 36.0148C37.7482 30.4428 38.169 23.7436 37.1325 23.1678C33.7812 21.3059 26.8845 21.6317 25.5579 22.2369C24.2313 22.842 22.9823 25.1073 21.4928 26.9691C20.0033 28.831 17.0398 32.4151 15.4727 34.0908C13.9056 35.7665 12.0593 37.6904 11.8731 38.1869C11.6869 38.6834 18.1591 39.0212 21.7721 40.7005C26.1785 42.7485 33.1132 45.9363 34.3397 49.2962C34.3488 49.3209 35.0379 46.7516 36.8222 36.0148Z" fill="#22AAE2"/>
<path d="M17.5363 34.1839C17.746 33.5872 21.4462 30.7394 22.2841 29.6223C23.1219 28.5052 21.108 28.949 21.4787 28.414C23.8667 24.9676 26.3041 21.8965 25.5579 22.2369C24.2313 22.842 22.9823 25.1073 21.4928 26.9691C20.0033 28.831 17.0398 32.4151 15.4727 34.0908C13.9056 35.7665 12.0593 37.6904 11.8731 38.1869C11.6869 38.6835 18.1591 39.0212 21.7721 40.7005C24.0887 41.7772 21.1825 39.3351 18.4827 38.218C17.1725 37.6758 16.9312 35.9061 17.5363 34.1839Z" fill="url(#paint22_linear_16192_28792)"/>
<path d="M36.8222 36.0148C37.7482 30.4428 38.169 23.7436 37.1325 23.1678C33.7812 21.3059 26.8845 21.6317 25.5579 22.2369C24.2313 22.842 32.5399 24.9055 33.5329 28.8776C33.9654 30.6074 31.9842 30.1591 32.1675 32.291C32.4052 35.0544 34.646 40.2871 33.595 40.9177C31.7331 42.0348 26.0544 40.204 21.5859 39.273C17.1174 38.3421 12.0593 37.6904 11.8731 38.1869C11.6869 38.6834 18.1591 39.0212 21.7721 40.7005C26.1785 42.7485 33.1132 45.9363 34.3397 49.2962C34.3488 49.3209 35.0379 46.7516 36.8222 36.0148Z" fill="url(#paint23_linear_16192_28792)"/>
<path d="M27.7068 21.8955C28.1257 21.6899 30.8836 21.721 31.4887 21.8024C31.8952 21.8572 32.3029 23.2002 32.0593 24.3148C32.029 24.4532 31.882 24.5318 31.7494 24.4821L29.1963 23.5247C29.1963 23.5247 26.7293 23.9669 26.45 23.8272C26.1707 23.6876 27.2879 22.1011 27.7068 21.8955Z" fill="#F6B042"/>
<path d="M27.7068 21.8955C28.1257 21.6899 30.8836 21.721 31.4887 21.8024C31.8952 21.8572 32.3029 23.2002 32.0593 24.3148C32.029 24.4532 31.512 23.3618 30.6393 22.7799C30.2611 22.5278 28.3934 22.617 27.7766 22.5937C27.1599 22.5705 27.2879 22.1011 27.7068 21.8955Z" fill="url(#paint24_linear_16192_28792)"/>
<path d="M40.8564 19.6613C40.8564 19.6613 45.9767 17.1331 47.8075 16.4341C49.5142 15.7824 52.9276 20.0027 51.1899 20.9336C48.8818 22.1701 42.8424 25.1539 42.8424 25.1539L40.8564 19.6613Z" fill="#C56B50"/>
<path d="M47.3109 16.7754C47.3109 16.7754 46.1317 16.7133 46.3292 17.7807C46.5156 19.2161 48.1489 19.6515 48.1489 19.6515L47.3109 16.7754Z" fill="url(#paint25_linear_16192_28792)"/>
<path d="M40.8564 19.6613C40.8564 19.6613 42.2063 18.6373 43.5096 18.4977C44.8129 18.358 45.2008 21.0577 46.5352 21.3681C47.8695 21.6784 50.5251 21.2855 50.1193 21.4954C47.4106 22.8969 42.8424 25.1539 42.8424 25.1539L40.8564 19.6613Z" fill="url(#paint26_linear_16192_28792)"/>
<path d="M34.2465 22.2214C33.8276 22.4542 34.4638 27.1399 37.4428 28.3811L45.4488 24.3471C45.4488 24.3471 45.8367 20.282 43.0905 18.2029C43.0905 18.2029 34.6655 21.9887 34.2465 22.2214Z" fill="#F6B042"/>
<path d="M41.7873 24.7195C41.0425 25.7745 37.4429 28.3811 37.4429 28.3811L45.4489 24.3471C45.4489 24.3471 45.8213 20.3596 43.0906 18.2029L40.9378 19.2599C40.9378 19.2599 42.532 23.6644 41.7873 24.7195Z" fill="url(#paint27_linear_16192_28792)"/>
<path d="M41.5488 18.9864L43.0907 18.2029C43.0907 18.2029 45.6217 19.9115 45.4491 24.3471L44.2854 24.9522C44.2854 24.9522 43.69 19.8553 41.5488 18.9864Z" fill="#F6B042"/>
<path d="M43.0285 6.18597C42.4467 6.53507 42.096 6.91989 42.7958 8.67623C43.4956 10.4326 46.6275 18.5118 47.4085 19.5252C48.1895 20.5387 49.7832 21.568 50.9143 21.0383C52.0455 20.5087 52.0082 19.8048 51.2378 17.8855C50.1814 15.2536 45.4203 7.4723 44.8763 6.89956C44.3323 6.32681 43.6103 5.83686 43.0285 6.18597Z" fill="#C56B50"/>
<path d="M44.7662 7.93147C44.7662 7.93147 45.511 7.52806 45.3248 7.00053C45.1871 6.61045 44.5801 4.85937 44.3008 4.54906C44.0215 4.23874 43.2254 3.7665 43.1526 3.74224C42.8733 3.64915 42.2217 4.26977 42.2217 4.26977C42.2217 4.26977 41.6321 4.23874 41.3528 4.36287C41.0735 4.48699 41.1356 4.67318 40.8563 4.8904C40.577 5.10762 40.2046 5.44896 39.9254 5.66618C39.6461 5.8834 39.6228 6.26354 39.6228 6.26354C39.6228 6.26354 39.7198 7.3186 40.0301 7.75304C40.3404 8.18748 41.6321 7.77631 41.6321 7.77631C41.6321 7.77631 41.8454 8.61416 42.8345 8.64907C43.9003 8.68668 44.7662 7.93147 44.7662 7.93147Z" fill="#C56B50"/>
<path d="M40.6001 7.92761C40.6001 7.92761 40.9492 7.46602 41.0423 7.31086C41.1354 7.15571 41.1354 7.15571 41.1354 7.15571C41.1354 7.15571 41.6629 7.15571 41.9422 6.93849C42.2215 6.72127 42.206 6.51957 42.206 6.51957C42.206 6.51957 42.5713 6.2885 42.8736 6.13228C43.0067 6.06349 43.2369 6.15168 43.3696 6.07737C43.5328 5.98599 43.5937 5.73263 43.6955 5.65845C43.6955 5.65845 43.6838 6.69412 44.4519 7.55524C44.6302 7.75517 43.4007 8.60254 42.9042 8.60254C42.7123 8.60254 41.5543 8.00907 41.5543 8.00907L40.6001 7.92761Z" fill="url(#paint28_linear_16192_28792)"/>
<path d="M40.2046 5.6662L41.1355 7.1557L40.9493 7.49705C40.9493 7.49705 40.5149 7.18673 40.2046 5.6662Z" fill="url(#paint29_linear_16192_28792)"/>
<path d="M42.2177 6.49629C42.2177 6.49629 42.1595 6.91521 41.9267 6.92685C41.7987 6.76394 41.1975 5.13867 41.1975 5.13867L42.2177 6.49629Z" fill="url(#paint30_linear_16192_28792)"/>
<path d="M43.2069 6.08897L42.9043 6.13939C42.9043 6.13939 42.1596 4.61886 42.3147 4.74298C42.4699 4.86711 43.2069 6.08897 43.2069 6.08897Z" fill="url(#paint31_linear_16192_28792)"/>
<path d="M40.6742 8.05561C40.7048 7.94548 41.0187 7.81166 41.3336 7.62505C41.5488 7.49756 41.7395 7.29149 41.9387 7.26431C42.1873 7.23039 42.3576 7.33413 42.4391 7.52032C42.615 7.92237 42.2786 8.19955 41.6129 8.43962C41.1397 8.61029 40.5966 8.33489 40.6742 8.05561Z" fill="#C56B50"/>
<path d="M40.6742 8.05556C40.7257 7.87019 41.029 8.33199 41.5198 8.26502C41.7684 8.2311 42.2786 8.1995 41.6129 8.43957C41.1397 8.61025 40.5966 8.33484 40.6742 8.05556Z" fill="url(#paint32_linear_16192_28792)"/>
<path d="M27.2504 14.8341C27.2504 14.8341 25.7947 15.2318 25.6618 16.7495C25.5289 18.2672 27.7363 18.0821 27.7363 18.0821C27.7363 18.0821 28.2894 19.9558 29.2258 20.5878C30.1621 21.2199 30.9304 21.4608 31.7843 21.153C32.7743 20.7963 33.266 19.9207 33.3432 19.2953C33.4204 18.67 33.6689 16.6431 31.3166 15.2969C29.4245 14.2141 27.2504 14.8341 27.2504 14.8341Z" fill="#212E51"/>
<path d="M27.2504 14.8341C27.2504 14.8341 25.7947 15.2318 25.6618 16.7495C25.5289 18.2672 27.7363 18.0821 27.7363 18.0821C27.7363 18.0821 28.2894 19.9558 29.2258 20.5878C30.1621 21.2199 30.9304 21.4608 31.7843 21.153C32.7743 20.7963 33.266 19.9207 33.3432 19.2953C33.4204 18.67 33.6689 16.6431 31.3166 15.2969C29.4245 14.2141 27.2504 14.8341 27.2504 14.8341Z" fill="url(#paint33_linear_16192_28792)"/>
<path d="M28.8628 20.5457L28.506 22.6248C28.506 22.6248 28.4284 23.2648 29.1266 23.3269C29.8248 23.3889 30.8101 23.1135 30.9109 22.6558C31.0118 22.1981 31.6401 19.0872 31.6401 19.0872C31.6401 19.0872 29.6386 18.2339 28.8628 20.5457Z" fill="#C56B50"/>
<path d="M28.8626 20.5457L28.7307 21.3603C28.7307 21.3603 29.8013 21.0577 30.3366 21.3835C30.8719 21.7094 30.8098 23.1135 30.9107 22.6558C31.0115 22.1981 31.6399 19.0872 31.6399 19.0872C31.6399 19.0872 29.6384 18.2339 28.8626 20.5457Z" fill="url(#paint34_linear_16192_28792)"/>
<path d="M28.8118 13.7997C28.8118 13.7997 26.7796 14.6945 26.8217 16.3742C26.8638 18.054 26.7571 19.4391 27.303 20.1881C27.8489 20.9372 28.2826 21.1215 28.6568 21.0932C29.031 21.0649 30.9169 20.3029 31.7403 19.349C31.7403 19.349 32.3234 17.5911 32.086 16.2513C31.8487 14.9115 30.6368 13.0114 28.8118 13.7997Z" fill="#C56B50"/>
<path d="M28.8117 13.7997C28.8117 13.7997 26.7573 14.8332 26.8285 16.2347C27.1945 17.643 29.5369 15.9634 29.5369 15.9634C29.5369 15.9634 29.9901 16.9409 31.663 17.9898C31.8042 19.6278 30.03 20.5682 30.03 20.5682C30.6512 20.2549 31.3285 19.8259 31.7402 19.349C31.7402 19.349 32.3233 17.5911 32.086 16.2513C31.8486 14.9115 30.6368 13.0114 28.8117 13.7997Z" fill="url(#paint35_linear_16192_28792)"/>
<path d="M34.6525 17.6118C34.069 18.5852 31.7205 18.9596 31.7205 18.9596C31.7205 18.9596 31.6129 18.3019 31.7769 17.3313C30.4446 16.9399 30.1012 15.3852 30.1012 15.3852C30.1012 15.3852 29.0375 16.1719 28.2312 16.4587C27.4249 16.7455 26.6131 16.1931 27.4353 15.5809C28.2575 14.9687 28.2575 14.9687 28.2575 14.9687C28.2575 14.9687 26.0893 15.4684 25.5633 14.7903C25.0372 14.1121 24.6214 12.1344 26.1852 11.6051C27.749 11.0758 28.9292 12.6714 28.9292 12.6714C28.9292 12.6714 28.512 11.6724 29.2276 11.3346C29.9432 10.9968 30.782 12.9019 30.782 12.9019C30.782 12.9019 32.2925 12.5098 33.128 13.5294C33.9636 14.5489 33.4782 14.9446 33.4782 14.9446C33.4782 14.9446 35.7412 15.7959 34.6525 17.6118Z" fill="#212E51"/>
<path d="M34.6526 17.6118C34.9306 17.1481 34.9893 16.7478 34.9237 16.408C34.1235 16.701 32.5163 17.8652 30.1013 15.3851C30.1013 15.3851 30.4447 16.9398 31.777 17.3313C31.562 18.1537 31.7209 18.9538 31.7209 18.9538C31.7209 18.9538 32.0638 18.8869 32.5101 18.7855C33.0693 18.6586 34.2904 18.216 34.6526 17.6118Z" fill="url(#paint36_linear_16192_28792)"/>
<path d="M26.2672 14.4519C25.6045 14.0832 25.2346 13.2519 25.1596 12.6784C24.9519 13.4444 25.2361 14.3686 25.5632 14.7903C26.0893 15.4685 28.2575 14.9688 28.2575 14.9688C28.2575 14.9688 27.2086 14.9757 26.2672 14.4519Z" fill="url(#paint37_linear_16192_28792)"/>
<path d="M30.2498 15.0507C30.2498 15.0507 28.4404 16.3136 27.0967 16.0613C27.0688 16.4351 27.6498 16.6656 28.2313 16.4588C28.9612 16.1992 29.8994 15.5317 30.0711 15.4072C30.1636 15.2527 30.2498 15.0507 30.2498 15.0507Z" fill="url(#paint38_linear_16192_28792)"/>
<path d="M33.4781 14.9446C33.4781 14.9446 33.8956 14.6022 33.2848 13.7361C32.706 14.534 31.4326 14.2076 31.4326 14.2076C31.4326 14.2076 31.6893 14.36 32.7558 14.785C33.1077 14.9252 33.3745 14.9775 33.576 14.986C33.5147 14.9584 33.4781 14.9446 33.4781 14.9446Z" fill="url(#paint39_linear_16192_28792)"/>
<path d="M29.5652 13.324C29.5652 13.324 29.1094 12.4784 28.9309 11.5898C28.6789 11.984 28.8887 12.5675 28.9241 12.6589C29.0887 12.9035 29.3039 13.1418 29.5652 13.324Z" fill="url(#paint40_linear_16192_28792)"/>
<path d="M31.7851 19.0715C31.7851 19.0715 31.521 18.4372 31.777 17.3313C32.0331 16.2253 32.354 18.5556 32.354 18.5556C32.354 18.5556 34.5283 17.9319 33.9235 18.2286C33.3186 18.5252 31.7851 19.0715 31.7851 19.0715Z" fill="url(#paint41_linear_16192_28792)"/>
<path d="M31.6612 17.7847C31.6612 17.7847 32.2866 17.5 32.5822 18.072C32.8777 18.644 32.4351 19.2886 31.8953 19.5629C31.3554 19.8371 31.0633 19.7899 31.0923 19.5245C31.1213 19.259 31.1255 18.0932 31.6612 17.7847Z" fill="#C56B50"/>
<path d="M31.6613 17.7847C31.6613 17.7847 32.2868 17.5 32.5823 18.072C32.8779 18.644 32.4353 19.2886 31.8954 19.5629C31.3556 19.8371 32.5948 19.2114 32.4661 18.2882C32.3374 17.365 31.1256 18.0932 31.6613 17.7847Z" fill="url(#paint42_linear_16192_28792)"/>
<path d="M31.902 18.1202C32.1639 18.0883 32.4273 18.4384 32.2496 18.8335C32.0719 19.2287 31.6381 19.4466 31.4621 19.2856C31.2862 19.1247 31.2622 18.9278 31.4419 18.9059C31.6216 18.884 31.9446 18.8968 31.8682 18.6976C31.7918 18.4984 31.63 18.5963 31.576 18.4379C31.5219 18.2795 31.6196 18.1546 31.902 18.1202Z" fill="#7B462B"/>
<defs>
<linearGradient id="paint0_linear_16192_28792" x1="13.6418" y1="75.657" x2="19.9801" y2="75.657" gradientUnits="userSpaceOnUse">
<stop stop-color="#222E51" stop-opacity="0"/>
<stop offset="1" stop-color="#231F20"/>
</linearGradient>
<linearGradient id="paint1_linear_16192_28792" x1="9.17397" y1="59.0791" x2="6.14797" y2="60.5921" gradientUnits="userSpaceOnUse">
<stop stop-color="#222E51" stop-opacity="0"/>
<stop offset="1" stop-color="white"/>
</linearGradient>
<linearGradient id="paint2_linear_16192_28792" x1="12.8789" y1="66.7848" x2="15.493" y2="44.6223" gradientUnits="userSpaceOnUse">
<stop stop-color="#222E51" stop-opacity="0"/>
<stop offset="1" stop-color="#231F20"/>
</linearGradient>
<linearGradient id="paint3_linear_16192_28792" x1="8.03017" y1="50.7753" x2="21.0563" y2="40.2108" gradientUnits="userSpaceOnUse">
<stop stop-color="#222E51" stop-opacity="0"/>
<stop offset="1" stop-color="#231F20"/>
</linearGradient>
<linearGradient id="paint4_linear_16192_28792" x1="9.16678" y1="45.4727" x2="0.751016" y2="39.0694" gradientUnits="userSpaceOnUse">
<stop stop-color="#222E51" stop-opacity="0"/>
<stop offset="1" stop-color="white"/>
</linearGradient>
<linearGradient id="paint5_linear_16192_28792" x1="13.9746" y1="55.4613" x2="37.8761" y2="46.6555" gradientUnits="userSpaceOnUse">
<stop stop-color="#222E51" stop-opacity="0"/>
<stop offset="1" stop-color="#231F20"/>
</linearGradient>
<linearGradient id="paint6_linear_16192_28792" x1="10.1464" y1="78.5562" x2="13.3116" y2="75.2048" gradientUnits="userSpaceOnUse">
<stop stop-color="#222E51" stop-opacity="0"/>
<stop offset="1" stop-color="#231F20"/>
</linearGradient>
<linearGradient id="paint7_linear_16192_28792" x1="19.0123" y1="57.3556" x2="9.91584" y2="72.9076" gradientUnits="userSpaceOnUse">
<stop stop-color="#222E51" stop-opacity="0"/>
<stop offset="1" stop-color="white"/>
</linearGradient>
<linearGradient id="paint8_linear_16192_28792" x1="16.06" y1="68.4261" x2="19.1631" y2="71.5912" gradientUnits="userSpaceOnUse">
<stop stop-color="#222E51" stop-opacity="0"/>
<stop offset="1" stop-color="#231F20"/>
</linearGradient>
<linearGradient id="paint9_linear_16192_28792" x1="-0.461187" y1="78.0418" x2="13.3532" y2="80.9542" gradientUnits="userSpaceOnUse">
<stop offset="0.117949" stop-color="#673655"/>
<stop offset="1" stop-color="#54283D"/>
</linearGradient>
<linearGradient id="paint10_linear_16192_28792" x1="-0.552776" y1="78.4762" x2="11.9431" y2="81.1107" gradientUnits="userSpaceOnUse">
<stop stop-color="#222E51" stop-opacity="0"/>
<stop offset="1" stop-color="#231F20"/>
</linearGradient>
<linearGradient id="paint11_linear_16192_28792" x1="17.4203" y1="12.9171" x2="23.2852" y2="19.0613" gradientUnits="userSpaceOnUse">
<stop stop-color="#222E51" stop-opacity="0"/>
<stop offset="1" stop-color="#231F20"/>
</linearGradient>
<linearGradient id="paint12_linear_16192_28792" x1="22.3359" y1="20.7316" x2="21.8394" y2="3.16786" gradientUnits="userSpaceOnUse">
<stop stop-color="#222E51" stop-opacity="0"/>
<stop offset="1" stop-color="#231F20"/>
</linearGradient>
<linearGradient id="paint13_linear_16192_28792" x1="22.5685" y1="7.45372" x2="30.0144" y2="13.051" gradientUnits="userSpaceOnUse">
<stop stop-color="#222E51" stop-opacity="0"/>
<stop offset="1" stop-color="#231F20"/>
</linearGradient>
<linearGradient id="paint14_linear_16192_28792" x1="29.0037" y1="4.23081" x2="32.3406" y2="3.19992" gradientUnits="userSpaceOnUse">
<stop stop-color="#222E51" stop-opacity="0"/>
<stop offset="1" stop-color="#231F20"/>
</linearGradient>
<linearGradient id="paint15_linear_16192_28792" x1="27.4161" y1="4.21138" x2="28.4332" y2="1.56968" gradientUnits="userSpaceOnUse">
<stop stop-color="#222E51" stop-opacity="0"/>
<stop offset="1" stop-color="#231F20"/>
</linearGradient>
<linearGradient id="paint16_linear_16192_28792" x1="28.8272" y1="2.45886" x2="30.1317" y2="2.68486" gradientUnits="userSpaceOnUse">
<stop stop-color="#222E51" stop-opacity="0"/>
<stop offset="1" stop-color="#231F20"/>
</linearGradient>
<linearGradient id="paint17_linear_16192_28792" x1="29.7228" y1="2.44725" x2="31.7646" y2="2.37689" gradientUnits="userSpaceOnUse">
<stop stop-color="#222E51" stop-opacity="0"/>
<stop offset="1" stop-color="#231F20"/>
</linearGradient>
<linearGradient id="paint18_linear_16192_28792" x1="29.3651" y1="3.65966" x2="29.5583" y2="2.77841" gradientUnits="userSpaceOnUse">
<stop stop-color="#222E51" stop-opacity="0"/>
<stop offset="1" stop-color="#231F20"/>
</linearGradient>
<linearGradient id="paint19_linear_16192_28792" x1="31.1242" y1="2.29074" x2="30.2894" y2="4.05407" gradientUnits="userSpaceOnUse">
<stop stop-color="#222E51" stop-opacity="0"/>
<stop offset="1" stop-color="#231F20"/>
</linearGradient>
<linearGradient id="paint20_linear_16192_28792" x1="31.0289" y1="3.46973" x2="31.0831" y2="3.88678" gradientUnits="userSpaceOnUse">
<stop stop-color="#222E51" stop-opacity="0"/>
<stop offset="1" stop-color="#231F20"/>
</linearGradient>
<linearGradient id="paint21_linear_16192_28792" x1="30.3849" y1="4.10038" x2="31.1195" y2="5.62606" gradientUnits="userSpaceOnUse">
<stop stop-color="#222E51" stop-opacity="0"/>
<stop offset="1" stop-color="#231F20"/>
</linearGradient>
<linearGradient id="paint22_linear_16192_28792" x1="18.2034" y1="31.7986" x2="43.5265" y2="30.9003" gradientUnits="userSpaceOnUse">
<stop stop-color="white" stop-opacity="0"/>
<stop offset="1" stop-color="white"/>
</linearGradient>
<linearGradient id="paint23_linear_16192_28792" x1="23.3524" y1="29.7932" x2="58.8097" y2="57.8636" gradientUnits="userSpaceOnUse">
<stop stop-color="#222E51" stop-opacity="0"/>
<stop offset="1" stop-color="#231F20"/>
</linearGradient>
<linearGradient id="paint24_linear_16192_28792" x1="29.8351" y1="22.8557" x2="30.6729" y2="19.9581" gradientUnits="userSpaceOnUse">
<stop stop-color="#222E51" stop-opacity="0"/>
<stop offset="1" stop-color="#231F20"/>
</linearGradient>
<linearGradient id="paint25_linear_16192_28792" x1="47.1706" y1="19.7292" x2="47.3766" y2="15.6305" gradientUnits="userSpaceOnUse">
<stop stop-color="#222E51" stop-opacity="0"/>
<stop offset="1" stop-color="#231F20"/>
</linearGradient>
<linearGradient id="paint26_linear_16192_28792" x1="45.5072" y1="20.553" x2="46.8726" y2="26.8834" gradientUnits="userSpaceOnUse">
<stop stop-color="#222E51" stop-opacity="0"/>
<stop offset="1" stop-color="#231F20"/>
</linearGradient>
<linearGradient id="paint27_linear_16192_28792" x1="40.1176" y1="23.2463" x2="54.7023" y2="27.7148" gradientUnits="userSpaceOnUse">
<stop stop-color="#222E51" stop-opacity="0"/>
<stop offset="1" stop-color="#231F20"/>
</linearGradient>
<linearGradient id="paint28_linear_16192_28792" x1="42.799" y1="9.08239" x2="40.6427" y2="-1.69886" gradientUnits="userSpaceOnUse">
<stop stop-color="#222E51" stop-opacity="0"/>
<stop offset="1" stop-color="#231F20"/>
</linearGradient>
<linearGradient id="paint29_linear_16192_28792" x1="40.9506" y1="7.81381" x2="39.4243" y2="0.181984" gradientUnits="userSpaceOnUse">
<stop stop-color="#222E51" stop-opacity="0"/>
<stop offset="1" stop-color="#231F20"/>
</linearGradient>
<linearGradient id="paint30_linear_16192_28792" x1="41.9894" y1="7.22647" x2="40.4967" y2="-0.237089" gradientUnits="userSpaceOnUse">
<stop stop-color="#222E51" stop-opacity="0"/>
<stop offset="1" stop-color="#231F20"/>
</linearGradient>
<linearGradient id="paint31_linear_16192_28792" x1="42.943" y1="6.38746" x2="41.7599" y2="0.471831" gradientUnits="userSpaceOnUse">
<stop stop-color="#222E51" stop-opacity="0"/>
<stop offset="1" stop-color="#231F20"/>
</linearGradient>
<linearGradient id="paint32_linear_16192_28792" x1="41.2603" y1="7.68375" x2="41.4814" y2="10.2555" gradientUnits="userSpaceOnUse">
<stop stop-color="#222E51" stop-opacity="0"/>
<stop offset="1" stop-color="#231F20"/>
</linearGradient>
<linearGradient id="paint33_linear_16192_28792" x1="31.4702" y1="11.7426" x2="28.9329" y2="19.7855" gradientUnits="userSpaceOnUse">
<stop stop-color="#222E51" stop-opacity="0"/>
<stop offset="1" stop-color="#231F20"/>
</linearGradient>
<linearGradient id="paint34_linear_16192_28792" x1="30.1658" y1="21.7972" x2="30.2123" y2="18.0501" gradientUnits="userSpaceOnUse">
<stop stop-color="#222E51" stop-opacity="0"/>
<stop offset="1" stop-color="#231F20"/>
</linearGradient>
<linearGradient id="paint35_linear_16192_28792" x1="29.4538" y1="17.0801" x2="30.2377" y2="14.4452" gradientUnits="userSpaceOnUse">
<stop stop-color="#222E51" stop-opacity="0"/>
<stop offset="1" stop-color="#231F20"/>
</linearGradient>
<linearGradient id="paint36_linear_16192_28792" x1="32.7161" y1="15.226" x2="32.1603" y2="17.7736" gradientUnits="userSpaceOnUse">
<stop stop-color="#222E51" stop-opacity="0"/>
<stop offset="1" stop-color="#231F20"/>
</linearGradient>
<linearGradient id="paint37_linear_16192_28792" x1="24.8084" y1="12.7121" x2="26.7159" y2="14.6812" gradientUnits="userSpaceOnUse">
<stop stop-color="#222E51" stop-opacity="0"/>
<stop offset="1" stop-color="#231F20"/>
</linearGradient>
<linearGradient id="paint38_linear_16192_28792" x1="28.1879" y1="14.0954" x2="28.9266" y2="16.3801" gradientUnits="userSpaceOnUse">
<stop stop-color="#222E51" stop-opacity="0"/>
<stop offset="1" stop-color="#231F20"/>
</linearGradient>
<linearGradient id="paint39_linear_16192_28792" x1="31.4878" y1="14.1821" x2="33.2662" y2="14.3468" gradientUnits="userSpaceOnUse">
<stop stop-color="#222E51" stop-opacity="0"/>
<stop offset="1" stop-color="#231F20"/>
</linearGradient>
<linearGradient id="paint40_linear_16192_28792" x1="29.9545" y1="13.0228" x2="28.9734" y2="12.2408" gradientUnits="userSpaceOnUse">
<stop stop-color="#222E51" stop-opacity="0"/>
<stop offset="1" stop-color="#231F20"/>
</linearGradient>
<linearGradient id="paint41_linear_16192_28792" x1="33.2744" y1="16.7135" x2="32.4287" y2="19.0251" gradientUnits="userSpaceOnUse">
<stop stop-color="#222E51" stop-opacity="0"/>
<stop offset="1" stop-color="#281433"/>
</linearGradient>
<linearGradient id="paint42_linear_16192_28792" x1="32.1744" y1="18.3847" x2="32.8401" y2="17.8939" gradientUnits="userSpaceOnUse">
<stop stop-color="#222E51" stop-opacity="0"/>
<stop offset="1" stop-color="#231F20"/>
</linearGradient>
</defs>
</svg>
