<svg xmlns="http://www.w3.org/2000/svg" xmlns:xlink="http://www.w3.org/1999/xlink" width="1080" zoomAndPan="magnify" viewBox="0 0 810 809.999993" height="1080" preserveAspectRatio="xMidYMid meet" version="1.2"><defs><clipPath id="ab239c69be"><path d="M 488 316 L 541.945312 316 L 541.945312 376 L 488 376 Z M 488 316 "/></clipPath></defs><g id="e98efdbdd2"><path style=" stroke:none;fill-rule:nonzero;fill:#2b4485;fill-opacity:1;" d="M 354.921875 410.84375 C 354.734375 410.902344 354.296875 411.714844 354.144531 411.910156 C 353.226562 413.078125 352.277344 414.226562 351.351562 415.386719 C 348.566406 418.871094 345.382812 422.113281 343.023438 425.914062 C 341.996094 427.574219 341.136719 429.933594 343.230469 431.171875 C 345.054688 432.246094 347.519531 432.289062 349.570312 432.328125 C 353.285156 432.402344 357.019531 432.347656 360.726562 432.191406 C 362.039062 432.136719 363.386719 432.117188 364.675781 431.847656 C 365.246094 431.726562 365.832031 431.539062 366.09375 430.976562 C 366.425781 430.277344 366.363281 429.394531 366.394531 428.640625 C 366.425781 427.875 366.773438 426.375 366.351562 425.667969 C 366.089844 425.230469 365.019531 425.386719 364.617188 425.386719 C 362.871094 425.386719 361.121094 425.386719 359.375 425.339844 C 358.402344 425.316406 357.425781 425.296875 356.460938 425.175781 C 356.1875 425.140625 355.597656 425.113281 355.582031 424.722656 C 355.558594 424.265625 356.074219 423.746094 356.324219 423.421875 C 356.953125 422.589844 357.59375 421.765625 358.226562 420.9375 C 360.539062 417.90625 362.738281 414.777344 364.4375 411.347656 C 365.152344 409.910156 366.722656 407.078125 365.253906 405.601562 C 364.144531 404.484375 362.03125 404.589844 360.59375 404.550781 C 356.464844 404.445312 352.347656 404.746094 348.222656 404.863281 C 346.949219 404.894531 345.675781 404.894531 344.402344 404.949219 C 343.777344 404.976562 342.9375 404.964844 342.429688 405.390625 C 341.691406 406.007812 341.859375 407.480469 341.847656 408.324219 C 341.832031 409.242188 341.589844 410.714844 342.210938 411.496094 C 342.710938 412.125 343.792969 412.003906 344.496094 411.992188 C 346.273438 411.949219 348.046875 411.851562 349.820312 411.789062 C 352.460938 411.695312 355.09375 411.699219 357.726562 411.804688 "/><path style=" stroke:none;fill-rule:nonzero;fill:#2b4485;fill-opacity:1;" d="M 398.574219 389.945312 C 398.332031 390.023438 397.765625 391.082031 397.5625 391.335938 C 396.367188 392.863281 395.128906 394.359375 393.917969 395.875 C 390.285156 400.417969 386.128906 404.652344 383.050781 409.613281 C 381.710938 411.777344 380.59375 414.855469 383.320312 416.46875 C 385.703125 417.871094 388.921875 417.925781 391.597656 417.980469 C 396.441406 418.078125 401.3125 418.007812 406.152344 417.800781 C 407.863281 417.730469 409.625 417.703125 411.304688 417.347656 C 412.046875 417.195312 412.8125 416.949219 413.15625 416.214844 C 413.585938 415.304688 413.507812 414.148438 413.546875 413.164062 C 413.585938 412.167969 414.042969 410.210938 413.492188 409.289062 C 413.152344 408.71875 411.753906 408.917969 411.230469 408.917969 C 408.949219 408.917969 406.664062 408.917969 404.386719 408.863281 C 403.121094 408.832031 401.84375 408.804688 400.585938 408.644531 C 400.230469 408.597656 399.460938 408.5625 399.441406 408.054688 C 399.410156 407.460938 400.082031 406.78125 400.40625 406.359375 C 401.230469 405.273438 402.0625 404.199219 402.886719 403.117188 C 405.90625 399.164062 408.777344 395.082031 410.996094 390.605469 C 411.925781 388.726562 413.976562 385.03125 412.058594 383.105469 C 410.613281 381.648438 407.851562 381.785156 405.976562 381.734375 C 400.589844 381.597656 395.21875 381.992188 389.835938 382.140625 C 388.175781 382.183594 386.511719 382.183594 384.851562 382.253906 C 384.035156 382.289062 382.941406 382.273438 382.277344 382.828125 C 381.316406 383.636719 381.535156 385.558594 381.519531 386.660156 C 381.496094 387.855469 381.183594 389.777344 381.992188 390.796875 C 382.644531 391.617188 384.058594 391.460938 384.972656 391.441406 C 387.292969 391.390625 389.609375 391.261719 391.921875 391.179688 C 395.367188 391.054688 398.800781 391.058594 402.238281 391.199219 "/><path style=" stroke:none;fill-rule:nonzero;fill:#2b4485;fill-opacity:1;" d="M 452.054688 359.507812 C 451.71875 359.617188 450.9375 361.070312 450.660156 361.421875 C 449.015625 363.519531 447.3125 365.574219 445.652344 367.660156 C 440.660156 373.90625 434.945312 379.726562 430.714844 386.542969 C 428.871094 389.519531 427.332031 393.75 431.082031 395.96875 C 434.355469 397.894531 438.78125 397.972656 442.457031 398.046875 C 449.121094 398.179688 455.816406 398.082031 462.472656 397.796875 C 464.824219 397.703125 467.242188 397.664062 469.550781 397.179688 C 470.574219 396.96875 471.621094 396.628906 472.09375 395.621094 C 472.6875 394.367188 472.578125 392.78125 472.632812 391.429688 C 472.6875 390.058594 473.3125 387.367188 472.554688 386.101562 C 472.089844 385.3125 470.167969 385.59375 469.445312 385.59375 C 466.3125 385.59375 463.175781 385.59375 460.039062 385.511719 C 458.300781 385.472656 456.542969 385.433594 454.816406 385.214844 C 454.324219 385.148438 453.269531 385.101562 453.242188 384.402344 C 453.199219 383.585938 454.125 382.652344 454.566406 382.070312 C 455.703125 380.578125 456.847656 379.101562 457.980469 377.617188 C 462.132812 372.179688 466.078125 366.566406 469.125 360.417969 C 470.402344 357.835938 473.222656 352.753906 470.585938 350.105469 C 468.597656 348.101562 464.804688 348.289062 462.226562 348.222656 C 454.824219 348.035156 447.441406 348.574219 440.039062 348.78125 C 437.753906 348.839844 435.46875 348.839844 433.1875 348.9375 C 432.066406 348.984375 430.5625 348.960938 429.644531 349.726562 C 428.324219 350.835938 428.628906 353.476562 428.605469 354.992188 C 428.574219 356.632812 428.144531 359.277344 429.257812 360.675781 C 430.15625 361.804688 432.09375 361.59375 433.355469 361.566406 C 436.542969 361.496094 439.726562 361.320312 442.90625 361.203125 C 447.640625 361.035156 452.363281 361.039062 457.089844 361.234375 "/><g clip-rule="nonzero" clip-path="url(#ab239c69be)"><path style=" stroke:none;fill-rule:nonzero;fill:#2b4485;fill-opacity:1;" d="M 516.367188 329.496094 C 515.96875 329.625 515.039062 331.355469 514.707031 331.773438 C 512.75 334.269531 510.722656 336.71875 508.746094 339.199219 C 502.800781 346.640625 495.992188 353.570312 490.957031 361.6875 C 488.761719 365.230469 486.929688 370.269531 491.398438 372.910156 C 495.292969 375.203125 500.5625 375.296875 504.941406 375.382812 C 512.875 375.542969 520.847656 375.429688 528.773438 375.089844 C 531.570312 374.972656 534.449219 374.929688 537.199219 374.351562 C 538.421875 374.101562 539.667969 373.695312 540.230469 372.496094 C 540.9375 371.003906 540.808594 369.113281 540.875 367.503906 C 540.9375 365.875 541.683594 362.667969 540.78125 361.160156 C 540.222656 360.222656 537.9375 360.554688 537.078125 360.554688 C 533.347656 360.554688 529.609375 360.554688 525.878906 360.460938 C 523.808594 360.410156 521.714844 360.367188 519.65625 360.105469 C 519.074219 360.027344 517.816406 359.96875 517.78125 359.140625 C 517.730469 358.164062 518.835938 357.054688 519.359375 356.363281 C 520.710938 354.585938 522.074219 352.824219 523.425781 351.058594 C 528.367188 344.585938 533.066406 337.902344 536.695312 330.578125 C 538.21875 327.503906 541.574219 321.453125 538.433594 318.300781 C 536.066406 315.914062 531.550781 316.136719 528.484375 316.058594 C 519.664062 315.832031 510.875 316.476562 502.0625 316.71875 C 499.34375 316.792969 496.621094 316.792969 493.902344 316.910156 C 492.566406 316.964844 490.777344 316.9375 489.6875 317.847656 C 488.113281 319.167969 488.472656 322.3125 488.445312 324.117188 C 488.410156 326.074219 487.898438 329.21875 489.222656 330.886719 C 490.292969 332.230469 492.601562 331.976562 494.101562 331.949219 C 497.898438 331.859375 501.6875 331.652344 505.476562 331.515625 C 511.113281 331.3125 516.734375 331.320312 522.363281 331.550781 "/></g><path style=" stroke:none;fill-rule:nonzero;fill:#2b4485;fill-opacity:1;" d="M 326.070312 435.011719 C 325.878906 434 323.085938 435.125 322.78125 435.285156 C 319.84375 436.835938 317.066406 441.300781 320.375 444.007812 C 326.394531 448.9375 334.542969 438.382812 327.460938 434.585938 C 324.84375 433.179688 321.015625 435.050781 319.550781 437.359375 C 318.589844 438.878906 318.210938 441.054688 319.578125 442.453125 C 320.203125 443.09375 321 443.457031 321.828125 443.765625 "/><path style=" stroke:none;fill-rule:nonzero;fill:#2b4485;fill-opacity:1;" d="M 308.789062 448.183594 C 308.863281 448.011719 307.976562 448.1875 307.964844 448.1875 C 307.050781 448.464844 306.175781 448.949219 305.429688 449.535156 C 303.632812 450.945312 302.335938 453.820312 304.441406 455.574219 C 309.035156 459.398438 315.519531 451.578125 310.289062 448.433594 C 305.523438 445.570312 301.214844 454.195312 306.222656 455.9375 "/><path style=" stroke:none;fill-rule:nonzero;fill:#2b4485;fill-opacity:1;" d="M 298.203125 460.050781 C 297.601562 459.402344 296.28125 460.425781 295.964844 460.902344 C 294.59375 462.980469 296.792969 465.023438 298.910156 464.648438 C 302.367188 464.03125 302.714844 458.574219 298.839844 458.4375 C 294.554688 458.289062 293.851562 464.644531 298.679688 464.019531 "/></g></svg>